<svg width="1900" height="1361" viewBox="0 0 1900 1361" fill="none" xmlns="http://www.w3.org/2000/svg">
<rect x="0.9823" y="0.445801" width="1898.45" height="1360.55" fill="url(#paint0_linear_0_224)"/>
<mask id="mask0_0_224" style="mask-type:luminance" maskUnits="userSpaceOnUse" x="0" y="0" width="1900" height="1361">
<rect x="0.9823" y="0.445801" width="1898.45" height="1360.55" fill="white"/>
</mask>
<g mask="url(#mask0_0_224)">
<path fill-rule="evenodd" clip-rule="evenodd" d="M-171.724 0.445801H124.341L591.812 1403.19H-15.9002L-171.724 935.607V0.445801Z" fill="url(#paint1_linear_0_224)"/>
<path fill-rule="evenodd" clip-rule="evenodd" d="M685.306 0.445801H202.253L669.724 1403.19H1152.78L685.306 0.445801Z" fill="url(#paint2_linear_0_224)"/>
<path fill-rule="evenodd" clip-rule="evenodd" d="M1106.03 0.445801H295.747L763.218 1403.19H1573.5L1106.03 0.445801Z" fill="url(#paint3_linear_0_224)"/>
<path fill-rule="evenodd" clip-rule="evenodd" d="M1744.91 0.445801H1277.44L1744.91 1403.19H2072.14V982.365L1744.91 0.445801Z" fill="url(#paint4_linear_0_224)"/>
<path fill-rule="evenodd" clip-rule="evenodd" d="M2072.14 655.059V1403.19H1931.89L1464.42 0.445801H1853.98L2072.14 655.059Z" fill="url(#paint5_linear_0_224)"/>
</g>
<defs>
<linearGradient id="paint0_linear_0_224" x1="-236.282" y1="850.786" x2="729.983" y2="2199.09" gradientUnits="userSpaceOnUse">
<stop stop-color="#11B4DC"/>
<stop offset="1" stop-color="#0A6C8B"/>
</linearGradient>
<linearGradient id="paint1_linear_0_224" x1="-553.492" y1="0.445801" x2="-553.492" y2="1403.19" gradientUnits="userSpaceOnUse">
<stop stop-color="white" stop-opacity="0.101961"/>
<stop offset="1" stop-color="white" stop-opacity="0.01"/>
</linearGradient>
<linearGradient id="paint2_linear_0_224" x1="-646.986" y1="0.445801" x2="-646.986" y2="1403.19" gradientUnits="userSpaceOnUse">
<stop stop-color="white" stop-opacity="0.101961"/>
<stop offset="1" stop-color="white" stop-opacity="0.01"/>
</linearGradient>
<linearGradient id="paint3_linear_0_224" x1="-810.601" y1="0.445801" x2="-810.601" y2="1403.19" gradientUnits="userSpaceOnUse">
<stop stop-color="white" stop-opacity="0.101961"/>
<stop offset="1" stop-color="white" stop-opacity="0.01"/>
</linearGradient>
<linearGradient id="paint4_linear_0_224" x1="-569.074" y1="0.445801" x2="-569.074" y2="1403.19" gradientUnits="userSpaceOnUse">
<stop stop-color="white" stop-opacity="0.101961"/>
<stop offset="1" stop-color="white" stop-opacity="0.01"/>
</linearGradient>
<linearGradient id="paint5_linear_0_224" x1="-475.58" y1="0.445801" x2="-475.58" y2="1403.19" gradientUnits="userSpaceOnUse">
<stop stop-color="white" stop-opacity="0.101961"/>
<stop offset="1" stop-color="white" stop-opacity="0.01"/>
</linearGradient>
</defs>
</svg>
