<svg width="128" height="128" viewBox="0 0 128 128" fill="none" xmlns="http://www.w3.org/2000/svg">
<g clip-path="url(#clip0_0_271)">
<circle cx="63.8715" cy="63.9554" r="63.2816" fill="white" fill-opacity="0.1"/>
<path d="M93.4682 91.6409H42.8173C38.8211 91.6409 35.5815 88.4014 35.5815 84.405V51.8438C35.5815 47.8475 38.8211 44.6079 42.8173 44.6079H93.4682C97.4646 44.6079 100.704 47.8475 100.704 51.8438V84.405C100.704 88.4014 97.4646 91.6409 93.4682 91.6409Z" stroke="white" stroke-width="3"/>
<path d="M84.4234 69.9334C83.4245 69.9334 82.6144 69.1233 82.6144 68.1244C82.6144 67.1255 83.4245 66.3154 84.4234 66.3154C85.4223 66.3154 86.2324 67.1255 86.2324 68.1244C86.2324 69.1233 85.4223 69.9334 84.4234 69.9334Z" fill="black" stroke="white" stroke-width="3" stroke-linecap="round" stroke-linejoin="round"/>
<path d="M89.8503 44.6077V39.5542C89.8503 34.8001 85.3438 31.3378 80.7501 32.5627L40.9529 43.1753C37.7854 44.02 35.5815 46.8886 35.5815 50.1668V51.8435" stroke="white" stroke-width="3"/>
</g>
<defs>
<clipPath id="clip0_0_271">
<rect width="126.563" height="126.563" fill="white" transform="translate(0.589874 0.673828)"/>
</clipPath>
</defs>
</svg>
