<svg width="128" height="127" viewBox="0 0 128 127" fill="none" xmlns="http://www.w3.org/2000/svg">
<g clip-path="url(#clip0_0_297)">
<circle cx="63.8253" cy="63.2816" r="63.2816" fill="white" fill-opacity="0.1"/>
<path d="M38.7763 82.8776V79.9428C38.7763 68.597 47.9739 59.3994 59.3197 59.3994" stroke="white" stroke-width="1.9921" stroke-linecap="round" stroke-linejoin="round"/>
<path d="M79.2873 60.3206C81.1709 58.2525 84.4249 58.2525 86.3085 60.3206C87.2605 61.366 88.6287 61.9327 90.0409 61.8667C92.8351 61.7361 95.1363 64.0372 95.0057 66.8314C94.9396 68.2436 95.5063 69.6118 96.5517 70.5639C98.6198 72.4474 98.6198 75.7015 96.5517 77.585C95.5063 78.5371 94.9396 79.9053 95.0057 81.3175C95.1363 84.1117 92.8351 86.4128 90.0409 86.2822C88.6287 86.2162 87.2605 86.7829 86.3085 87.8283C84.4249 89.8964 81.1709 89.8964 79.2873 87.8283C78.3353 86.7829 76.9671 86.2162 75.5549 86.2822C72.7607 86.4128 70.4595 84.1117 70.5901 81.3175C70.6562 79.9053 70.0894 78.5371 69.0441 77.585C66.9759 75.7015 66.9759 72.4474 69.0441 70.5639C70.0894 69.6118 70.6562 68.2436 70.5901 66.8314C70.4595 64.0372 72.7607 61.7361 75.5549 61.8667C76.9671 61.9327 78.3353 61.366 79.2873 60.3206Z" stroke="white" stroke-width="1.9921"/>
<path d="M77.9954 74.0741L81.1973 77.2756L87.6003 70.8726" stroke="white" stroke-width="1.9921" stroke-linecap="round" stroke-linejoin="round"/>
<path d="M59.3197 59.3996C65.8029 59.3996 71.0588 54.1437 71.0588 47.6605C71.0588 41.1772 65.8029 35.9214 59.3197 35.9214C52.8364 35.9214 47.5806 41.1772 47.5806 47.6605C47.5806 54.1437 52.8364 59.3996 59.3197 59.3996Z" stroke="white" stroke-width="1.9921" stroke-linecap="round" stroke-linejoin="round"/>
</g>
<defs>
<clipPath id="clip0_0_297">
<rect width="126.563" height="126.563" fill="white" transform="translate(0.543671)"/>
</clipPath>
</defs>
</svg>
