<svg xmlns="http://www.w3.org/2000/svg" xmlns:xlink="http://www.w3.org/1999/xlink" width="128" height="128" viewBox="0 0 128 128">
  <defs>
    <radialGradient id="radial-gradient" cx="0.193" cy="0.843" r="0.99" gradientUnits="objectBoundingBox">
      <stop offset="0" stop-color="#fdbf53"/>
      <stop offset="0.327" stop-color="#ed233f"/>
      <stop offset="0.648" stop-color="#ab3c95"/>
      <stop offset="1" stop-color="#5855a3"/>
    </radialGradient>
  </defs>
  <g id="Group_1104" data-name="Group 1104" transform="translate(-796 -5534)">
    <g id="Group_1103" data-name="Group 1103" transform="translate(-1764.47 5164.53)">
      <circle id="Ellipse_86" data-name="Ellipse 86" cx="64" cy="64" r="64" transform="translate(2560.47 369.469)" opacity="0.29" fill="url(#radial-gradient)"/>
      <circle id="Ellipse_87" data-name="Ellipse 87" cx="51" cy="51" r="51" transform="translate(2573.47 382.469)" opacity="0.29" fill="url(#radial-gradient)"/>
      <ellipse id="Ellipse_88" data-name="Ellipse 88" cx="39.5" cy="40" rx="39.5" ry="40" transform="translate(2585.47 393.469)" fill="url(#radial-gradient)"/>
    </g>
    <g id="Group_719" data-name="Group 719" transform="translate(797.021 5535.021)">
      <g id="Group_718" data-name="Group 718" transform="translate(44.999 45)">
        <path id="Path_10" data-name="Path 10" d="M-2696.241-381.482h7.98a9.871,9.871,0,0,1,9.817,8.008,9.169,9.169,0,0,1,.177,1.8q.019,8.175.005,16.35a9.878,9.878,0,0,1-8.2,9.648,11.074,11.074,0,0,1-1.745.147q-8.045.014-16.093.006a9.889,9.889,0,0,1-9.789-8.351,9.974,9.974,0,0,1-.117-1.517q-.011-8.11,0-16.22a9.875,9.875,0,0,1,8.217-9.716,10.868,10.868,0,0,1,1.695-.143C-2701.614-381.49-2698.927-381.482-2696.241-381.482Zm15.293,17.977q0-3.965,0-7.929a8.025,8.025,0,0,0-.058-1.056,7.2,7.2,0,0,0-7.214-6.3q-8.023-.006-16.041,0a7.277,7.277,0,0,0-1.36.124,7.179,7.179,0,0,0-5.9,7.165q-.007,7.994,0,15.991a8.507,8.507,0,0,0,.052.953,7.187,7.187,0,0,0,7.078,6.335c5.434.021,10.867.008,16.3,0a6.874,6.874,0,0,0,2.545-.488,7.193,7.193,0,0,0,4.6-6.74C-2680.942-358.133-2680.948-360.819-2680.948-363.505Z" transform="translate(2714.215 381.484)" fill="#fff"/>
        <path id="Path_11" data-name="Path 11" d="M-2709.759-367.456a9.61,9.61,0,0,1,9.595-9.571,9.609,9.609,0,0,1,9.586,9.607,9.611,9.611,0,0,1-9.594,9.573A9.612,9.612,0,0,1-2709.759-367.456Zm16.479.025a6.887,6.887,0,0,0-6.894-6.9,6.884,6.884,0,0,0-6.883,6.883,6.884,6.884,0,0,0,6.894,6.9A6.885,6.885,0,0,0-2693.28-367.431Z" transform="translate(2718.147 385.418)" fill="#fff"/>
        <path id="Path_12" data-name="Path 12" d="M-2698.505-374.485a1.854,1.854,0,0,1-1.857-1.875,1.855,1.855,0,0,1,1.873-1.858,1.861,1.861,0,0,1,1.86,1.875A1.857,1.857,0,0,1-2698.505-374.485Z" transform="translate(2726.439 384.367)" fill="#fff"/>
      </g>
    </g>
  </g>
</svg>
