<svg xmlns="http://www.w3.org/2000/svg" width="126" height="126" viewBox="0 0 126 126">
  <g id="Group_1009" data-name="Group 1009" transform="translate(-1611 -5414.53)">
    <g id="Group_1010" data-name="Group 1010" transform="translate(5)">
      <g id="Group_717" data-name="Group 717" transform="translate(1606.021 5414.552)">
        <circle id="Ellipse_69" data-name="Ellipse 69" cx="39" cy="39" r="39" transform="translate(23.979 23.979)" fill="#00e676"/>
        <circle id="Ellipse_70" data-name="Ellipse 70" cx="49" cy="49" r="49" transform="translate(13.979 13.979)" fill="#00e676" opacity="0.31"/>
        <circle id="Ellipse_71" data-name="Ellipse 71" cx="63" cy="63" r="63" transform="translate(-0.021 -0.021)" fill="#00e676" opacity="0.14"/>
      </g>
      <g id="Group_1007" data-name="Group 1007" transform="translate(4299.385 5836.742)">
        <g id="Group_3" data-name="Group 3" transform="translate(-2649.253 -380.08)">
          <path id="Path_8" data-name="Path 8" d="M-2626.962-363.94c-.073-.035-2.826-1.392-3.314-1.566a1.9,1.9,0,0,0-.642-.144,1.085,1.085,0,0,0-.925.551c-.274.408-1.105,1.378-1.363,1.67-.035.039-.082.083-.106.083s-.452-.176-.58-.232a14.448,14.448,0,0,1-5.5-4.885.281.281,0,0,1-.044-.109.888.888,0,0,1,.159-.19c.151-.148.313-.343.47-.533.075-.088.148-.178.223-.264a2.873,2.873,0,0,0,.444-.709l.062-.123a1.285,1.285,0,0,0-.036-1.209c-.065-.13-1.225-2.932-1.35-3.229-.3-.711-.692-1.04-1.235-1.04-.051,0,0,0-.21.007a6.6,6.6,0,0,0-2.289.591,4.787,4.787,0,0,0-1.776,4.074,8.79,8.79,0,0,0,1.9,4.834l.08.111a17.9,17.9,0,0,0,7.687,6.675,12.461,12.461,0,0,0,4.642,1.186h0a7.238,7.238,0,0,0,.754-.044l.135-.014c.921-.081,2.944-1.128,3.4-2.409a3.775,3.775,0,0,0,.216-2.5,1.728,1.728,0,0,0-.809-.581Zm0,0" transform="translate(2654.885 385.626)" fill="#fff"/>
          <path id="Path_9" data-name="Path 9" d="M-2630.05-380.08a18.488,18.488,0,0,0-18.536,18.395,18.284,18.284,0,0,0,2.541,9.3l-3.182,9.392a.49.49,0,0,0,.112.5.5.5,0,0,0,.353.146.465.465,0,0,0,.146-.023l9.792-3.111a18.666,18.666,0,0,0,8.773,2.186,18.485,18.485,0,0,0,18.533-18.395,18.488,18.488,0,0,0-18.533-18.395Zm0,32.958a14.707,14.707,0,0,1-8.079-2.406.488.488,0,0,0-.269-.081.461.461,0,0,0-.148.023l-4.906,1.556,1.584-4.669a.5.5,0,0,0-.07-.449,14.364,14.364,0,0,1-2.8-8.537,14.641,14.641,0,0,1,14.682-14.564,14.636,14.636,0,0,1,14.677,14.564,14.635,14.635,0,0,1-14.677,14.564Zm0,0" transform="translate(2649.254 380.08)" fill="#fff"/>
        </g>
      </g>
    </g>
  </g>
</svg>
