<svg xmlns="http://www.w3.org/2000/svg" width="480.6" height="443" viewBox="0 0 480.6 443">
  <g id="_3-01" data-name="3-01" transform="translate(-300.301 -330.4)">
    <path id="Path_2334" data-name="Path 2334" d="M780.9,773.4H300.3V758.5h29.6V555.7h75V382.8h75.2V330.4H600.4v52.1h75V555.4h75.2V758.3h30.2C780.9,763.4,780.9,768.4,780.9,773.4ZM420.6,397.9v360h60V676H600.7v82h59.7V398h-60v51.9H480.3v-52ZM404.9,758.2V571H345.4V758.2ZM676,570.7V757.9h59.5V570.7ZM585.2,435.1V345.5H495.6v89.6Zm.1,256H495.7v67h89.6Z" fill="#2eb7c4"/>
    <path id="Path_2335" data-name="Path 2335" d="M465.5,547.6V488.1H525v59.5Zm15.2-44.5v29.6h29.4V503.1Z" fill="#2eb7c4"/>
    <path id="Path_2336" data-name="Path 2336" d="M555.8,488.1h59.5v59.5H555.8Zm15,15v29.5h29.5V503.1Z" fill="#2eb7c4"/>
    <path id="Path_2337" data-name="Path 2337" d="M525.1,637.9H465.6V578.4h59.5Zm-15-15V593.4H480.6v29.5Z" fill="#2eb7c4"/>
    <path id="Path_2338" data-name="Path 2338" d="M615.4,578.4v59.5H555.9V578.4Zm-44.5,14.9v29.5h29.5V593.3Z" fill="#2eb7c4"/>
    <path id="Path_2339" data-name="Path 2339" d="M547.8,382.6h22.4v14.9H548.3v22.4H533.2V398H510.8V382.9h21.9V360.5h15.1Z" fill="#2eb7c4"/>
  </g>
</svg>
