<svg xmlns="http://www.w3.org/2000/svg" width="384.199" height="368.26" viewBox="0 0 384.199 368.26">
  <g id="_7-01" data-name="7-01" transform="translate(-347.801 -355.556)">
    <path id="Path_2354" data-name="Path 2354" d="M732,622c-.2.4-.5.9-.7,1.3-3.2,10.3-10.5,15.7-21.4,15.8H591.1c1.3,5.5,2.2,10.5,3.6,15.3a76.09,76.09,0,0,0,18.1,31.5,9.553,9.553,0,0,0,5.4,2.4c5,.3,10,0,15,.1,6.7.1,10.7,4,10.9,10.7.1,4.7.1,9.5,0,14.2-.2,6.2-4.3,10.3-10.5,10.4-6.9.2-13.7.1-20.6,0-4-.1-6.4-2.4-6.3-5.8.1-3.3,2.4-5.3,6.3-5.3,6.5-.1,12.9,0,19.6,0V699.9H447.2v12.7H582.9c1.1,0,2.3-.1,3.4,0a5.329,5.329,0,0,1,5.1,5.1c.2,3-1.4,5-4.3,5.8a18.434,18.434,0,0,1-4.1.3H448.8c-9.5,0-13.1-3.6-13.1-13.1,0-3.7-.1-7.5,0-11.2.1-6.9,4.1-10.9,11-11,5.1-.1,10.3.1,15.4-.1a6.085,6.085,0,0,0,4-1.4c12.3-12.8,19.5-28.1,22.1-45.7a15.852,15.852,0,0,0,0-2.2H430.8a12.96,12.96,0,0,1-4.4-.5,5.04,5.04,0,0,1-3.6-5.8,4.95,4.95,0,0,1,4.5-4.7,39.664,39.664,0,0,1,4.9-.1H707.8c9.9,0,12.9-3.1,12.9-13V379.6c0-9.6-3.1-12.7-12.8-12.7h-336c-9.6,0-12.7,3.1-12.7,12.8V615.5c0,9.3,3.2,12.5,12.6,12.5h28.5c4.7,0,7.2,2,7.1,5.7-.1,3.4-2.6,5.5-7.1,5.5h-30c-11.4,0-18.4-5.2-21.9-16.1-.1-.3-.4-.6-.6-1V372.8c5.5-13.7,10.5-17.2,25.4-17.2H707.6c1.4,0,2.8-.1,4.1,0,6,.3,11.3,2.5,15,7.3,2.2,2.9,3.5,6.5,5.1,9.8Q732.1,497.35,732,622ZM580.1,639.3H499.9A97.168,97.168,0,0,1,480.4,688H599.7A95.884,95.884,0,0,1,580.1,639.3Z" fill="#2eb7c4"/>
    <path id="Path_2355" data-name="Path 2355" d="M696.3,391.1H383.8V580.9H635.1a27.74,27.74,0,0,1,4.1.1c3.1.6,4.9,2.6,4.8,5.8-.2,3.1-2.1,5-5.3,5.3-1,.1-2,0-3,0h-255c-7.1,0-8.6-1.5-8.6-8.5V388.3c0-7,1.6-8.5,8.7-8.5H699.1c7,0,8.6,1.6,8.6,8.6V583.7c0,6.9-1.6,8.4-8.3,8.4H666c-4.5,0-6.9-2-6.9-5.5s2.4-5.7,6.8-5.7h30.3C696.3,517.6,696.3,454.5,696.3,391.1Z" fill="#2eb7c4"/>
    <path id="Path_2356" data-name="Path 2356" d="M613.8,485c4.4,1.3,9.7,2.9,14.9,4.4,16.2,4.8,32.5,9.6,48.7,14.6a10.6,10.6,0,0,1,5.2,3.3c2.2,3,.6,6.6-3.5,8.3-8.8,3.6-17.5,7.2-26.4,10.5a6.814,6.814,0,0,0-4.4,4.5c-3.3,8.5-6.7,16.9-10.1,25.3-1.1,2.9-2.6,5.3-6,5.2-3.6-.1-5-2.7-5.9-5.8-6.1-20.5-12.3-41-18.4-61.5C606.3,488.5,608.4,484.9,613.8,485Zm47,25.7c-13.5-4.1-26.2-7.9-39.6-11.9,4,13.3,7.8,25.9,11.9,39.5,2.4-6,4.5-10.9,6.4-15.8a8.545,8.545,0,0,1,5.6-5.5C650,515.2,654.9,513.1,660.8,510.7Z" fill="#2eb7c4"/>
    <path id="Path_2357" data-name="Path 2357" d="M419.7,519.6h15.7c5.2,0,7.1,1.9,7.1,6.9v27.7c0,4.8-2,6.9-6.8,6.9-10.7.1-21.5.1-32.2,0-5,0-6.9-2-6.9-7.1V526.7c0-5.3,1.9-7.1,7.3-7.1ZM408.1,531v18.7H431V531Z" fill="#2eb7c4"/>
    <path id="Path_2358" data-name="Path 2358" d="M419.6,410.8h16.5c4.4,0,6.4,2,6.4,6.4.1,9.5.1,19,0,28.4,0,4.4-2,6.5-6.4,6.5-11.1.1-22.2.1-33.4,0-4.2,0-6.2-2-6.2-6.2q-.15-14.4,0-28.8c0-4.4,2-6.2,6.5-6.3Zm11.4,30V422.3H408.1v18.5Z" fill="#2eb7c4"/>
    <path id="Path_2359" data-name="Path 2359" d="M420,465.3c5.4,0,10.7-.1,16.1,0,4.4.1,6.4,2,6.4,6.4.1,9.5.1,19,0,28.4,0,4.4-2.1,6.5-6.4,6.5-11.1.1-22.2.1-33.4,0-4.1,0-6.2-2.1-6.2-6.3q-.15-14.4,0-28.8c0-4.4,2-6.2,6.6-6.3C408.8,465.2,414.4,465.3,420,465.3Zm11.2,11.4H408.1v18.4h23.1Z" fill="#2eb7c4"/>
    <path id="Path_2360" data-name="Path 2360" d="M514.1,495.5h45.3c4.7,0,7.4,2,7.4,5.6,0,3.5-2.7,5.7-7.3,5.7H468.8c-4.7,0-7.2-2.1-7.1-5.8.1-3.5,2.5-5.4,7-5.4C483.9,495.4,499,495.5,514.1,495.5Z" fill="#2eb7c4"/>
    <path id="Path_2361" data-name="Path 2361" d="M514.2,550h45.3c4.7,0,7.4,2,7.3,5.5,0,3.5-2.7,5.7-7.4,5.7H468.7c-5.7,0-8.7-4.1-6.4-8.4,1.4-2.6,3.8-2.9,6.4-2.9C483.9,550,499,550,514.2,550Z" fill="#2eb7c4"/>
    <path id="Path_2362" data-name="Path 2362" d="M514.1,452.2H468.8c-3.1,0-5.8-.7-6.8-4a5.4,5.4,0,0,1,4.3-7,22.953,22.953,0,0,1,3.7-.2h90.6c3.7.2,6.2,2.6,6.2,5.7,0,3.2-2.5,5.5-6.3,5.5Z" fill="#2eb7c4"/>
    <path id="Path_2363" data-name="Path 2363" d="M549.7,422H513.3c-1.5,0-3.5.1-4.3-.7-1.5-1.5-3.4-3.8-3.1-5.6.2-1.8,2.7-3.3,4.4-4.8.4-.4,1.4-.1,2.2-.1h75.7c3.5.2,5.8,2.3,5.8,5.5s-2.2,5.5-5.7,5.7c-3.4.2-6.7.1-10.1.1C568.7,422,559.2,422,549.7,422Z" fill="#2eb7c4"/>
    <path id="Path_2364" data-name="Path 2364" d="M549.6,530.8c-12.2,0-24.5.1-36.7-.1a9.523,9.523,0,0,1-5.7-1.9c-2.9-2.5-1.7-7.2,1.9-8.6a10.8,10.8,0,0,1,4-.6h75.3c3.6.3,5.7,2.5,5.7,5.7s-2.2,5.4-5.9,5.4c-11.6.1-23.2,0-34.8.1Z" fill="#2eb7c4"/>
    <path id="Path_2365" data-name="Path 2365" d="M549.9,465.3h37.5c3.4,0,6,1.1,6.6,4.7a5.112,5.112,0,0,1-4.1,6.2,18.4,18.4,0,0,1-4.1.4H512c-4-.3-6.5-2.6-6.3-5.9.2-3.2,2.6-5.3,6.5-5.3C524.7,465.2,537.3,465.3,549.9,465.3Z" fill="#2eb7c4"/>
    <path id="Path_2366" data-name="Path 2366" d="M476,530.8c-3,0-6,.1-9,0-3.2-.2-5-2-5.3-5.2a5.212,5.212,0,0,1,5-5.8q9.15-.3,18.3,0a5.486,5.486,0,0,1,5.2,5.8,5.7,5.7,0,0,1-5.7,5.3c-2.8,0-5.6-.1-8.5-.1Z" fill="#2eb7c4"/>
    <path id="Path_2367" data-name="Path 2367" d="M476.1,410.8c2.9,0,5.7-.1,8.6,0a5.406,5.406,0,0,1,5.6,5.3,5.465,5.465,0,0,1-5.2,5.7c-6,.2-12,.2-17.9,0a5.38,5.38,0,0,1-5.4-5.9c.2-3.1,2.3-5.1,5.7-5.2C470.3,410.7,473.2,410.8,476.1,410.8Z" fill="#2eb7c4"/>
    <path id="Path_2368" data-name="Path 2368" d="M476.2,465.3c2.9,0,5.7-.1,8.6,0,3.2.2,5.6,2.5,5.5,5.4-.1,3.1-1.8,5.4-5,5.5q-9.3.45-18.6,0c-3.3-.1-5.2-2.8-4.9-5.9.3-3.2,2.2-4.9,5.4-5C470.2,465.2,473.2,465.3,476.2,465.3Z" fill="#2eb7c4"/>
  </g>
</svg>
