<svg xmlns="http://www.w3.org/2000/svg" width="427.422" height="427.663" viewBox="0 0 427.422 427.663">
  <g id="_8-01" data-name="8-01" transform="translate(-326.678 -326.437)">
    <path id="Path_2369" data-name="Path 2369" d="M716.5,754.1c-3.9-2-5.4-5.2-5.2-9.6.3-6.1.1-12.2.1-18.9H623.3c-1.1,0-2.4.3-3.3-.1-2.5-1.1-6-2-7.1-4s-.5-5.9.8-8c6.1-9.4,12.8-18.5,19.2-27.8l77.7-111a32.638,32.638,0,0,1,2.9-3.6c4.4-4.1,10.5-2.3,11.8,3.6a20.708,20.708,0,0,1,.3,5V711.3c6.5,0,12.7.2,18.9-.1,4.4-.2,7.5,1.3,9.6,5.2v4.2c-2.3,3.8-5.7,5.2-10.1,5-6-.2-12.1-.1-18.3-.1,0,6.5-.2,12.4.1,18.3.2,4.4-1.2,7.8-5,10.1A31.687,31.687,0,0,1,716.5,754.1Zm-5.3-42.9V598.9c-26.5,37.8-52.4,74.8-78.6,112.3Z" fill="#2eb7c4"/>
    <path id="Path_2370" data-name="Path 2370" d="M517,754.1c-6.2-4.3-6.7-7.9-1.8-13.7q42-49.5,84-98.9c14.8-17.4,8.9-44.6-11.9-54.2-28.2-12.9-59.4,6-61.1,37.1-.3,5.5-3.3,8.9-7.6,8.5-4.3-.3-6.9-3.7-6.5-9,1.4-22.2,11.7-39.1,31.6-49s39.8-8.2,58.1,4.5c22.8,15.8,26.7,49.8,8.8,70.8L537.7,736c-.9,1-1.6,2.1-2.9,3.7h5.1c25.6,0,51.2-.1,76.8.1a11.937,11.937,0,0,1,7.7,3c3.3,3.3,1.5,7.9-3.7,11.1C586,754.1,551.5,754.1,517,754.1Z" fill="#2eb7c4"/>
    <path id="Path_2371" data-name="Path 2371" d="M340.4,526.2c2.1,12.3,3.3,24.2,6.1,35.7,9.1,37.3,28.7,68.5,58,93.3a171.374,171.374,0,0,0,82.4,38.7c8.2,1.4,16.6,1.8,24.8,3.2a10.647,10.647,0,0,1,6.8,4.4c2.6,4.8-1.6,9.8-7.7,9.6-18.9-.8-37.4-3.9-55.1-10.6-67.2-25.4-109.6-73-124.8-143.2-21.1-97.2,38.9-196.1,134.7-222.9,55.4-15.5,108.4-8.6,156.8,22.7,50.7,32.8,80.1,79.8,87.6,140.1.5,3.7.8,7.3,1.3,12.2,4.2-4.3,7.6-7.8,11.1-11.4,5.5-5.5,10.9-11.1,16.6-16.5,4.5-4.3,11.1-3.1,12.1,2.5a9.906,9.906,0,0,1-2.2,7.4c-12.8,13.2-25.8,26.1-38.9,39-3.9,3.8-7.7,3.6-11.7-.3l-37.8-37.8c-4-4-4.5-8.2-1.4-11.3,3.3-3.3,7.3-2.9,11.6,1.4,8.4,8.3,16.7,16.7,25.2,25.2-.3-71-63.2-161.6-169.7-166.2v16.1a32.524,32.524,0,0,1-.2,5.4c-.6,4-3.7,6.6-7.5,6.3a6.911,6.911,0,0,1-6.5-6.9c-.2-6.8,0-13.6,0-20.4-77.6-.7-166.5,66-170.5,170h26.1c5.6,0,9,2.8,8.9,7.2s-3.4,7-9.1,7H345.7C344.4,526.2,343,526.2,340.4,526.2Z" fill="#2eb7c4"/>
    <path id="Path_2372" data-name="Path 2372" d="M497.7,518.9c.1-1.2-.1-2.6.4-3.6,2.3-4.5.1-7.2-3-10.2-9.9-9.6-19.5-19.4-29.3-29.1a19.855,19.855,0,0,1-3-3.5,6.5,6.5,0,0,1,1.1-8.7,6.43,6.43,0,0,1,8.4-.9,29.243,29.243,0,0,1,3.8,3.2c10.4,10.4,20.9,20.8,31.2,31.3,1.8,1.8,3.2,2.1,5.8,1.6a25.984,25.984,0,0,1,11.1-.1c3.3.8,5-.1,7.2-2.2,23.4-23.6,47-47,70.5-70.5a25.024,25.024,0,0,1,3.4-3.1c3.2-2.3,6.9-2.1,9.4.5s2.6,6.4.2,9.5a32.6,32.6,0,0,1-3.1,3.3l-70.2,70.2c-2.1,2.1-3.1,3.9-2.1,7.1,2.5,8.6,0,16-6.8,21.7s-14.6,6.7-22.6,3C502.1,534.5,498.1,527.8,497.7,518.9Zm21.2-6.9a7.071,7.071,0,0,0-6.8,7.4,7.21,7.21,0,0,0,7.2,6.7,7.053,7.053,0,1,0-.4-14.1Z" fill="#2eb7c4"/>
  </g>
</svg>
