<svg xmlns="http://www.w3.org/2000/svg" width="482.139" height="94.534" viewBox="0 0 482.139 94.534">
  <g id="Group_2" data-name="Group 2" transform="translate(-160 -94.181)">
    <path id="Path_1" data-name="Path 1" d="M204.078,2.615h-9.734V14.034h9.734Zm14.508,0h-9.734V14.034h9.734Zm4.679,41.745H189.759c.561-8.519,8.33-15.163,16.753-15.163s16.193,6.645,16.753,15.163M233,46.979A26.545,26.545,0,0,0,206.6,20.3c-15.162,0-26.58,12.262-26.58,27.237,0,14.507,11.606,27.331,26.393,27.331a26.432,26.432,0,0,0,24.9-17.6h-9.735a16.672,16.672,0,0,1-14.788,8.7c-8.517,0-15.069-6.083-17.035-14.133h42.96A42.653,42.653,0,0,0,233,46.979m-61.772,26.3V21.709h-9.736V72.064c0,5.336.469,11.231-6.457,11.7v10.2c3.744,0,7.862-2.059,10.67-4.492,5.428-4.681,5.523-9.454,5.523-16.192m0-68.981h-9.735V15.719h9.735ZM148.765,73.561v-30.7c0-4.587-.749-9.36-3.275-13.292-4.024-6.365-10.951-9.266-18.346-9.266-5.99,0-11.418,1.965-15.162,6.926H111.8V21.709h-9.081V73.561h9.735V45.3c0-8.7,4.118-16.1,13.665-16.1,10.3,0,12.915,7.393,12.915,16.192V73.561Z" transform="translate(182.354 94.75)" fill="#fff" fill-rule="evenodd"/>
    <path id="Path_2" data-name="Path 2" d="M435.143,73.26,414.176,44.245l18.346-22.932H417.453L400.418,45.743h-.187V4H387.783V73.26h12.448V61.748l5.9-7.487,13.759,19ZM365.7,42.841H336.962c1.778-7.395,7.113-11.886,14.694-11.886s12.823,4.4,14.04,11.886m12.729,3.744a26.669,26.669,0,0,0-26.862-27.05c-15.726,0-27.33,12.355-27.33,27.892a27.072,27.072,0,0,0,27.422,27.517c11.045,0,21.715-7.488,25.084-18.065h-13.1c-2.528,4.587-6.927,6.646-11.982,6.646A15.046,15.046,0,0,1,339.021,56.6a10.478,10.478,0,0,1-1.684-3.744h40.34a28.724,28.724,0,0,0,.749-6.271M317.12,71.014v-49.7H304.674v49.42c0,4.773-.094,7.207-5.242,7.675V90.576c11.419-.094,17.688-8.7,17.688-19.562M317.12,4H304.674V15.418H317.12ZM293.911,73.26V42.935c0-5.148-.843-11.044-3.932-15.349-4.024-5.523-10.481-8.05-17.128-8.05-6.925,0-12.635,2.247-16.752,8.142a17.4,17.4,0,0,0-14.977-8.142c-5.053,0-10.764,1.59-13.571,6.177h-.187v-4.4H215.945V73.26h12.448V47.334c0-7.02.563-16.38,9.921-16.38,7.862,0,10.39,6.645,10.39,13.477V73.26h12.448V46.4c0-3.275.094-7.675,1.871-10.576a10.138,10.138,0,0,1,8.611-4.867c8.05,0,9.827,6.832,9.827,13.477V73.26Z" transform="translate(206.996 95.051)" fill="#fff" fill-rule="evenodd"/>
    <path id="Path_3" data-name="Path 3" d="M13.068,25.86a17.134,17.134,0,0,1,16.68-13.233,15.06,15.06,0,0,1,2.622.23l5.407-5.372,4.676-4.644A29.753,29.753,0,0,0,9.135,51.2L10.2,52.258l8.8,8.8L23.156,56.9l.015.015L52.343,27.766c6.533-6.234,13.091-15.139,22.6-15.139A17.136,17.136,0,0,1,91.629,25.9a17.322,17.322,0,0,1,.432,3.854,17.051,17.051,0,0,1-5.023,12.114L52.376,76.582l-8.733-8.734L57.626,52.974l.784,1.218.75-.728L58.48,47.9l7.814-6.828L68.851,44.1l2.793,10.183,1.243-1.1-.578-6.968,1.366-1.366a.692.692,0,0,0-.979-.979l-.536.536-.22-2.656,1.366-1.364a.693.693,0,0,0-.979-.98l-.536.536-.312-3.769,5.043-4.857c2.613-3.088-.244-5.944-3.33-3.331l-4.857,5.043-3.769-.31.536-.535a.692.692,0,0,0-.979-.979L62.76,32.564,60.1,32.345l.535-.533a.693.693,0,0,0-.979-.98L58.3,32.2l-6.972-.577-1.1,1.244L60.4,35.653l3.027,2.559L56.6,46.025l-5.561-.679-.727.75,1.009.651C43.519,54.5,35.7,62.206,27.926,69.991L52.384,94.447,95.975,50.785A29.749,29.749,0,0,0,54.085,8.533L19.155,43.36l-1.091-1.091a17.007,17.007,0,0,1-5.437-12.52,17.271,17.271,0,0,1,.441-3.889" transform="translate(160 94.181)" fill="#fff" fill-rule="evenodd"/>
  </g>
</svg>
