<svg xmlns="http://www.w3.org/2000/svg" width="237.943" height="46.654" viewBox="0 0 237.943 46.654">
  <g id="Group_2404" data-name="Group 2404" transform="translate(-160 -80.422)">
    <g id="Group_2403" data-name="Group 2403" transform="translate(221.723 81.993)">
      <path id="Path_1884" data-name="Path 1884" d="M152.739,2.615h-4.8V8.25h4.8Zm7.16,0h-4.8V8.25h4.8Zm2.309,20.6H145.672a8.309,8.309,0,0,1,16.536,0m4.8,1.293a13.075,13.075,0,1,0-26.144.278c0,7.159,5.728,13.488,13.026,13.488a13.045,13.045,0,0,0,12.288-8.684h-4.8a8.228,8.228,0,0,1-7.3,4.3,8.726,8.726,0,0,1-8.407-6.975h21.2a21.05,21.05,0,0,0,.139-2.4M136.527,37.49V12.038h-4.8V36.889c0,2.633.231,5.543-3.187,5.774V47.7a8.7,8.7,0,0,0,5.266-2.217c2.679-2.31,2.726-4.666,2.726-7.991m0-34.043h-4.8V9.082h4.8ZM125.441,37.628V22.478a12.053,12.053,0,0,0-1.616-6.56,10.317,10.317,0,0,0-9.054-4.573,8.9,8.9,0,0,0-7.483,3.418H107.2V12.038h-4.482v25.59h4.8V23.678c0-4.3,2.032-7.945,6.744-7.945,5.081,0,6.374,3.649,6.374,7.991v13.9Z" transform="translate(-102.714 -2.615)" fill="#2eb7c4" fill-rule="evenodd"/>
      <path id="Path_1885" data-name="Path 1885" d="M324.123,38.181,313.775,23.861l9.054-11.317h-7.437L306.986,24.6h-.093V4H300.75V38.181h6.143V32.5l2.91-3.7,6.79,9.377ZM289.85,23.168H275.669a7.122,7.122,0,0,1,7.252-5.866,6.574,6.574,0,0,1,6.929,5.866m6.282,1.848a13.162,13.162,0,0,0-13.257-13.349,13.393,13.393,0,0,0-13.488,13.765A13.334,13.334,0,0,0,295.3,30.1h-6.466a6.382,6.382,0,0,1-5.913,3.28,7.425,7.425,0,0,1-6.236-3.418,5.171,5.171,0,0,1-.831-1.848h19.908a14.175,14.175,0,0,0,.37-3.095M265.877,37.072V12.544h-6.143v24.39c0,2.356-.046,3.557-2.587,3.788v6c5.635-.046,8.73-4.3,8.73-9.654m0-33.073h-6.143V9.634h6.143ZM254.423,38.181V23.215c0-2.541-.416-5.45-1.94-7.575a10.2,10.2,0,0,0-8.453-3.973c-3.417,0-6.236,1.109-8.267,4.018a8.59,8.59,0,0,0-7.391-4.018c-2.494,0-5.312.785-6.7,3.048h-.093V12.544h-5.635V38.181h6.143V25.386c0-3.464.278-8.084,4.9-8.084,3.88,0,5.128,3.279,5.128,6.651V38.181h6.143V24.924c0-1.616.046-3.788.924-5.22a5,5,0,0,1,4.25-2.4c3.973,0,4.85,3.372,4.85,6.651V38.181Z" transform="translate(-147.902 -3.167)" fill="#002b58" fill-rule="evenodd"/>
    </g>
    <path id="Path_1886" data-name="Path 1886" d="M6.449,12.762a8.456,8.456,0,0,1,8.232-6.531,7.433,7.433,0,0,1,1.294.114l2.669-2.651L20.951,1.4A14.684,14.684,0,0,0,4.508,25.267l.523.523,4.344,4.345,2.052-2.055.007.007L25.832,13.7c3.224-3.077,6.46-7.471,11.151-7.471A8.457,8.457,0,0,1,45.22,12.78a8.548,8.548,0,0,1,.213,1.9,8.415,8.415,0,0,1-2.479,5.979L25.849,37.794l-4.31-4.31,6.9-7.34.387.6.37-.359-.335-2.744,3.856-3.37,1.262,1.494,1.379,5.025.614-.544-.285-3.439.674-.674a.342.342,0,1,0-.483-.483l-.264.264L35.5,20.6l.674-.673a.342.342,0,1,0-.483-.484l-.264.264-.154-1.86,2.489-2.4c1.29-1.524-.12-2.934-1.644-1.644l-2.4,2.489-1.86-.153.264-.264a.342.342,0,1,0-.483-.483l-.673.672-1.311-.108.264-.263a.342.342,0,0,0-.483-.484l-.673.673L25.329,15.6l-.544.614L29.81,17.6,31.3,18.859l-3.37,3.856-2.744-.335-.359.37.5.321C21.477,26.9,17.618,30.7,13.782,34.541l12.07,12.069L47.365,25.063A14.682,14.682,0,0,0,26.692,4.211L9.453,21.4l-.538-.538a8.393,8.393,0,0,1-2.683-6.179,8.523,8.523,0,0,1,.218-1.919" transform="translate(160 80.422)" fill="#2eb7c4" fill-rule="evenodd"/>
  </g>
</svg>
