<svg xmlns="http://www.w3.org/2000/svg" width="567.373" height="567.309" viewBox="0 0 567.373 567.309">
  <g id="_2-01" data-name="2-01" transform="translate(-256.727 -256.892)">
    <path id="Path_2328" data-name="Path 2328" d="M368.9,824.1c-4.2-2.8-5.5-6.8-5.5-11.8.2-23.8,0-47.6.1-71.5.1-24.5,11.4-41.9,33.9-51.6,25.2-10.9,50.4-21.8,75.8-32.3,10.2-4.2,15.2-10.9,14.7-22-.4-8.1-.2-16.2,0-24.4.1-3.3-1-5.2-3.8-7.1-28.4-18.6-44.9-44.7-48.8-78.5a16.666,16.666,0,0,0-.6-2.4c-2.8-.3-5.5-.4-8.2-.8-15.2-1.7-27.3-15-27.4-30a30.158,30.158,0,0,1,26.4-30.1c5.3-.7,10.7-.4,16-.5,7.2-.2,9.8-2.7,10.9-9.8,1.7-11.2,7.1-16.5,18.3-18.1a338.544,338.544,0,0,0,134.5-49.3c5.8-3.7,10.7-3.2,13.5,1.3,2.7,4.3,1.1,8.8-4.3,12.5-3.2,2.1-6.4,4.2-10.1,6.6,1.5,1.1,2.5,1.8,3.5,2.5,14.3,9.9,21.1,23.7,21.2,41,.1,10.9,2.6,13.3,13.4,13.4h13.8c7.3-67-33.5-117.5-87.7-130.9-67.1-16.6-132.8,28.1-142.7,96.5-.4,2.6-.4,5.2-.8,7.7-1,5.4-4.3,8.1-9.1,7.6-4.7-.4-7.5-3.9-7.2-9.4a122.316,122.316,0,0,1,10.5-42.8,126.238,126.238,0,0,1,36.6-48.6c4.1-3.3,5.8-6.8,6.2-12,3.8-41.9,38.7-73,80.8-72.4,39.2.6,73.4,32.3,76.7,71.4.5,6,2.7,9.9,7.2,13.8,30.8,26.6,46.1,60.6,46.8,101.2q.15,6.9,0,13.8c-.1,7.3.6,13.8,4.9,20.7,11,17.9-2,41.7-22.9,43.9-2.9.3-5.8.5-7.8.6-3.1,11-5.3,21.7-9.2,31.8-8,20.5-21.8,36.7-40.4,48.5-3.6,2.3-4.8,4.8-4.7,8.9.3,8.7.1,17.4.1,26,0,8.7,4.2,14.7,12.1,18.1l77.7,33.3c23,9.9,34.4,27.5,34.4,52.4.1,23.6-.1,47.3.1,70.9,0,5-1.3,9-5.5,11.8h-5.5c-4.6-2.5-5.8-6.4-5.8-11.5.2-24.2.2-48.3.1-72.5-.1-16.6-7.7-28.5-23-35.2-14.8-6.5-29.8-12.8-44.7-19.1-1.3-.5-2.6-.8-4.5-1.4v6.1c0,19.6.1,39.1-.1,58.7,0,4.2.8,6.3,5.2,8a34.369,34.369,0,0,1,21.5,32.6A35.139,35.139,0,0,1,632,822.1c-1.7.6-3.3,1.3-5,2H614.8c-2.1-.7-4.1-1.4-6.2-2.2a34.837,34.837,0,0,1-18.4-50.1c4.9-8.6,12.5-13.8,21.7-16.7V689.7c-2.1,1.3-3.7,2.2-5.1,3.2-16.1,10.7-32.2,21.5-48.3,32.2-13.3,8.8-22.5,8.8-35.7,0-16.1-10.7-32.2-21.5-48.3-32.2-1.6-1-3.2-1.9-5.2-3.1v46.7h25.6c16.3.1,27.1,10.5,27.4,26.9.2,11.4.2,22.9,0,34.3s-5.6,19.6-16,24.4c-1.5.7-2.9,1.4-4.4,2.1H493c-3.2-2.9-6.2-5.9-4.6-10.8,1.4-4.3,4.8-5.4,9-6,5.3-.7,8.1-4.2,8.2-10.1.2-11.2.2-22.5,0-33.7-.1-6.9-3.5-10.3-10.3-10.3-23-.1-46.1-.1-69.1,0-6.4,0-10.3,3.4-10.4,9.7-.3,11.6-.2,23.2,0,34.8.1,5.2,2.9,8.9,8.2,9.6,4.4.6,8,1.9,9.2,6.5,1.3,5-1.6,8-5.5,10.3h-7.8c-15.7-5.4-21.9-16.7-20.9-32.8.5-8.8,0-17.7.1-26.6.1-17.5,10.8-28.1,28.4-28.2H452V684.4c-2,.7-3.5,1.2-5,1.9q-21.3,9.15-42.7,18.2c-16.3,6.9-24.1,19.2-24.1,36.7,0,23.8-.1,47.6.1,71.4,0,5.1-1.2,9-5.8,11.5ZM537.5,603.2c45.6,2.5,87.8-34.2,91.8-79.8,1.4-15.9-.9-18.2,19.1-17.9a24.508,24.508,0,0,0,10.6-2.4c5.1-2.6,7.3-8.8,6-14.3-1.5-6.2-6.5-10.3-13.7-10.9-5-.4-10-.1-14.9-.4A25.486,25.486,0,0,1,613,458c-.8-3.7-.6-7.7-.8-11.6-.5-14.4-8.7-25.9-21.7-29.4-3.3-.9-7.6-1.1-10.5.3-34.1,16-69.6,27.3-107,32.6-1.6.2-3.9,2.7-4.1,4.3-2.4,14.3-11.8,23-26.3,23.5-4.8.2-9.6-.2-14.4.3a13.566,13.566,0,0,0-.5,27,111.321,111.321,0,0,0,11.6.5c9.3.1,11.4,2,11.9,11.2C453.8,565,489.3,600.6,537.5,603.2Zm39.2,10.4c-24.6,8.3-48.2,8.1-72.3.1v23.6c-.1,16.1-7.7,27.3-22.3,33.8-1.9.8-3.7,1.7-6.1,2.8,20.1,13.4,39.4,26.3,58.7,39.2,4.2,2.8,8.2,2.4,12.4-.4q28.05-18.75,56.1-37.4a11.39,11.39,0,0,1,2.2-.7c-1.4-1.2-1.7-1.5-2-1.7-.7-.3-1.3-.6-2-.9q-25.8-10.05-24.7-37.7C576.9,627.7,576.7,621.1,576.7,613.6ZM480,324.6q60.6-29.1,121.5.1c-1.5-28.3-33.3-52.9-65-51.1C508.4,275.2,478.7,301.8,480,324.6ZM602.3,789a18.247,18.247,0,0,0,18.1,18.5,18.3,18.3,0,1,0,.3-36.6A17.976,17.976,0,0,0,602.3,789Z" fill="#2eb7c4"/>
    <path id="Path_2329" data-name="Path 2329" d="M824.1,756.5c-2.8,3.6-5.9,6.8-11.1,4.8-5.1-1.9-5.6-6.2-5.6-10.9.1-20.5,0-41,0-61.5,0-7.3-1.8-9.8-8.7-12.2-6.1-2.1-12.2-4-19-6.3,0,13.3-.1,26,.2,38.7,0,1.3,2.3,2.9,3.9,3.8,10.7,6.2,15.8,18,12.6,29.7a25.995,25.995,0,0,1-50.5-1.3,25.562,25.562,0,0,1,13.3-28.4c3.2-1.6,4-3.4,4-6.8-.2-10.8-.1-21.6-.1-33.6-5.8,4.3-10.6,7.9-15.4,11.4-8.4,6.2-15.3,6.2-23.8-.1-5.8-4.3-11.7-8.4-17.2-13-3.5-2.9-6.8-3.9-11-1.9-1.1.6-2.8,1.3-3.7.9-2.9-1.5-6.5-2.8-8.1-5.3-2.1-3.4-.5-7.2,2.9-9.6a9.649,9.649,0,0,1,2.5-1.2c3.8-1.4,9.3-1.8,10.8-4.5,2-3.3.3-8.6.8-13,.7-6.4-1.5-10.6-6.5-15-13-11.3-19.7-26-20.1-43.4-.2-9.8-.2-19.6,0-29.3.5-23,17.4-41.2,40.4-42.7a372.028,372.028,0,0,1,40.9-.1c22,1.1,38.9,16.5,41.1,38.4,1.3,13.3.8,27-.3,40.3-1.4,16.2-9.7,29.2-22.3,39.4-2.6,2.1-3.6,4.1-3.5,7.4.3,6.1.1,12.2.1,18.5,9.6,3.2,18.9,6.8,28.5,9.4,12,3.3,20.9,9.6,24.8,21.9C824.1,706.3,824.1,731.4,824.1,756.5ZM736,522.2v.3c-7,0-14.1-.5-21,.1a26.273,26.273,0,0,0-23.9,26q-.3,14.4,0,28.8c.6,23.5,18.4,41.7,42.5,43.6,21.8,1.7,43-14.5,46.2-36.8,1.6-11,1.1-22.4,1.1-33.7,0-16.4-11.2-27.8-27.7-28.3C747.5,522,741.7,522.2,736,522.2ZM718.2,635.6c-.6,6.7-1.2,13.5-1.7,20.2a3.676,3.676,0,0,0,1.3,2.7c5.9,4.6,12,9.1,18,13.6,6.1-4.6,11.9-8.8,17.6-13.2.8-.6,1.9-1.7,1.9-2.5-.4-7-1.1-14.1-1.6-20.9-6,.7-11.8,1.9-17.6,1.9C730.1,637.5,724.1,636.3,718.2,635.6Zm62.6,100.5a9.475,9.475,0,0,0-9.3-9.6,9.208,9.208,0,0,0-9.4,8.8,9.36,9.36,0,1,0,18.7.8Z" fill="#2eb7c4"/>
    <path id="Path_2330" data-name="Path 2330" d="M327.1,679.6v30.3c3.5,0,6.8-.1,10,0a16.774,16.774,0,0,1,16.2,16.4c.2,6.5.3,12.9,0,19.4-.3,7.4-4.4,12.4-11.1,15.1-6.5,2.6-12,.5-13.8-4.9-1.6-5,1.1-8.8,8.2-11.1v-18h-36v17.7c0,.1.2.5.5.5,6.5,2.2,9.3,6.3,7.5,11.2-1.7,4.9-6.9,6.7-13,4.7a17.139,17.139,0,0,1-12-16.3c-.2-5.7-.1-11.4,0-17.2.2-10.5,7.3-17.5,17.8-17.8,2.7-.1,5.4,0,8.4,0V667.3c-10.8,3.7-21.5,6.9-31.6,11.3-2.5,1.1-4.4,6.3-4.5,9.7-.4,20.9-.1,41.7-.3,62.6,0,2.9-.9,6.6-2.9,8.4-1.9,1.7-6.2,2.5-8.4,1.4-2.4-1.2-4.7-4.8-5-7.5-.7-6.8-.2-13.6-.2-20.5,0-15-.1-29.9,0-44.9.1-13.3,6.6-22.4,19.2-26.7,10.1-3.4,20.3-6.8,30.4-10.1,2.7-.9,4.1-2.2,3.6-5.1a4.845,4.845,0,0,1,0-1.7c1.1-10.8-.7-19.4-10.1-27.4-11.9-10.2-16.3-25.1-16.5-40.9-.1-11.6-.1-23.3,0-34.9.2-20,14.1-35,34-35.6,18.3-.6,36.5-.6,54.8,0,20,.6,34.1,15.3,34.1,35.4,0,15.3.4,30.7-1.2,45.9-1.5,15.1-9.7,27.3-21.6,36.8-2.9,2.3-4.1,4.7-3.9,8.4a105.917,105.917,0,0,1,0,13.8c-.2,3.3,1.2,4.6,4,5.4a82.7,82.7,0,0,1,8.4,2.8c4.5,1.9,6.4,6.1,5,10.4-1.3,4.1-6.1,7.1-10.2,5.1-6.6-3.2-11-.5-15.7,3.5-4.3,3.7-9.1,6.9-13.7,10.3-9.3,6.9-15.9,6.9-25.1.1C331.1,682.4,329.5,681.3,327.1,679.6Zm62.5-104.2c-28.6-4.4-34.2-6.6-60.2-22.4-1.2-.7-3.8-.4-5.1.5-7.1,5-14.1,10.1-20.8,15.6a9.1,9.1,0,0,0-3.1,6.3,45.047,45.047,0,0,0,53.8,44.8C375.1,616,391.5,595.5,389.6,575.4Zm-89-25.2c5.2-3.9,9.9-7.3,14.5-10.8,8.5-6.3,14.7-5.7,23.8-.3a233.023,233.023,0,0,0,30.4,15.2c6.2,2.6,13.3,3.1,20.7,4.7,0-6.8.1-12.3,0-17.8-.2-11.3-7.3-18.7-18.7-18.9q-26.25-.3-52.5,0c-9.5.1-16.6,5.9-18.1,14.7C300,540.9,300.6,545.2,300.6,550.2Zm44.6,122c6.2-4.6,12-8.9,17.6-13.2a4.264,4.264,0,0,0,1.7-3.1c-.4-6.7-1.1-13.5-1.6-19.3H327.2c-.5,6-1.2,12.7-1.5,19.5-.1,1,1,2.3,1.9,3C333.3,663.4,339.1,667.6,345.2,672.2Z" fill="#2eb7c4"/>
    <path id="Path_2331" data-name="Path 2331" d="M538.4,557.6a47.947,47.947,0,0,1-27.8-9.3c-5.1-3.7-6.3-8.6-3.3-12.7,2.9-3.9,7.6-4.3,12.7-.9a36.5,36.5,0,0,0,41,.1c5.3-3.5,10.2-3.1,13,1.1,2.7,4,1.5,8.8-3.3,12.3C561.7,554.8,551.6,557.6,538.4,557.6Z" fill="#2eb7c4"/>
    <path id="Path_2332" data-name="Path 2332" d="M504.4,491.6c0,9-2.5,12.8-8.4,12.7-5.7-.1-8.2-3.9-8.2-12.5v-1.7c.1-7.3,3.2-11.2,8.6-11.1,5.2.1,8,3.9,8.1,10.9A9.7,9.7,0,0,0,504.4,491.6Z" fill="#2eb7c4"/>
    <path id="Path_2333" data-name="Path 2333" d="M593.5,492.2c-.3,2.2-.2,4.4-.9,6.5-1.3,4-4.3,5.8-8.5,5.5-3.9-.3-6.6-2.5-7.1-6.4a60.231,60.231,0,0,1-.2-10.4c.2-4.9,3.4-8.1,7.8-8.3,4.6-.2,8.1,3.1,8.6,8.2a41.692,41.692,0,0,1,0,5C593.3,492.1,593.4,492.2,593.5,492.2Z" fill="#2eb7c4"/>
  </g>
</svg>
