<svg xmlns="http://www.w3.org/2000/svg" width="522.801" height="427.1" viewBox="0 0 522.801 427.1">
  <g id="_4-01" data-name="4-01" transform="translate(-279.1 -326.9)">
    <path id="Path_2340" data-name="Path 2340" d="M801.9,449.6c-.7,2.4-1.4,4.9-2.1,7.3a45.073,45.073,0,0,1-46.3,31.8c-3-.2-4.8.4-6.1,3.1a53.95,53.95,0,0,1-4,6.5c-5.8,9.1-6.1,18.4-1.2,28,6.5,12.7,12.9,25.5,19.2,38.3,9.5,19.1,6.1,37.9-9.7,52.2-14.5,13.2-29.1,26.2-43.4,39.5a11.74,11.74,0,0,0-3.3,7.3c-.3,24.7-.2,49.3-.2,74,0,11.5-4.9,16.4-16.5,16.4H295.8c-11.5,0-16.5-4.9-16.5-16.4q-.15-123-.2-246a24.771,24.771,0,0,1,6.6-17.6c1.4-1.5,1.8-4.3,1.8-6.4.1-35.6,0-71.1.1-106.7,0-16.9,9.5-29.4,24.8-33.1a28.128,28.128,0,0,1,7.1-.8q20.4-.15,40.8,0c5.8,0,8.9,2.7,9,7.4.1,4.8-3.3,7.9-9.2,7.9-13.1.1-26.2-.1-39.3.1-10.6.1-17.6,6.5-17.6,17-.2,35.4-.1,70.8-.1,106.2,0,.7.2,1.3.3,2.2h18.4c6-11.5,3.8-23.1.9-34.7-.9-3.6-1.7-7.3-2.5-10.9-2.6-12.6,6.3-21.6,18.9-19.1,6,1.2,12,2.3,17.9,3.9a36.992,36.992,0,0,0,20.6-.1c11.3-3.4,22.9-3,34.4-2.8,3.4.1,5.2-.4,6.3-4.5a39.634,39.634,0,0,1,37.9-30.2c23.6-.4,47.3-.5,70.9,0,22.5.5,39.2,18.2,39.6,41.1.2,11.9,0,23.8,0,35.6,25.5,5.1,29,31,19.4,47.2-4.5,7.5-10.2,13.5-18,17.6a7.476,7.476,0,0,0-3.5,4.3,80.554,80.554,0,0,1-18.7,34.1c-1.9,2-2,5.6-3.3,9.7,3.4,0,5.3-.1,7.3,0,14.8.4,29.7,0,44.3,1.6,15.9,1.8,25.2,7,48.7,22.9,1.2-8.9,3.2-17.1,3.3-25.4.4-25.5.2-51,.1-76.6a51.178,51.178,0,0,0-1.6-13.6,62.912,62.912,0,0,1,.4-35.2c1.3-4.5,1.9-9.2,3-14.5-9.1,1.9-17.3,3.5-25.6,5.4-9.5,2.2-18.2-1-26.9-3.9-3.6-1.2-4.9-4.7-4-8.4a7.219,7.219,0,0,1,7.3-5.9,11.48,11.48,0,0,1,4.5.7c9.4,3.8,18.7,2.3,28-.1,4.3-1.1,8.6-2.1,12.9-2.9,12.8-2.4,21.3,6.4,18.7,19.1-1.1,5.5-1.8,11.1-3.5,16.4-3.2,9.9-1.9,19.4,1.8,29.5h19.9c14.6.1,23.5,8.9,23.5,23.6V637.9a26.23,26.23,0,0,0,3.6-2.6q16.5-14.85,32.9-29.8c10.7-9.7,12.7-21,6.1-34.1-6-12-11.8-24.1-18.2-35.9-8.7-16.2-8.2-31.9,2.1-47.2.9-1.4,1.8-2.9,2.8-4.6l-4.5-3.3c-11.6-8.7-18.5-20.1-18.7-34.6-.4-23.1-.3-46.3-.1-69.4,0-8.8,6-14.4,15-14.6,3.7-.1,7.5,0,11.2,0H748V342.4H401.5a24.99,24.99,0,0,1-6.1-.3c-3.9-.9-6.3-3.7-6.1-7.7.2-4.2,2.7-6.9,7.1-7.3,1.4-.1,2.7-.1,4.1-.1q195,0,390-.1c4.8,0,8.7.8,11.1,5.4v5.1c-2.7,4.2-6.6,5.2-11.3,5-8.7-.3-17.5-.1-26.1-.1v19.4c6.7,0,13,.3,19.2-.1,8.9-.5,15,3,18.2,11.4C801.9,398.6,801.9,424.1,801.9,449.6Zm-477,193.2c6.6-3.5,12.3-7.3,18.5-9.7,13-4.9,26.2-9.1,39.5-13.2a7.294,7.294,0,0,1,9.5,5.4c1,4.2-1.3,7.8-5.8,9.3a19.814,19.814,0,0,1-3.5.8,153.135,153.135,0,0,0-72.5,38.5c-6.6,6.2-12.3,13.5-13.6,22.3-2,13.8-2.2,27.9-3.2,42.1h395c0-11.6.5-22.8-.1-34-.6-11.1-5.6-20.7-13.5-28.4-26.9-26.1-59-41.9-96.5-43.3-44.5-1.6-89.1-.7-133.7-.9-7.8,0-15.7.1-23.5-.1-4.9-.1-8-3.1-8.2-7.3-.2-4.4,3.1-7.6,8.1-8,1.4-.1,2.7,0,4.1,0H566.4A169.4,169.4,0,0,1,653.9,640c1.4.8,2.9,1.6,4.5,2.5-1.5-16.6-13.3-36.4-28-49.2-25.4-22-55.7-20-86.3-18.9-.1,1.1-.2,1.9-.3,2.7-1,12.5-9.4,20.9-21.9,21.1q-30.15.45-60.2,0c-12-.2-20.3-8.1-21.9-20.1-.2-1.3-.3-2.6-.5-4.1-11.1,0-21.8-.1-32.5,0-26.3.2-47.8,10.6-64.6,30.6A79.583,79.583,0,0,0,324.9,642.8ZM494,556.7c2.1-.3,6.2-.5,10.2-1.4,24.6-5.4,42.2-24,46.4-49,.7-4.4,2.3-7.6,7.1-8.7,9.8-2.2,18.4-12.8,17.9-22.6a21.12,21.12,0,0,0-3.5-9.8c-1.8-2.8-4.3-4.3-7.8-.7-4.6,4.8-11.4,2.2-12.6-4.3a41.669,41.669,0,0,1-.4-6.1c-.8-16.6-12.5-28.8-28.8-29.1-20.7-.4-41.5-.3-62.2.1a28.366,28.366,0,0,0-27,22.4c-.8,3.6-.1,7.6-1.2,11.1-.9,2.9-2.9,6.4-5.4,7.7-1.9.9-5.8-.7-7.9-2.3-2.3-1.8-4-1.9-5.7-.1a19.11,19.11,0,0,0-4.4,6.6c-3.3,9.9,5.5,24.9,16.1,27,5.6,1.1,7.6,4.3,8.4,9.3C437.9,535.6,462.8,556.8,494,556.7ZM335.4,418c.9,4.4,1.5,8.1,2.5,11.7,3.8,13.2,4.8,26.3.6,39.6a27.327,27.327,0,0,0-1.1,8.1c-.1,28.1-.2,56.1.2,84.2.1,7,2.2,14,3.4,21.7,1.7-1.2,2.6-1.7,3.3-2.3,13-10.7,27.7-18.4,44.4-20.4,14.6-1.8,29.5-1.3,44.3-1.8,2.1-.1,4.3,0,6.3,0,1.1-5,.1-8.3-3.1-11.7-8.5-8.9-13.7-19.7-17.1-31.5a9.619,9.619,0,0,0-4-5.1,43.5,43.5,0,0,1-21-25.3c-4-12.3-.7-25.7,8.7-32.9,4-3.1,9.1-4.7,13.9-7.1V419.3c-12.2.2-24.3-1.1-36.1,2.6a42.977,42.977,0,0,1-24.1.7C349.8,420.9,342.9,419.7,335.4,418Zm-13.5,65.4H303.6c-7.1,0-9.1,1.9-9.1,9.1V663.4a41.252,41.252,0,0,0,.4,4.2c2.8-2.7,4.9-5.2,7.5-7,4.5-3.1,5.8-7.2,6.2-12.5.9-14.3,5.7-27.4,12.5-40a40.325,40.325,0,0,0,4.4-25.1c-1.3-9.6-3.3-19.1-3.5-28.7C321.6,530.9,321.9,507.6,321.9,483.4Zm359,176.2c6.6-3.5,8.8-8.7,8.8-16.5-.4-49.7-.2-99.4-.2-149.1,0-1.5.5-3.4-.2-4.5-1.4-2.2-3.4-5.5-5.3-5.7-7.2-.7-14.5-.3-22-.3v6.2c0,22.5.2,44.9-.1,67.4a108.563,108.563,0,0,1-2.9,22.7,41.234,41.234,0,0,0,4,29.1c6.8,12.8,11.4,26.2,12.2,40.7C675.4,654.2,676.6,657.6,680.9,659.6ZM786.4,414.2H726.3c0,10-.1,19.6,0,29.3.2,16.8,12.7,29.4,29.7,30,15.3.5,29.4-12.3,30.3-28.3C786.8,435.1,786.4,424.9,786.4,414.2Zm-235.1,6.3c0-4.6.2-7.8,0-10.9-.8-14.7-10.9-24.8-25.6-25-22.6-.3-45.2-.2-67.8,0-16.1.1-29.4,13.8-24.6,35.2,10.3-8.7,22.4-10.8,35.3-10.6,15.1.3,30.3.3,45.4,0C527.2,408.9,539.7,410.7,551.3,420.5Zm235-43H726.5v20.7h59.8ZM455.2,562.7c0,4.7-.1,8.6,0,12.4.2,5.7,2.1,7.7,7.8,7.8,5.8.1,11.6,0,17.3,0H520c3.9,0,7.6-.8,8.1-5.2.5-4.7.1-9.6.1-14.9C503.8,575.1,480,575.2,455.2,562.7Z" fill="#2eb7c4"/>
    <path id="Path_2341" data-name="Path 2341" d="M490.7,518.8c-4.4,0-8.8.1-13.2,0-5.2-.2-8.4-3.2-8.5-7.6s3.1-7.7,8.2-7.8c9-.2,18-.2,26.9,0,5,.1,7.8,3.1,7.9,7.5.1,4.6-3,7.6-8.1,7.8C499.6,518.9,495.2,518.8,490.7,518.8Z" fill="#2eb7c4"/>
    <path id="Path_2342" data-name="Path 2342" d="M532.5,470.2a8.767,8.767,0,0,1-8.6,9.3,9.17,9.17,0,0,1-9.7-8.9,9.519,9.519,0,0,1,9.3-9.5A9.317,9.317,0,0,1,532.5,470.2Z" fill="#2eb7c4"/>
    <path id="Path_2343" data-name="Path 2343" d="M469.6,470.2a9.159,9.159,0,0,1-18.3.7,9.192,9.192,0,0,1,9-9.7A9.355,9.355,0,0,1,469.6,470.2Z" fill="#2eb7c4"/>
  </g>
</svg>
