<svg xmlns="http://www.w3.org/2000/svg" width="401.504" height="530.139" viewBox="0 0 401.504 530.139">
  <g id="_6-01" data-name="6-01" transform="translate(-338.625 -274.4)">
    <path id="Path_2351" data-name="Path 2351" d="M631.5,274.7c7.1,3.4,14.4,6.3,21.1,10.2,5.3,3.1,6,8.3,4.3,14.1-7.3,25.3-14.5,50.6-21.8,76-.5,1.8-1,3.6-1.4,5.3,27.7,13.3,29.4,48.7,3.4,64.6,9.8,15.4,19.6,30.7,29.4,46.1,16.7,26.2,33.6,52.2,50,78.5,45.9,73.6,22.9,169-51.4,213.6a145.3,145.3,0,0,1-74.2,21.1c-34.3.4-68.6.5-103,0-72.5-.9-136.1-56.7-147.3-128.5-6.1-39.4,2-75.6,23.4-109.1q37.5-58.5,74.8-117.2c1-1.6,1.9-3.2,2.9-4.8-25.9-15.8-24.3-51.2,3.6-64.6q-7.5-26.1-15-52.4c-2.8-9.6-5.4-19.2-8.3-28.8-1.8-5.8-1-11,4.3-14.1,6.8-3.9,14-6.9,21.1-10.2h11.4c9.7,2.3,17.9,7.1,25.4,13.7a18.518,18.518,0,0,0,24.2-.1,57.685,57.685,0,0,1,24.9-13.7h12.4A57.49,57.49,0,0,1,570.6,288a18.4,18.4,0,0,0,24.2.1c7.5-6.6,15.7-11.4,25.4-13.7C623.9,274.7,627.7,274.7,631.5,274.7ZM539.4,398.8H460.2c-9.8,0-16.1,5.6-16.2,14.2-.1,8.8,6.3,14.7,16.3,14.7,10.3.1,20.7,0,31,0,7.1,0,11.8,4.1,11.8,10.2.1,6.1-4.6,10.4-11.6,10.5-7.8.1-15.5.2-23.3-.1-3.1-.1-4.9,1-6.6,3.6Q421.4,515.2,381,578.3c-17.2,27-24.4,56.2-20.8,88.2,7.1,64.2,62.7,115.7,127.2,116.9,34.7.6,69.3.4,104,0,20.1-.2,39.1-5.5,57-14.8,62.7-32.7,95.3-117.4,50.1-188.9q-40.65-64.2-81.8-128.1a8.139,8.139,0,0,0-5.6-3.1c-7.7-.3-15.5-.1-23.3-.2-7.4-.1-12.2-4.2-12.1-10.5s4.8-10.2,12.4-10.2c10.7,0,21.4.1,32.1-.1,8.2-.1,14.1-5.7,14.6-13.2.7-9.2-5.7-15.7-15.7-15.7C592.5,398.8,566,398.8,539.4,398.8Zm96.1-100.5c-8.3-4.7-16.3-3.6-23.9,3.1-18.1,15.8-39.6,15.9-57.4.2-9.7-8.5-19.7-8.2-29.7.1-4.3,3.6-9.1,7.1-14.3,8.9-15.6,5.6-29.8,2.6-42.2-8.5-8.2-7.4-16.2-8.6-24.7-3.8q11.4,39.75,22.9,79.7H612.8Q624.05,338.1,635.5,298.3Z" fill="#2eb7c4"/>
    <path id="Path_2352" data-name="Path 2352" d="M529.1,683.4c0-19.4.1-38.4-.1-57.3,0-1.2-1.5-2.9-2.7-3.6-3.8-2.3-7.9-4.1-11.8-6.3-13.4-7.5-20.4-18.8-19.7-34.3.7-15.8,7.7-28,21.6-35.9,3.8-2.2,8.2-3.3,12.7-5,0-3.1-.1-6.3,0-9.6.3-6,4.5-10.3,10.1-10.4,5.8-.1,10.3,4.2,10.5,10.4.2,3.3,0,6.5,0,8.8,8.2,3.9,16.1,7,23.3,11.2a10.152,10.152,0,0,1,2.2,16c-3.6,3.6-8.2,4-13.3,1.3-3.7-2-7.5-3.8-11.9-6.1v47.3c24.4,7.5,40.2,22,38.1,49.9-1.5,20.3-15.6,36.3-38.3,43.8,0,3.6.1,7.3,0,11.1-.2,6.3-4.5,10.8-10.2,10.8-5.7.1-10.1-4.4-10.4-10.6-.1-3.3,0-6.5,0-10.1-3.3-.5-6.5-.4-9.3-1.5a231.051,231.051,0,0,1-24-10.3,9.937,9.937,0,0,1-3.9-14.2c3.1-5.1,9.2-6.4,14.9-3C513.5,679.7,520.2,683.5,529.1,683.4Zm21-51.1V681c10.9-4.1,18-15.3,17.5-27.4C567.2,643,561,635.3,550.1,632.3Zm-21.3-68.8c-8,2.6-13.1,10-13.4,19-.3,8.7,3.3,13.4,13.4,17.4Z" fill="#2eb7c4"/>
    <path id="Path_2353" data-name="Path 2353" d="M539.8,427.8a10.359,10.359,0,0,1,9.9,10.4A10.544,10.544,0,0,1,539,448.4a10.308,10.308,0,1,1,.8-20.6Z" fill="#2eb7c4"/>
  </g>
</svg>
