<svg xmlns="http://www.w3.org/2000/svg" width="508.752" height="507.439" viewBox="0 0 508.752 507.439">
  <g id="_1-01" data-name="1-01" transform="translate(-285.699 -286.26)">
    <path id="Path_2327" data-name="Path 2327" d="M285.7,468.2c15.8-47.5,49.1-67.5,98.6-64.6,26.4,1.5,52.9.1,79.4-.8,86.6-2.9,156.6-43.2,220.7-97.3,35.7-30.2,58-25.2,77.7,17.5,20.8,45.2,26.4,93.9,29.9,142.8,5.5,76.3,2.7,152.2-18.3,226.2a184.62,184.62,0,0,1-25.1,53.3c-14.4,20.9-32.4,21.4-53.1,6.4-30.5-22.2-59.6-46.6-92.1-65.3-28.6-16.5-61.1-26.5-93.8-40.1-12.6,37-24.1,68.5-34.1,100.5-6.7,21.4-17.8,38-38.8,46.9H408.9c-27.4-13.7-37.1-36.2-35.4-66.1,1.5-26.8.3-53.7.3-80.1-64.6-11.5-68.7-27.1-88.1-64.2C285.7,544.9,285.7,506.6,285.7,468.2ZM449.6,615.1c79.1.5,148.7,25.8,213.4,73.7-23.5-111.3-23.2-218.6-.9-326.6-95.9,52.3-95.9,52.3-212.5,72.9C449.6,494.1,449.6,553.3,449.6,615.1ZM720,313.8c-5.3,6.3-10.4,9.6-11.7,14.1-10,36-19.5,72.2-28.1,108.6-.8,3.2,5,9.7,9.2,12.1,63.1,36.9,63.1,113.2.2,150.1-4.5,2.6-10,10-9.2,14,6.6,32.2,14,64.2,22.7,95.9,2.4,8.7,9.5,16,14.5,24h7.6c7.1-17.2,16.5-33.9,20.9-51.8,23.9-97,23.6-194.8,5.2-292.6C746.5,362.4,740.5,336.7,720,313.8ZM417.6,434.9c-21.4,0-41.8-2-61.7.5-22.5,2.9-38.1,20.5-39.2,43.4-1.5,30.3-1.5,60.7,0,91,1.1,23.2,18.6,41.9,41,44.2,19.4,2,39.2.4,59.9.4C417.6,553.9,417.6,494.8,417.6,434.9ZM404.5,646.3c0,34-.7,67.5.7,100.9.2,5.5,9.1,14.5,14.6,15,6.7.6,18.4-4.4,20.5-9.9,13.4-34.1,24.8-68.9,37.7-106Zm271.9-75.4c22.1-12,30.8-28.6,29.9-49.5-.8-19.1-9-34.7-29.9-43.9Z"/>
  </g>
</svg>
