<svg xmlns="http://www.w3.org/2000/svg"><symbol id="map-marker-alt" viewBox="0 0 384 512"><path d="M192 96c-52.935 0-96 43.065-96 96s43.065 96 96 96 96-43.065 96-96-43.065-96-96-96zm0 160c-35.29 0-64-28.71-64-64s28.71-64 64-64 64 28.71 64 64-28.71 64-64 64zm0-256C85.961 0 0 85.961 0 192c0 77.413 26.97 99.031 172.268 309.67 9.534 13.772 29.929 13.774 39.465 0C357.03 291.031 384 269.413 384 192 384 85.961 298.039 0 192 0zm0 473.931C52.705 272.488 32 256.494 32 192c0-42.738 16.643-82.917 46.863-113.137S149.262 32 192 32s82.917 16.643 113.137 46.863S352 149.262 352 192c0 64.49-20.692 80.47-160 281.931z"/></symbol><symbol id="phone-alt-light" viewBox="0 0 512 512"><path d="M493.09 351.3L384.7 304.8a31.36 31.36 0 0 0-36.5 8.9l-44.1 53.9A350 350 0 0 1 144.5 208l53.9-44.1a31.35 31.35 0 0 0 8.9-36.49l-46.5-108.5A31.33 31.33 0 0 0 125 .81L24.2 24.11A31.05 31.05 0 0 0 0 54.51C0 307.8 205.3 512 457.49 512A31.23 31.23 0 0 0 488 487.7L511.19 387a31.21 31.21 0 0 0-18.1-35.7zM456.89 480C222.4 479.7 32.3 289.7 32.1 55.21l99.6-23 46 107.39-72.8 59.5C153.3 302.3 209.4 358.6 313 407.2l59.5-72.8 107.39 46z"/></symbol><symbol id="phone-alt" viewBox="0 0 512 512"><path d="M497.39 361.8l-112-48a24 24 0 0 0-28 6.9l-49.6 60.6A370.66 370.66 0 0 1 130.6 204.11l60.6-49.6a23.94 23.94 0 0 0 6.9-28l-48-112A24.16 24.16 0 0 0 122.6.61l-104 24A24 24 0 0 0 0 48c0 256.5 207.9 464 464 464a24 24 0 0 0 23.4-18.6l24-104a24.29 24.29 0 0 0-14.01-27.6z"/></symbol><symbol id="phone" viewBox="0 0 512 512"><path d="M493.4 24.6l-104-24c-11.3-2.6-22.9 3.3-27.5 13.9l-48 112c-4.2 9.8-1.4 21.3 6.9 28l60.6 49.6c-36 76.7-98.9 140.5-177.2 177.2l-49.6-60.6c-6.8-8.3-18.2-11.1-28-6.9l-112 48C3.9 366.5-2 378.1.6 389.4l24 104C27.1 504.2 36.7 512 48 512c256.1 0 464-207.5 464-464 0-11.2-7.7-20.9-18.6-23.4z"/></symbol><symbol id="pinterest-square" viewBox="0 0 448 512"><path d="M448 80v352c0 26.5-21.5 48-48 48H154.4c9.8-16.4 22.4-40 27.4-59.3 3-11.5 15.3-58.4 15.3-58.4 8 15.3 31.4 28.2 56.3 28.2 74.1 0 127.4-68.1 127.4-152.7 0-81.1-66.2-141.8-151.4-141.8-106 0-162.2 71.1-162.2 148.6 0 36 19.2 80.8 49.8 95.1 4.7 2.2 7.1 1.2 8.2-3.3.8-3.4 5-20.1 6.8-27.8.6-2.5.3-4.6-1.7-7-10.1-12.3-18.3-34.9-18.3-56 0-54.2 41-106.6 110.9-106.6 60.3 0 102.6 41.1 102.6 99.9 0 66.4-33.5 112.4-77.2 112.4-24.1 0-42.1-19.9-36.4-44.4 6.9-29.2 20.3-60.7 20.3-81.8 0-53-75.5-45.7-75.5 25 0 21.7 7.3 36.5 7.3 36.5-31.4 132.8-36.1 134.5-29.6 192.6l2.2.8H48c-26.5 0-48-21.5-48-48V80c0-26.5 21.5-48 48-48h352c26.5 0 48 21.5 48 48z"/></symbol><symbol id="tiktok" viewBox="0 0 448 512"><!--! Font Awesome Free 6.0.0-alpha3 by @fontawesome - https://fontawesome.com License - https://fontawesome.com/license/free (Icons: CC BY 4.0, Fonts: SIL OFL 1.1, Code: MIT License)--><path d="M448 209.91a210.06 210.06 0 0 1-122.77-39.25v178.72A162.55 162.55 0 1 1 185 188.31v89.89a74.62 74.62 0 1 0 52.23 71.18V0h88a121.18 121.18 0 0 0 1.86 22.17A122.18 122.18 0 0 0 381 102.39a121.43 121.43 0 0 0 67 20.14z"/></symbol><symbol id="pinterest-p" viewBox="0 0 384 512"><path d="M204 6.5C101.4 6.5 0 74.9 0 185.6 0 256 39.6 296 63.6 296c9.9 0 15.6-27.6 15.6-35.4 0-9.3-23.7-29.1-23.7-67.8 0-80.4 61.2-137.4 140.4-137.4 68.1 0 118.5 38.7 118.5 109.8 0 53.1-21.3 152.7-90.3 152.7-24.9 0-46.2-18-46.2-43.8 0-37.8 26.4-74.4 26.4-113.4 0-66.2-93.9-54.2-93.9 25.8 0 16.8 2.1 35.4 9.6 50.7-13.8 59.4-42 147.9-42 209.1 0 18.9 2.7 37.5 4.5 56.4 3.4 3.8 1.7 3.4 6.9 1.5 50.4-69 48.6-82.5 71.4-172.8 12.3 23.4 44.1 36 69.3 36 106.2 0 153.9-103.5 153.9-196.8C384 71.3 298.2 6.5 204 6.5z"/></symbol><symbol id="pinterest" viewBox="0 0 496 512"><path d="M496 256c0 137-111 248-248 248-25.6 0-50.2-3.9-73.4-11.1 10.1-16.5 25.2-43.5 30.8-65 3-11.6 15.4-59 15.4-59 8.1 15.4 31.7 28.5 56.8 28.5 74.8 0 128.7-68.8 128.7-154.3 0-81.9-66.9-143.2-152.9-143.2-107 0-163.9 71.8-163.9 150.1 0 36.4 19.4 81.7 50.3 96.1 4.7 2.2 7.2 1.2 8.3-3.3.8-3.4 5-20.3 6.9-28.1.6-2.5.3-4.7-1.7-7.1-10.1-12.5-18.3-35.3-18.3-56.6 0-54.7 41.4-107.6 112-107.6 60.9 0 103.6 41.5 103.6 100.9 0 67.1-33.9 113.6-78 113.6-24.3 0-42.6-20.1-36.7-44.8 7-29.5 20.5-61.3 20.5-82.6 0-19-10.2-34.9-31.4-34.9-24.9 0-44.9 25.7-44.9 60.2 0 22 7.4 36.8 7.4 36.8s-24.5 103.8-29 123.2c-5 21.4-3 51.6-.9 71.2C65.4 450.9 0 361.1 0 256 0 119 111 8 248 8s248 111 248 248z"/></symbol><symbol id="phone-light" viewBox="0 0 512 512"><path d="M487.8 24.1L387 .8c-14.7-3.4-29.8 4.2-35.8 18.1l-46.5 108.5c-5.5 12.7-1.8 27.7 8.9 36.5l53.9 44.1c-34 69.2-90.3 125.6-159.6 159.6l-44.1-53.9c-8.8-10.7-23.8-14.4-36.5-8.9L18.9 351.3C5 357.3-2.6 372.3.8 387L24 487.7C27.3 502 39.9 512 54.5 512 306.7 512 512 307.8 512 54.5c0-14.6-10-27.2-24.2-30.4zM55.1 480l-23-99.6 107.4-46 59.5 72.8c103.6-48.6 159.7-104.9 208.1-208.1l-72.8-59.5 46-107.4 99.6 23C479.7 289.7 289.6 479.7 55.1 480z"/></symbol><symbol id="twitter" viewBox="0 0 512 512"><path d="M459.37 151.716c.325 4.548.325 9.097.325 13.645 0 138.72-105.583 298.558-298.558 298.558-59.452 0-114.68-17.219-161.137-47.106 8.447.974 16.568 1.299 25.34 1.299 49.055 0 94.213-16.568 130.274-44.832-46.132-.975-84.792-31.188-98.112-72.772 6.498.974 12.995 1.624 19.818 1.624 9.421 0 18.843-1.3 27.614-3.573-48.081-9.747-84.143-51.98-84.143-102.985v-1.299c13.969 7.797 30.214 12.67 47.431 13.319-28.264-18.843-46.781-51.005-46.781-87.391 0-19.492 5.197-37.36 14.294-52.954 51.655 63.675 129.3 105.258 216.365 109.807-1.624-7.797-2.599-15.918-2.599-24.04 0-57.828 46.782-104.934 104.934-104.934 30.213 0 57.502 12.67 76.67 33.137 23.715-4.548 46.456-13.32 66.599-25.34-7.798 24.366-24.366 44.833-46.132 57.827 21.117-2.273 41.584-8.122 60.426-16.243-14.292 20.791-32.161 39.308-52.628 54.253z"/></symbol><symbol id="search" viewBox="0 0 512 512"><path d="M508.5 481.6l-129-129c-2.3-2.3-5.3-3.5-8.5-3.5h-10.3C395 312 416 262.5 416 208 416 93.1 322.9 0 208 0S0 93.1 0 208s93.1 208 208 208c54.5 0 104-21 141.1-55.2V371c0 3.2 1.3 6.2 3.5 8.5l129 129c4.7 4.7 12.3 4.7 17 0l9.9-9.9c4.7-4.7 4.7-12.3 0-17zM208 384c-97.3 0-176-78.7-176-176S110.7 32 208 32s176 78.7 176 176-78.7 176-176 176z"/></symbol><symbol id="whatsapp" viewBox="0 0 512 512"><path d="M439.277 72.723C392.38 25.824 330.04 0 263.711 0h-.023c-32.805.004-64.774 6.355-95.012 18.883-30.242 12.527-57.336 30.64-80.535 53.84-46.895 46.894-72.72 109.246-72.72 175.566 0 39.55 9.544 78.856 27.626 113.875L1.313 481.391c-2.942 8.41-.86 17.55 5.445 23.851C11.168 509.656 16.973 512 22.94 512c2.559 0 5.145-.43 7.668-1.313l119.227-41.73c35.02 18.082 74.324 27.625 113.875 27.625 66.32 0 128.668-25.828 175.566-72.723C486.172 376.965 512 314.613 512 248.293c0-66.324-25.824-128.676-72.723-175.57zm-21.234 329.902c-41.223 41.227-96.035 63.926-154.332 63.926-35.664 0-71.094-8.82-102.461-25.516-5.687-3.023-12.41-3.543-18.445-1.43l-108.32 37.91 37.913-108.32c2.114-6.043 1.59-12.765-1.433-18.449-16.692-31.36-25.516-66.789-25.516-102.457 0-58.297 22.703-113.11 63.926-154.332 41.219-41.219 96.023-63.922 154.316-63.93h.02c58.3 0 113.11 22.703 154.332 63.93 41.227 41.223 63.93 96.031 63.93 154.332 0 58.3-22.703 113.113-63.93 154.336zm0 0"/><path d="M355.984 270.469c-11.421-11.422-30.007-11.422-41.43 0l-12.491 12.492c-31.02-16.902-56.122-42.004-73.028-73.024l12.492-12.492c11.426-11.422 11.426-30.007 0-41.43l-33.664-33.663c-11.422-11.422-30.008-11.422-41.43 0l-26.93 26.93c-15.425 15.425-16.194 41.945-2.167 74.675 12.18 28.418 34.469 59.652 62.762 87.945 28.293 28.293 59.527 50.582 87.945 62.762 15.55 6.664 29.695 9.988 41.918 9.988 13.504 0 24.66-4.058 32.758-12.156l26.93-26.934v.004c5.535-5.535 8.581-12.89 8.581-20.714 0-7.829-3.046-15.184-8.582-20.715zm-14.5 80.793c-4.402 4.402-17.941 5.945-41.609-4.196-24.992-10.71-52.887-30.742-78.543-56.398s-45.684-53.547-56.394-78.54c-10.145-23.667-8.602-37.21-4.2-41.612l26.414-26.414 32.625 32.628-15.636 15.641c-7.07 7.07-8.778 17.793-4.243 26.684 20.559 40.312 52.735 72.488 93.047 93.047 8.895 4.535 19.618 2.832 26.688-4.243l15.637-15.636 32.628 32.629zm0 0"/></symbol><symbol id="angle-double-down" viewBox="0 0 256 512"><path d="M119.5 262.9L3.5 145.1c-4.7-4.7-4.7-12.3 0-17l7.1-7.1c4.7-4.7 12.3-4.7 17 0L128 223.3l100.4-102.2c4.7-4.7 12.3-4.7 17 0l7.1 7.1c4.7 4.7 4.7 12.3 0 17L136.5 263c-4.7 4.6-12.3 4.6-17-.1zm17 128l116-117.8c4.7-4.7 4.7-12.3 0-17l-7.1-7.1c-4.7-4.7-12.3-4.7-17 0L128 351.3 27.6 249.1c-4.7-4.7-12.3-4.7-17 0l-7.1 7.1c-4.7 4.7-4.7 12.3 0 17l116 117.8c4.7 4.6 12.3 4.6 17-.1z"/></symbol><symbol id="youtube-square" viewBox="0 0 448 512"><path d="M186.8 202.1l95.2 54.1-95.2 54.1V202.1zM448 80v352c0 26.5-21.5 48-48 48H48c-26.5 0-48-21.5-48-48V80c0-26.5 21.5-48 48-48h352c26.5 0 48 21.5 48 48zm-42 176.3s0-59.6-7.6-88.2c-4.2-15.8-16.5-28.2-32.2-32.4C337.9 128 224 128 224 128s-113.9 0-142.2 7.7c-15.7 4.2-28 16.6-32.2 32.4-7.6 28.5-7.6 88.2-7.6 88.2s0 59.6 7.6 88.2c4.2 15.8 16.5 27.7 32.2 31.9C110.1 384 224 384 224 384s113.9 0 142.2-7.7c15.7-4.2 28-16.1 32.2-31.9 7.6-28.5 7.6-88.1 7.6-88.1z"/></symbol><symbol id="youtube" viewBox="0 0 576 512"><path d="M549.655 124.083c-6.281-23.65-24.787-42.276-48.284-48.597C458.781 64 288 64 288 64S117.22 64 74.629 75.486c-23.497 6.322-42.003 24.947-48.284 48.597-11.412 42.867-11.412 132.305-11.412 132.305s0 89.438 11.412 132.305c6.281 23.65 24.787 41.5 48.284 47.821C117.22 448 288 448 288 448s170.78 0 213.371-11.486c23.497-6.321 42.003-24.171 48.284-47.821 11.412-42.867 11.412-132.305 11.412-132.305s0-89.438-11.412-132.305zm-317.51 213.508V175.185l142.739 81.205-142.739 81.201z"/></symbol><symbol id="times" viewBox="0 0 320 512"><path d="M193.94 256L296.5 153.44l21.15-21.15c3.12-3.12 3.12-8.19 0-11.31l-22.63-22.63c-3.12-3.12-8.19-3.12-11.31 0L160 222.06 36.29 98.34c-3.12-3.12-8.19-3.12-11.31 0L2.34 120.97c-3.12 3.12-3.12 8.19 0 11.31L126.06 256 2.34 379.71c-3.12 3.12-3.12 8.19 0 11.31l22.63 22.63c3.12 3.12 8.19 3.12 11.31 0L160 289.94 262.56 392.5l21.15 21.15c3.12 3.12 8.19 3.12 11.31 0l22.63-22.63c3.12-3.12 3.12-8.19 0-11.31L193.94 256z"/></symbol><symbol id="whatsapp-square" viewBox="0 0 448 512"><path d="M224 122.8c-72.7 0-131.8 59.1-131.9 131.8 0 24.9 7 49.2 20.2 70.1l3.1 5-13.3 48.6 49.9-13.1 4.8 2.9c20.2 12 43.4 18.4 67.1 18.4h.1c72.6 0 133.3-59.1 133.3-131.8 0-35.2-15.2-68.3-40.1-93.2-25-25-58-38.7-93.2-38.7zm77.5 188.4c-3.3 9.3-19.1 17.7-26.7 18.8-12.6 1.9-22.4.9-47.5-9.9-39.7-17.2-65.7-57.2-67.7-59.8-2-2.6-16.2-21.5-16.2-41s10.2-29.1 13.9-33.1c3.6-4 7.9-5 10.6-5 2.6 0 5.3 0 7.6.1 2.4.1 5.7-.9 8.9 6.8 3.3 7.9 11.2 27.4 12.2 29.4s1.7 4.3.3 6.9c-7.6 15.2-15.7 14.6-11.6 21.6 15.3 26.3 30.6 35.4 53.9 47.1 4 2 6.3 1.7 8.6-1 2.3-2.6 9.9-11.6 12.5-15.5 2.6-4 5.3-3.3 8.9-2 3.6 1.3 23.1 10.9 27.1 12.9s6.6 3 7.6 4.6c.9 1.9.9 9.9-2.4 19.1zM400 32H48C21.5 32 0 53.5 0 80v352c0 26.5 21.5 48 48 48h352c26.5 0 48-21.5 48-48V80c0-26.5-21.5-48-48-48zM223.9 413.2c-26.6 0-52.7-6.7-75.8-19.3L64 416l22.5-82.2c-13.9-24-21.2-51.3-21.2-79.3C65.4 167.1 136.5 96 223.9 96c42.4 0 82.2 16.5 112.2 46.5 29.9 30 47.9 69.8 47.9 112.2 0 87.4-72.7 158.5-160.1 158.5z"/></symbol><symbol id="angle-double-left" viewBox="0 0 320 512"><path d="M153.1 247.5l117.8-116c4.7-4.7 12.3-4.7 17 0l7.1 7.1c4.7 4.7 4.7 12.3 0 17L192.7 256l102.2 100.4c4.7 4.7 4.7 12.3 0 17l-7.1 7.1c-4.7 4.7-12.3 4.7-17 0L153 264.5c-4.6-4.7-4.6-12.3.1-17zm-128 17l117.8 116c4.7 4.7 12.3 4.7 17 0l7.1-7.1c4.7-4.7 4.7-12.3 0-17L64.7 256l102.2-100.4c4.7-4.7 4.7-12.3 0-17l-7.1-7.1c-4.7-4.7-12.3-4.7-17 0L25 247.5c-4.6 4.7-4.6 12.3.1 17z"/></symbol><symbol id="angle-down" viewBox="0 0 256 512"><path d="M119.5 326.9L3.5 209.1c-4.7-4.7-4.7-12.3 0-17l7.1-7.1c4.7-4.7 12.3-4.7 17 0L128 287.3l100.4-102.2c4.7-4.7 12.3-4.7 17 0l7.1 7.1c4.7 4.7 4.7 12.3 0 17L136.5 327c-4.7 4.6-12.3 4.6-17-.1z"/></symbol><symbol id="angle-left" viewBox="0 0 192 512"><path d="M25.1 247.5l117.8-116c4.7-4.7 12.3-4.7 17 0l7.1 7.1c4.7 4.7 4.7 12.3 0 17L64.7 256l102.2 100.4c4.7 4.7 4.7 12.3 0 17l-7.1 7.1c-4.7 4.7-12.3 4.7-17 0L25 264.5c-4.6-4.7-4.6-12.3.1-17z"/></symbol><symbol id="angle-double-right" viewBox="0 0 320 512"><path d="M166.9 264.5l-117.8 116c-4.7 4.7-12.3 4.7-17 0l-7.1-7.1c-4.7-4.7-4.7-12.3 0-17L127.3 256 25.1 155.6c-4.7-4.7-4.7-12.3 0-17l7.1-7.1c4.7-4.7 12.3-4.7 17 0l117.8 116c4.6 4.7 4.6 12.3-.1 17zm128-17l-117.8-116c-4.7-4.7-12.3-4.7-17 0l-7.1 7.1c-4.7 4.7-4.7 12.3 0 17L255.3 256 153.1 356.4c-4.7 4.7-4.7 12.3 0 17l7.1 7.1c4.7 4.7 12.3 4.7 17 0l117.8-116c4.6-4.7 4.6-12.3-.1-17z"/></symbol><symbol id="angle-double-up" viewBox="0 0 256 512"><path d="M136.5 249.1l116 117.8c4.7 4.7 4.7 12.3 0 17l-7.1 7.1c-4.7 4.7-12.3 4.7-17 0L128 288.7 27.6 390.9c-4.7 4.7-12.3 4.7-17 0l-7.1-7.1c-4.7-4.7-4.7-12.3 0-17l116-117.8c4.7-4.6 12.3-4.6 17 .1zm-17-128L3.5 238.9c-4.7 4.7-4.7 12.3 0 17l7.1 7.1c4.7 4.7 12.3 4.7 17 0L128 160.7l100.4 102.2c4.7 4.7 12.3 4.7 17 0l7.1-7.1c4.7-4.7 4.7-12.3 0-17L136.5 121c-4.7-4.6-12.3-4.6-17 .1z"/></symbol><symbol id="angle-right" viewBox="0 0 192 512"><path d="M166.9 264.5l-117.8 116c-4.7 4.7-12.3 4.7-17 0l-7.1-7.1c-4.7-4.7-4.7-12.3 0-17L127.3 256 25.1 155.6c-4.7-4.7-4.7-12.3 0-17l7.1-7.1c4.7-4.7 12.3-4.7 17 0l117.8 116c4.6 4.7 4.6 12.3-.1 17z"/></symbol><symbol id="bars-light" viewBox="0 0 448 512"><path d="M442 114H6a6 6 0 0 1-6-6V84a6 6 0 0 1 6-6h436a6 6 0 0 1 6 6v24a6 6 0 0 1-6 6zm0 160H6a6 6 0 0 1-6-6v-24a6 6 0 0 1 6-6h436a6 6 0 0 1 6 6v24a6 6 0 0 1-6 6zm0 160H6a6 6 0 0 1-6-6v-24a6 6 0 0 1 6-6h436a6 6 0 0 1 6 6v24a6 6 0 0 1-6 6z"/></symbol><symbol id="chevron-down-light" viewBox="0 0 448 512"><path d="M443.5 162.6l-7.1-7.1c-4.7-4.7-12.3-4.7-17 0L224 351 28.5 155.5c-4.7-4.7-12.3-4.7-17 0l-7.1 7.1c-4.7 4.7-4.7 12.3 0 17l211 211.1c4.7 4.7 12.3 4.7 17 0l211-211.1c4.8-4.7 4.8-12.3.1-17z"/></symbol><symbol id="angle-up" viewBox="0 0 256 512"><path d="M136.5 185.1l116 117.8c4.7 4.7 4.7 12.3 0 17l-7.1 7.1c-4.7 4.7-12.3 4.7-17 0L128 224.7 27.6 326.9c-4.7 4.7-12.3 4.7-17 0l-7.1-7.1c-4.7-4.7-4.7-12.3 0-17l116-117.8c4.7-4.6 12.3-4.6 17 .1z"/></symbol><symbol id="chevron-left-light" viewBox="0 0 256 512"><path d="M238.475 475.535l7.071-7.07c4.686-4.686 4.686-12.284 0-16.971L50.053 256 245.546 60.506c4.686-4.686 4.686-12.284 0-16.971l-7.071-7.07c-4.686-4.686-12.284-4.686-16.97 0L10.454 247.515c-4.686 4.686-4.686 12.284 0 16.971l211.051 211.05c4.686 4.686 12.284 4.686 16.97-.001z"/></symbol><symbol id="envelope-light" viewBox="0 0 512 512"><path d="M464 64H48C21.5 64 0 85.5 0 112v288c0 26.5 21.5 48 48 48h416c26.5 0 48-21.5 48-48V112c0-26.5-21.5-48-48-48zM48 96h416c8.8 0 16 7.2 16 16v41.4c-21.9 18.5-53.2 44-150.6 121.3-16.9 13.4-50.2 45.7-73.4 45.3-23.2.4-56.6-31.9-73.4-45.3C85.2 197.4 53.9 171.9 32 153.4V112c0-8.8 7.2-16 16-16zm416 320H48c-8.8 0-16-7.2-16-16V195c22.8 18.7 58.8 47.6 130.7 104.7 20.5 16.4 56.7 52.5 93.3 52.3 36.4.3 72.3-35.5 93.3-52.3 71.9-57.1 107.9-86 130.7-104.7v205c0 8.8-7.2 16-16 16z"/></symbol><symbol id="chevron-up-light" viewBox="0 0 448 512"><path d="M4.465 366.475l7.07 7.071c4.686 4.686 12.284 4.686 16.971 0L224 178.053l195.494 195.493c4.686 4.686 12.284 4.686 16.971 0l7.07-7.071c4.686-4.686 4.686-12.284 0-16.97l-211.05-211.051c-4.686-4.686-12.284-4.686-16.971 0L4.465 349.505c-4.687 4.686-4.687 12.284 0 16.97z"/></symbol><symbol id="envelope" viewBox="0 0 512 512"><path d="M502.3 190.8c3.9-3.1 9.7-.2 9.7 4.7V400c0 26.5-21.5 48-48 48H48c-26.5 0-48-21.5-48-48V195.6c0-5 5.7-7.8 9.7-4.7 22.4 17.4 52.1 39.5 154.1 113.6 21.1 15.4 56.7 47.8 92.2 47.6 35.7.3 72-32.8 92.3-47.6 102-74.1 131.6-96.3 154-113.7zM256 320c23.2.4 56.6-29.2 73.4-41.4 132.7-96.3 142.8-104.7 173.4-128.7 5.8-4.5 9.2-11.5 9.2-18.9v-19c0-26.5-21.5-48-48-48H48C21.5 64 0 85.5 0 112v19c0 7.4 3.4 14.3 9.2 18.9 30.6 23.9 40.7 32.4 173.4 128.7 16.8 12.2 50.2 41.8 73.4 41.4z"/></symbol><symbol id="chevron-right-light" viewBox="0 0 256 512"><path d="M17.525 36.465l-7.071 7.07c-4.686 4.686-4.686 12.284 0 16.971L205.947 256 10.454 451.494c-4.686 4.686-4.686 12.284 0 16.971l7.071 7.07c4.686 4.686 12.284 4.686 16.97 0l211.051-211.05c4.686-4.686 4.686-12.284 0-16.971L34.495 36.465c-4.686-4.687-12.284-4.687-16.97 0z"/></symbol><symbol id="external-link-light" viewBox="0 0 512 512"><path d="M440 256h-16a8 8 0 0 0-8 8v200a16 16 0 0 1-16 16H48a16 16 0 0 1-16-16V112a16 16 0 0 1 16-16h200a8 8 0 0 0 8-8V72a8 8 0 0 0-8-8H48a48 48 0 0 0-48 48v352a48 48 0 0 0 48 48h352a48 48 0 0 0 48-48V264a8 8 0 0 0-8-8zM500 0L364 .34a12 12 0 0 0-12 12v10a12 12 0 0 0 12 12l90-.34.7.71-323.19 323.15a12 12 0 0 0 0 17l5.66 5.66a12 12 0 0 0 17 0L477.29 57.34l.71.7-.34 90a12 12 0 0 0 12 12h10a12 12 0 0 0 12-12L512 12a12 12 0 0 0-12-12z"/></symbol><symbol id="facebook" viewBox="0 0 512 512"><path d="M504 256C504 119 393 8 256 8S8 119 8 256c0 123.78 90.69 226.38 209.25 245V327.69h-63V256h63v-54.64c0-62.15 37-96.48 93.67-96.48 27.14 0 55.52 4.84 55.52 4.84v61h-31.28c-30.8 0-40.41 19.12-40.41 38.73V256h68.78l-11 71.69h-57.78V501C413.31 482.38 504 379.78 504 256z"/></symbol><symbol id="facebook-f" viewBox="0 0 320 512"><path d="M279.14 288l14.22-92.66h-88.91v-60.13c0-25.35 12.42-50.06 52.24-50.06h40.42V6.26S260.43 0 225.36 0c-73.22 0-121.08 44.38-121.08 124.72v70.62H22.89V288h81.39v224h100.17V288z"/></symbol><symbol id="external-link" viewBox="0 0 512 512"><path d="M432 320h-32a16 16 0 0 0-16 16v112H64V128h144a16 16 0 0 0 16-16V80a16 16 0 0 0-16-16H48a48 48 0 0 0-48 48v352a48 48 0 0 0 48 48h352a48 48 0 0 0 48-48V336a16 16 0 0 0-16-16zM474.67 0H316a28 28 0 0 0-28 28v18.71a28 28 0 0 0 28.79 27.19L384 72 135.06 319.09l-.06.06a24 24 0 0 0 0 33.94l23.94 23.85.06.06a24 24 0 0 0 33.91-.09L440 128l-1.88 67.22v.78a28 28 0 0 0 28 28H484a28 28 0 0 0 28-28V37.33A37.33 37.33 0 0 0 474.67 0z"/></symbol><symbol id="fax" viewBox="0 0 512 512"><path d="M480 160V77.25a32 32 0 0 0-9.38-22.63L425.37 9.37A32 32 0 0 0 402.75 0H160a32 32 0 0 0-32 32v448a32 32 0 0 0 32 32h320a32 32 0 0 0 32-32V192a32 32 0 0 0-32-32zM288 432a16 16 0 0 1-16 16h-32a16 16 0 0 1-16-16v-32a16 16 0 0 1 16-16h32a16 16 0 0 1 16 16zm0-128a16 16 0 0 1-16 16h-32a16 16 0 0 1-16-16v-32a16 16 0 0 1 16-16h32a16 16 0 0 1 16 16zm128 128a16 16 0 0 1-16 16h-32a16 16 0 0 1-16-16v-32a16 16 0 0 1 16-16h32a16 16 0 0 1 16 16zm0-128a16 16 0 0 1-16 16h-32a16 16 0 0 1-16-16v-32a16 16 0 0 1 16-16h32a16 16 0 0 1 16 16zm0-112H192V64h160v48a16 16 0 0 0 16 16h48zM64 128H32a32 32 0 0 0-32 32v320a32 32 0 0 0 32 32h32a32 32 0 0 0 32-32V160a32 32 0 0 0-32-32z"/></symbol><symbol id="globe-europe-light" viewBox="0 0 496 512"><path d="M184 119.2c0-7-5.7-12.7-12.7-12.7h-.1c-3.4 0-6.6 1.3-8.9 3.7l-28.5 28.5c-2.4 2.4-3.7 5.6-3.7 8.9v.1c0 7 5.7 12.7 12.7 12.7h18c3.4 0 6.6-1.3 8.9-3.7l10.5-10.5c2.4-2.4 3.7-5.6 3.7-8.9v-18.1zM248 8C111 8 0 119 0 256s111 248 248 248 248-111 248-248S385 8 248 8zm48 458.4V432c0-26.5-21.5-48-48-48h-20.2c-3.9 0-13.1-3.1-16.2-5.4l-22.2-16.7c-3.4-2.5-5.4-6.6-5.4-10.8v-23.9c0-4.7 2.5-9.1 6.5-11.6l42.9-25.7c2.1-1.3 4.5-1.9 6.9-1.9h31.2c3.2 0 6.3 1.2 8.8 3.2l52.2 44.8h30.2l17.3 17.3c9.5 9.5 22.1 14.7 35.5 14.7h16.8c-29.9 49.1-78.7 85.3-136.3 98.4zM448.5 336h-32.9c-4.8 0-9.5-1.9-12.9-5.3l-17.3-17.3c-6-6-14.1-9.4-22.6-9.4h-18.3l-43.2-37.1c-8.2-7.1-18.7-10.9-29.6-10.9h-31.2c-8.2 0-16.3 2.2-23.4 6.5l-42.9 25.7c-13.7 8.2-22.1 23-22.1 39v23.9c0 14.3 6.7 27.8 18.2 36.4l22.2 16.7c8.6 6.5 24.6 11.8 35.4 11.8h20.2c8.8 0 16 7.2 16 16v39.2c-5.3.4-10.6.8-16 .8-119.1 0-216-96.9-216-216 0-118.9 96.5-215.6 215.3-216L232 51.1c-10.2 7.7-16 19.2-16 31.4v23.2c0 6.4 3.1 17 5.9 22.3-.8 2.1-21.1 15-24.6 18.5-8.6 8.6-13.3 20-13.3 32.1V195c0 25 20.4 45.4 45.4 45.4h25.3c11 0 21.2-3.9 29.2-10.6 3.9 1.4 8.2 2.1 12.6 2.1h13.4c25.6 0 32.2-20.2 36.1-21.5 5.1 9.1 13.5 16.2 23.5 19.5-4.3 14.2-.9 30.3 10.1 41.6l18.2 19.1c8.7 8.9 20.6 13.9 32.7 13.9h27.7c-2.4 10.8-5.7 21.3-9.7 31.5zm-17.8-63.6c-3.6 0-7.1-1.5-9.6-4L402.6 249a9.93 9.93 0 0 1 .1-14c12.6-12.6 10.5-8.6 10.5-17.8 0-2.5-1-4.9-2.8-6.7l-7.9-7.9c-1.8-1.8-4.2-2.8-6.7-2.8h-13.4c-8.5 0-12.6-10.3-6.7-16.2l7.9-7.3c1.8-1.8 4.2-2.8 6.7-2.8h8.3c5.2 0 9.5-4.2 9.5-9.5v-10.2c0-5.2-4.2-9.5-9.5-9.5h-28.2c-7.4 0-13.4 6-13.4 13.4v5.6c0 5.8-3.7 10.9-9.2 12.7l-26.5 8.8c-4.3 1.4-4.6 5-4.6 8.2 0 3.7-3 6.7-6.7 6.7h-13.4c-3.7 0-6.7-3-6.7-6.7 0-8.4-12.5-8.6-15.3-3-9 12.4-11.5 18.2-19.9 18.2h-25.3c-7.4 0-13.4-6-13.4-13.4v-16.4c0-3.6 1.4-7 3.9-9.5 19.5-14 29.6-17.6 29.6-31.5 0-2.9 1.8-5.5 4.6-6.4l33.6-11.2c1.4-.5 2.7-1.2 3.7-2.3L313.9 95c5-5 3.5-14.9-6.7-14.9h-17.4L276.4 99v6.7c0 3.7-3 6.7-6.7 6.7h-15c-3.7 0-6.7-3-6.7-6.7V82.5c0-2.1 1-4.1 2.7-5.4l44-31.9C391.4 66.7 464 153 464 256c0 5.5-.4 11-.8 16.4h-32.5z"/></symbol><symbol id="fax-light" viewBox="0 0 512 512"><path d="M392 304h16a8 8 0 0 0 8-8v-16a8 8 0 0 0-8-8h-16a8 8 0 0 0-8 8v16a8 8 0 0 0 8 8zm0 128h16a8 8 0 0 0 8-8v-16a8 8 0 0 0-8-8h-16a8 8 0 0 0-8 8v16a8 8 0 0 0 8 8zM80 128H48a48 48 0 0 0-48 48v288a48 48 0 0 0 48 48h32a48 48 0 0 0 48-48V176a48 48 0 0 0-48-48zm16 336a16 16 0 0 1-16 16H48a16 16 0 0 1-16-16V176a16 16 0 0 1 16-16h32a16 16 0 0 1 16 16zm296-96h16a8 8 0 0 0 8-8v-16a8 8 0 0 0-8-8h-16a8 8 0 0 0-8 8v16a8 8 0 0 0 8 8zm-128 64h16a8 8 0 0 0 8-8v-16a8 8 0 0 0-8-8h-16a8 8 0 0 0-8 8v16a8 8 0 0 0 8 8zm0-64h16a8 8 0 0 0 8-8v-16a8 8 0 0 0-8-8h-16a8 8 0 0 0-8 8v16a8 8 0 0 0 8 8zm216-205.06v-53.69a32 32 0 0 0-9.38-22.63L393.38 9.38A32 32 0 0 0 370.75 0H208a48 48 0 0 0-48 48v416a48 48 0 0 0 48 48h256a48 48 0 0 0 48-48V208a47.87 47.87 0 0 0-32-45.06zM384 45.25L434.75 96H384zM192 48a16 16 0 0 1 16-16h144v64a32 32 0 0 0 32 32h64v64H192zm288 416a16 16 0 0 1-16 16H208a16 16 0 0 1-16-16V224h288zm-152-32h16a8 8 0 0 0 8-8v-16a8 8 0 0 0-8-8h-16a8 8 0 0 0-8 8v16a8 8 0 0 0 8 8zm0-64h16a8 8 0 0 0 8-8v-16a8 8 0 0 0-8-8h-16a8 8 0 0 0-8 8v16a8 8 0 0 0 8 8zm0-64h16a8 8 0 0 0 8-8v-16a8 8 0 0 0-8-8h-16a8 8 0 0 0-8 8v16a8 8 0 0 0 8 8zm-64 0h16a8 8 0 0 0 8-8v-16a8 8 0 0 0-8-8h-16a8 8 0 0 0-8 8v16a8 8 0 0 0 8 8z"/></symbol><symbol id="linkedin" viewBox="0 0 448 512"><path d="M416 32H31.9C14.3 32 0 46.5 0 64.3v383.4C0 465.5 14.3 480 31.9 480H416c17.6 0 32-14.5 32-32.3V64.3c0-17.8-14.4-32.3-32-32.3zM135.4 416H69V202.2h66.5V416zm-33.2-243c-21.3 0-38.5-17.3-38.5-38.5S80.9 96 102.2 96c21.2 0 38.5 17.3 38.5 38.5 0 21.3-17.2 38.5-38.5 38.5zm282.1 243h-66.4V312c0-24.8-.5-56.7-34.5-56.7-34.6 0-39.9 27-39.9 54.9V416h-66.4V202.2h63.7v29.2h.9c8.9-16.8 30.6-34.5 62.9-34.5 67.2 0 79.7 44.3 79.7 101.9V416z"/></symbol><symbol id="instagram" viewBox="0 0 448 512"><path d="M224.1 141c-63.6 0-114.9 51.3-114.9 114.9s51.3 114.9 114.9 114.9S339 319.5 339 255.9 287.7 141 224.1 141zm0 189.6c-41.1 0-74.7-33.5-74.7-74.7s33.5-74.7 74.7-74.7 74.7 33.5 74.7 74.7-33.6 74.7-74.7 74.7zm146.4-194.3c0 14.9-12 26.8-26.8 26.8-14.9 0-26.8-12-26.8-26.8s12-26.8 26.8-26.8 26.8 12 26.8 26.8zm76.1 27.2c-1.7-35.9-9.9-67.7-36.2-93.9-26.2-26.2-58-34.4-93.9-36.2-37-2.1-147.9-2.1-184.9 0-35.8 1.7-67.6 9.9-93.9 36.1s-34.4 58-36.2 93.9c-2.1 37-2.1 147.9 0 184.9 1.7 35.9 9.9 67.7 36.2 93.9s58 34.4 93.9 36.2c37 2.1 147.9 2.1 184.9 0 35.9-1.7 67.7-9.9 93.9-36.2 26.2-26.2 34.4-58 36.2-93.9 2.1-37 2.1-147.8 0-184.8zM398.8 388c-7.8 19.6-22.9 34.7-42.6 42.6-29.5 11.7-99.5 9-132.1 9s-102.7 2.6-132.1-9c-19.6-7.8-34.7-22.9-42.6-42.6-11.7-29.5-9-99.5-9-132.1s-2.6-102.7 9-132.1c7.8-19.6 22.9-34.7 42.6-42.6 29.5-11.7 99.5-9 132.1-9s102.7-2.6 132.1 9c19.6 7.8 34.7 22.9 42.6 42.6 11.7 29.5 9 99.5 9 132.1s2.7 102.7-9 132.1z"/></symbol><symbol id="instagram-square" viewBox="0 0 448 512"><path d="M224 202.66A53.34 53.34 0 1 0 277.36 256 53.38 53.38 0 0 0 224 202.66zm124.71-41a54 54 0 0 0-30.41-30.41c-21-8.29-71-6.43-94.3-6.43s-73.25-1.93-94.31 6.43a54 54 0 0 0-30.41 30.41c-8.28 21-6.43 71.05-6.43 94.33s-1.85 73.27 6.47 94.34a54 54 0 0 0 30.41 30.41c21 8.29 71 6.43 94.31 6.43s73.24 1.93 94.3-6.43a54 54 0 0 0 30.41-30.41c8.35-21 6.43-71.05 6.43-94.33s1.92-73.26-6.43-94.33zM224 338a82 82 0 1 1 82-82 81.9 81.9 0 0 1-82 82zm85.38-148.3a19.14 19.14 0 1 1 19.13-19.14 19.1 19.1 0 0 1-19.09 19.18zM400 32H48A48 48 0 0 0 0 80v352a48 48 0 0 0 48 48h352a48 48 0 0 0 48-48V80a48 48 0 0 0-48-48zm-17.12 290c-1.29 25.63-7.14 48.34-25.85 67s-41.4 24.63-67 25.85c-26.41 1.49-105.59 1.49-132 0-25.63-1.29-48.26-7.15-67-25.85s-24.63-41.42-25.85-67c-1.49-26.42-1.49-105.61 0-132 1.29-25.63 7.07-48.34 25.85-67s41.47-24.56 67-25.78c26.41-1.49 105.59-1.49 132 0 25.63 1.29 48.33 7.15 67 25.85s24.63 41.42 25.85 67.05c1.49 26.32 1.49 105.44 0 131.88z"/></symbol><symbol id="linkedin-in" viewBox="0 0 448 512"><path d="M100.28 448H7.4V148.9h92.88zM53.79 108.1C24.09 108.1 0 83.5 0 53.8a53.79 53.79 0 0 1 107.58 0c0 29.7-24.1 54.3-53.79 54.3zM447.9 448h-92.68V302.4c0-34.7-.7-79.2-48.29-79.2-48.29 0-55.69 37.7-55.69 76.7V448h-92.78V148.9h89.08v40.8h1.3c12.4-23.5 42.69-48.3 87.88-48.3 94 0 111.28 61.9 111.28 142.3V448z"/></symbol><symbol id="youtube-brand" viewBox="0 0 121.32 47.18"><path d="M109.316 47.182H61.828a11.918 11.918 0 0 1-8.484-3.515 11.92 11.92 0 0 1-3.516-8.486V11.999a11.92 11.92 0 0 1 3.516-8.486 11.918 11.918 0 0 1 8.484-3.514h47.486a11.926 11.926 0 0 1 8.486 3.515A11.919 11.919 0 0 1 121.316 12v23.181a11.919 11.919 0 0 1-3.516 8.486 11.926 11.926 0 0 1-8.484 3.515zm-.859-32.682a5.3 5.3 0 0 0-4.822 2.357 9.642 9.642 0 0 0-1.187 4.2c-.092.9-.137 2.443-.137 4.576 0 2.647.045 4.474.137 5.43a11.459 11.459 0 0 0 1.395 5.006 4.97 4.97 0 0 0 4.512 2.162 5.434 5.434 0 0 0 4.467-1.783c.955-1.184 1.439-3.094 1.439-5.676 0-.1 0-.243-.018-.436a7.434 7.434 0 0 1-.018-.436h-3.771c0 2.929-.684 4.415-2.025 4.415-.9 0-1.508-.741-1.8-2.2a20.809 20.809 0 0 1-.211-3.589c0-.67.018-1.181.045-1.439h7.885v-1.714c0-4.15-.4-6.951-1.2-8.325a5.057 5.057 0 0 0-4.691-2.549zM91.711 35.279c.645 1.959 1.828 2.953 3.518 2.953 2.031 0 3.393-1.429 4.043-4.249a37.408 37.408 0 0 0 .527-7.511 41.044 41.044 0 0 0-.48-7.614c-.627-2.9-1.975-4.363-4-4.363a3.518 3.518 0 0 0-3.41 2.511v-9.38h-4.014v30h3.818v-2.35zM72.982 15.096v17.7c0 3.607 1.3 5.436 3.865 5.436 1.592 0 2.818-.955 3.646-2.838v2.236h3.934V15.099H80.39v14.392a12.678 12.678 0 0 1-.219 2.81c-.27.97-.811 1.462-1.611 1.462-.742 0-1.244-.453-1.5-1.347a11.455 11.455 0 0 1-.205-2.592V15.099h-3.877zM56.796 7.625v4.954h4.953V37.63h4.295V12.579h4.953V7.625h-14.2zm37.09 26.307c-1.043 0-1.7-.845-1.961-2.511a34.355 34.355 0 0 1-.137-4.111c0-2.931.025-4.51.074-4.971.252-2.3.932-3.463 2.023-3.463.98 0 1.584 1.042 1.795 3.1.041.37.064 1.87.064 4.461 0 2.45-.027 3.979-.076 4.421-.209 2.041-.809 3.074-1.781 3.074zm16.428-10.424h-3.887c0-.215-.008-.436-.018-.642l-.018-.31a6.758 6.758 0 0 1 .447-3.171 1.57 1.57 0 0 1 1.514-.894 1.662 1.662 0 0 1 1.691 1.3 9.646 9.646 0 0 1 .27 2.764v.951zM6.087 37.799V25.007L0 7.625h4.792L8.3 18.977l3.468-11.352h4.656l-5.978 17.381v12.793H6.087zm11.829-11.32q0-5.854.889-8.3a5.116 5.116 0 0 1 5.241-3.642 5.142 5.142 0 0 1 5.254 3.64q.89 2.428.889 8.3t-.889 8.3a5.14 5.14 0 0 1-5.256 3.623 5.115 5.115 0 0 1-5.241-3.642q-.89-2.427-.889-8.282zm4.139.293q0 4.209.045 4.579.313 3.033 1.916 3.033t1.961-2.6q.075-.568.075-4.247v-2.211q0-3.445-.089-4.149-.376-2.578-1.917-2.578-1.5 0-1.873 2.271a34.279 34.279 0 0 0-.119 3.815v2.094zM44.662 15.14v22.659H40.7v-2.25q-1.249 2.856-3.66 2.85-3.891 0-3.891-5.463v-17.8h3.9v14.811a11.307 11.307 0 0 0 .209 2.6q.375 1.353 1.5 1.354 1.215 0 1.621-1.469a12.4 12.4 0 0 0 .225-2.82V15.14h4.06z"/></symbol><symbol id="translate" viewBox="0 0 20.9 20.91"><defs><clipPath id="a"><path d="M0 0h20.9v20.91H0z"/></clipPath></defs><g clip-path="url(#a)"><path d="M0 15.6v-14a.4.4 0 0 0 .029-.075A1.874 1.874 0 0 1 1.965 0c.952.025 1.905.006 2.858.006 1.123 0 2.246-.017 3.368.007a1.67 1.67 0 0 1 1.628 1.116A6.938 6.938 0 0 1 10.08 2.5c.063.4.1.805.158 1.219h8.692A1.843 1.843 0 0 1 20.9 5.7v13.326a1.752 1.752 0 0 1-.777 1.534 4.525 4.525 0 0 1-.814.35H8.819c-.064-.02-.128-.042-.192-.061a1.8 1.8 0 0 1-1.353-1.5c-.075-.421-.112-.848-.167-1.273l-.113-.885h-5.11a1.752 1.752 0 0 1-1.534-.778A4.522 4.522 0 0 1 0 15.6M10.411 4.944a1.9 1.9 0 0 0 0 .208q.207 1.678.417 3.356l.474 3.76c.162 1.287.308 2.576.489 3.86a1.212 1.212 0 0 1-.321 1.111c-.52.546-.995 1.136-1.488 1.707-.2.234-.4.469-.632.735h9.55c.554 0 .776-.223.776-.781V5.737c0-.572-.218-.793-.785-.793h-8.48zm.1 11.023c-.012-.132-.019-.233-.032-.334l-.432-3.436c-.143-1.145-.281-2.291-.424-3.437s-.29-2.29-.433-3.436-.278-2.292-.425-3.437A.655.655 0 0 0 8 1.229H2c-.555 0-.778.223-.778.779v13.181c0 .555.223.777.78.777h8.508M8.241 17.2l.2 1.643L9.863 17.2z"/><path d="M14.741 9.232V8.62a.611.611 0 1 1 1.222.007v.605h1.769a.889.889 0 0 1 .3.045.6.6 0 0 1 .377.673.592.592 0 0 1-.566.5c-.155 0-.207.062-.249.193a7.6 7.6 0 0 1-1.394 2.5l1.1.9c.084.069.173.132.256.2a.617.617 0 0 1 .115.872.608.608 0 0 1-.873.1c-.459-.361-.906-.738-1.358-1.109l-.087-.067-1.2.98c-.074.06-.148.12-.224.177a.617.617 0 1 1-.764-.966l1.139-.927c.063-.051.122-.107.142-.124-.353-.6-.706-1.179-1.03-1.772a6.037 6.037 0 0 1-.32-.813c-.033-.09-.067-.141-.18-.145a.6.6 0 0 1-.626-.628.61.61 0 0 1 .667-.59h1.783m1.6 1.234h-1.984a6.243 6.243 0 0 0 1 1.76 6.238 6.238 0 0 0 .988-1.76M4.707 9.242c-.13.644-.255 1.269-.384 1.894a.622.622 0 0 1-.734.536.634.634 0 0 1-.467-.8q.585-2.923 1.166-5.846c.106-.532.291-.692.828-.692h.98a.616.616 0 0 1 .677.545c.262 1.282.517 2.566.775 3.85.143.712.283 1.424.426 2.135a.634.634 0 0 1-.457.807.623.623 0 0 1-.744-.546c-.129-.623-.254-1.248-.383-1.882zm.733-3.674l-.478 2.425h1.183L5.66 5.568z"/></g></symbol><symbol id="caret-down" viewBox="0 0 320 512"><!--! Font Awesome Pro 6.0.0-alpha3 by @fontawesome - https://fontawesome.com License - https://fontawesome.com/license (Commercial License)--><path d="M310.6 246.6l-127.1 128c-7.1 6.3-15.3 9.4-23.5 9.4s-16.38-3.125-22.63-9.375l-127.1-128C.224 237.5-2.516 223.7 2.438 211.8S19.07 192 32 192h255.1c12.94 0 24.62 7.781 29.58 19.75s3.12 25.75-6.08 34.85z"/></symbol><symbol id="phone-alt-2" viewBox="0 0 12.86 12.87"><defs><clipPath id="clip-path"><path id="Rectangle_7" d="M0 0h12.86v12.87H0z"/></clipPath></defs><g id="Group_30" clip-path="url(#clip-path)"><path id="Path_19" d="M0 24.334c.019-.149.029-.3.058-.446a1.86 1.86 0 0 1 .5-.956c.345-.353.679-.722 1.051-1.045a1.178 1.178 0 0 1 1.727.02c.58.544 1.137 1.115 1.679 1.7a1.145 1.145 0 0 1 .009 1.54c-.29.33-.609.634-.92.945a.127.127 0 0 0-.034.178 7.074 7.074 0 0 0 1.228 1.676 8.47 8.47 0 0 0 1.629 1.374c.172.11.356.2.548.308.207-.21.408-.417.613-.619.137-.135.275-.271.423-.394a1.149 1.149 0 0 1 1.51.022c.6.572 1.187 1.159 1.756 1.762a1.164 1.164 0 0 1 .02 1.583A15.685 15.685 0 0 1 10.6 33.2a1.986 1.986 0 0 1-1.572.452 7.487 7.487 0 0 1-3-1.054 12.387 12.387 0 0 1-3.073-2.408 12.142 12.142 0 0 1-2.573-4 5.108 5.108 0 0 1-.367-1.6.5.5 0 0 0-.015-.08v-.176m.74.105c.014.146.025.292.041.437a1.865 1.865 0 0 0 .038.2 8.084 8.084 0 0 0 1.045 2.474 12.315 12.315 0 0 0 5.108 4.716 5.936 5.936 0 0 0 2.107.659 1.392 1.392 0 0 0 1.192-.4c.282-.292.57-.58.852-.871a.549.549 0 0 0 0-.893c-.208-.213-.42-.421-.63-.632-.293-.293-.584-.589-.881-.878a.482.482 0 0 0-.717-.017c-.041.035-.08.074-.118.113-.288.287-.574.576-.863.861a.539.539 0 0 1-.665.129 7.957 7.957 0 0 1-.725-.4 9.443 9.443 0 0 1-2.06-1.81 6.734 6.734 0 0 1-1.077-1.583c-.213-.462-.183-.606.184-.961.289-.279.577-.56.853-.853a.467.467 0 0 0 .009-.688 1.212 1.212 0 0 0-.075-.084l-1.493-1.493a.754.754 0 0 0-.181-.133.521.521 0 0 0-.645.154c-.281.276-.553.561-.837.833a1.422 1.422 0 0 0-.462 1.12" transform="translate(0 -20.788)"/><path id="Path_20" d="M199.174 0c.29.075.584.14.871.228a6.723 6.723 0 0 1 2.5 1.4 6.93 6.93 0 0 1 1.8 2.451 6.814 6.814 0 0 1 .474 1.595.361.361 0 0 1-.7.169c-.077-.269-.127-.546-.207-.814a6.219 6.219 0 0 0-4.791-4.28c-.282-.053-.408-.184-.4-.4A.392.392 0 0 1 199 0z" transform="translate(-191.958)"/><path id="Path_21" d="M195.674 69.007a.362.362 0 0 1 .445-.355 4.163 4.163 0 0 1 3.178 2.587 5.673 5.673 0 0 1 .239.817.364.364 0 0 1-.268.456.374.374 0 0 1-.442-.277 6.635 6.635 0 0 0-.256-.824 3.435 3.435 0 0 0-2.557-2.033.364.364 0 0 1-.338-.37" transform="translate(-189.015 -66.308)"/></g></symbol><symbol id="whatsapp" viewBox="0 0 448 512"><!--! Font Awesome Free 6.0.0-alpha3 by @fontawesome - https://fontawesome.com License - https://fontawesome.com/license/free (Icons: CC BY 4.0, Fonts: SIL OFL 1.1, Code: MIT License)--><path d="M380.9 97.1C339 55.1 283.2 32 223.9 32c-122.4 0-222 99.6-222 222 0 39.1 10.2 77.3 29.6 111L0 480l117.7-30.9c32.4 17.7 68.9 27 106.1 27h.1c122.3 0 224.1-99.6 224.1-222 0-59.3-25.2-115-67.1-157zm-157 341.6c-33.2 0-65.7-8.9-94-25.7l-6.7-4-69.8 18.3L72 359.2l-4.4-7c-18.5-29.4-28.2-63.3-28.2-98.2 0-101.7 82.8-184.5 184.6-184.5 49.3 0 95.6 19.2 130.4 54.1 34.8 34.9 56.2 81.2 56.1 130.5 0 101.8-84.9 184.6-186.6 184.6zm101.2-138.2c-5.5-2.8-32.8-16.2-37.9-18-5.1-1.9-8.8-2.8-12.5 2.8-3.7 5.6-14.3 18-17.6 21.8-3.2 3.7-6.5 4.2-12 1.4-32.6-16.3-54-29.1-75.5-66-5.7-9.8 5.7-9.1 16.3-30.3 1.8-3.7.9-6.9-.5-9.7-1.4-2.8-12.5-30.1-17.1-41.2-4.5-10.8-9.1-9.3-12.5-9.5-3.2-.2-6.9-.2-10.6-.2-3.7 0-9.7 1.4-14.8 6.9-5.1 5.6-19.4 19-19.4 46.3 0 27.3 19.9 53.7 22.6 57.4 2.8 3.7 39.1 59.7 94.8 83.8 35.2 15.2 49 16.5 66.6 13.9 10.7-1.6 32.8-13.4 37.4-26.4 4.6-13 4.6-24.1 3.2-26.4-1.3-2.5-5-3.9-10.5-6.6z"/></symbol><symbol id="arrow-right-solid" viewBox="0 0 32 32"><path d="M18.719 6.781L17.28 8.22 24.063 15H4v2h20.063l-6.782 6.781 1.438 1.438 8.5-8.5.687-.719-.687-.719z"/></symbol><symbol id="user" viewBox="0 0 12.2 14.64"><defs><clipPath id="clip-path"><path id="Rectangle_635" d="M0 0h12.2v14.64H0z"/></clipPath></defs><g id="Group_2042" clip-path="url(#clip-path)"><path id="Path_1646" d="M73.3 0c.19.038.382.071.571.115A3.549 3.549 0 0 1 76.45 2.98a3.423 3.423 0 0 1-.5 2.431 3.452 3.452 0 0 1-2.76 1.628 3.526 3.526 0 0 1-.954-6.967c.134-.027.27-.049.405-.073zm2.334 3.52a2.668 2.668 0 1 0-2.664 2.673 2.657 2.657 0 0 0 2.664-2.673" transform="translate(-66.955 .001)"/><path id="Path_1647" d="M6.105 205.193H2.618a2.728 2.728 0 0 1-1.634-.464 2.164 2.164 0 0 1-.951-1.623 7.608 7.608 0 0 1 .494-3.545 2.985 2.985 0 0 1 1.346-1.61 2.679 2.679 0 0 1 1.332-.318 1.022 1.022 0 0 1 .437.152c.217.118.418.265.629.395a3.253 3.253 0 0 0 3.673-.006c.166-.1.336-.2.491-.319a1.237 1.237 0 0 1 .989-.2 2.7 2.7 0 0 1 2.043 1.464 6.081 6.081 0 0 1 .677 2.385 11.742 11.742 0 0 1 .057 1.3 2.337 2.337 0 0 1-2.181 2.362 4.88 4.88 0 0 1-.5.026H6.105m-.016-.858c1.21 0 2.42.01 3.63 0a1.529 1.529 0 0 0 1.628-1.673c0-.376-.019-.753-.061-1.126a5.277 5.277 0 0 0-.546-1.953 1.845 1.845 0 0 0-1.582-1.082.345.345 0 0 0-.186.042c-.216.13-.425.272-.639.405a4.218 4.218 0 0 1-1.93.645 4.168 4.168 0 0 1-2.6-.691c-.189-.12-.376-.243-.566-.361a.249.249 0 0 0-.13-.046 1.753 1.753 0 0 0-1.21.5 2.789 2.789 0 0 0-.609.974 7.347 7.347 0 0 0-.422 2.877 1.419 1.419 0 0 0 .734 1.262 1.983 1.983 0 0 0 1.018.23h3.471" transform="translate(0 -190.556)"/></g></symbol><symbol id="comment" viewBox="0 0 13.77 13.77"><defs><clipPath id="clip-path"><path id="Rectangle_637" d="M0 0h13.77v13.77H0z"/></clipPath></defs><g id="Group_2046" clip-path="url(#clip-path)"><path id="Path_1651" d="M6.455 0h.86l.264.033a6.755 6.755 0 0 1 3.64 1.511A6.773 6.773 0 0 1 13.664 5.7c.045.25.071.5.106.756v.86a.787.787 0 0 0-.022.1 6.788 6.788 0 0 1-1.662 3.968 6.857 6.857 0 0 1-8.6 1.476.3.3 0 0 0-.274-.024c-.858.3-1.719.587-2.577.884a.448.448 0 0 1-.51-.083.451.451 0 0 1-.082-.51c.3-.858.587-1.719.884-2.576a.3.3 0 0 0-.025-.274 6.739 6.739 0 0 1-.843-4.31 6.711 6.711 0 0 1 1.952-3.934A6.73 6.73 0 0 1 5.713.1c.246-.043.495-.07.743-.1M1.124 12.646c.689-.235 1.352-.452 2.008-.69a.683.683 0 0 1 .643.074 5.836 5.836 0 0 0 4.3.756A6.021 6.021 0 0 0 6.021.924a5.881 5.881 0 0 0-3.907 2.3A5.872 5.872 0 0 0 .9 7.517a5.74 5.74 0 0 0 .865 2.517.58.58 0 0 1 .062.57c-.076.186-.134.38-.2.57l-.5 1.472"/></g></symbol><symbol id="upload" viewBox="0 0 512 512"><path d="M452 432c0 11-9 20-20 20s-20-9-20-20 9-20 20-20 20 9 20 20zm-84-20c-11 0-20 9-20 20s9 20 20 20 20-9 20-20-9-20-20-20zm144-48v104c0 24.3-19.7 44-44 44H44c-24.3 0-44-19.7-44-44V364c0-24.3 19.7-44 44-44h124v-99.3h-52.7c-35.6 0-53.4-43.1-28.3-68.3L227.7 11.7c15.6-15.6 40.9-15.6 56.6 0L425 152.4c25.2 25.2 7.3 68.3-28.3 68.3H344V320h124c24.3 0 44 19.7 44 44zM200 188.7V376c0 4.4 3.6 8 8 8h96c4.4 0 8-3.6 8-8V188.7h84.7c7.1 0 10.7-8.6 5.7-13.7L261.7 34.3c-3.1-3.1-8.2-3.1-11.3 0L109.7 175c-5 5-1.5 13.7 5.7 13.7H200zM480 364c0-6.6-5.4-12-12-12H344v24c0 22.1-17.9 40-40 40h-96c-22.1 0-40-17.9-40-40v-24H44c-6.6 0-12 5.4-12 12v104c0 6.6 5.4 12 12 12h424c6.6 0 12-5.4 12-12V364z"/></symbol><symbol id="paper" viewBox="0 0 20.57 20.5"><defs><clipPath id="clip-path"><path id="Rectangle_722"  d="M0 0h20.57v20.5H0z"/></clipPath></defs><g id="Group_2410" clip-path="url(#clip-path)"><path id="Path_1887"  d="M20.568 2.274a7.466 7.466 0 0 1-.172.764q-2.662 7.951-5.336 15.9a2.128 2.128 0 0 1-1.91 1.553 2.123 2.123 0 0 1-2.195-1.191q-1.628-2.96-3.242-5.929a1.4 1.4 0 0 0-.6-.588q-2.934-1.577-5.864-3.166A2.166 2.166 0 0 1 .011 7.4 2.161 2.161 0 0 1 1.6 5.44Q7.684 3.4 13.769 1.379c1.253-.418 2.5-.841 3.758-1.254A2.252 2.252 0 0 1 20.5 1.863c.025.132.027.269.039.4l.027.008m-2.7-.669l-.035-.06c-.078.023-.156.043-.232.068L6.943 5.171 2.075 6.8a.814.814 0 0 0-.636.888.847.847 0 0 0 .521.682q2.045 1.1 4.085 2.2l1.792.963 10.03-9.924m1.088 1.06l-.064-.035-9.926 10.027 1.087 2.032 2.069 3.874a.8.8 0 0 0 .811.492c.453-.034.645-.341.776-.733q2.519-7.526 5.047-15.045c.069-.2.133-.41.2-.615"/></g></symbol><symbol id="play-video" viewBox="0 0 23.2 23.2"><defs><clipPath id="a"><path  d="M0 0h23.2v23.2H0z"/></clipPath></defs><g  clip-path="url(#a)"><path d="M23.2 10.9v1.357l-.041.217c-.124.726-.192 1.467-.382 2.176A11.568 11.568 0 0 1 12.5 23.122a.805.805 0 0 0-.217.083h-1.36a.99.99 0 0 0-.217-.083c-.232-.031-.466-.04-.7-.073a11.34 11.34 0 0 1-6.044-2.76 11.33 11.33 0 0 1-3.784-6.716C.1 13.137.059 12.7 0 12.258V10.9c.014-.08.031-.159.041-.239.055-.418.088-.84.166-1.253a11.3 11.3 0 0 1 3.145-5.964A11.323 11.323 0 0 1 9.6.178c.437-.075.88-.12 1.32-.178h1.36c.306.037.613.067.918.111a11.342 11.342 0 0 1 6.042 2.761 11.33 11.33 0 0 1 3.784 6.716c.076.435.12.876.178 1.314M11.612.679a10.9 10.9 0 1 0 10.913 10.91A10.912 10.912 0 0 0 11.612.679"/><path d="M8.627 7.195v8.8l8.028-4.37v-.077l-.48-.268a4.327 4.327 0 0 1-.392-.225.3.3 0 0 1-.1-.437.3.3 0 0 1 .407-.14 7.072 7.072 0 0 1 .963.544.728.728 0 0 1 .006 1.126 1.6 1.6 0 0 1-.266.17q-3.8 2.073-7.612 4.137a1.269 1.269 0 0 1-.64.145.687.687 0 0 1-.612-.653c-.006-.06-.006-.12-.006-.181V7.399c0-.5.248-.821.683-.85a.921.921 0 0 1 .474.106q2.768 1.491 5.526 3c.234.128.3.318.2.5s-.3.218-.554.079L8.887 7.316c-.076-.041-.157-.071-.266-.119m-5.556 8.22a2.087 2.087 0 0 1 .252.279c.375.563.7 1.161 1.115 1.7a8.637 8.637 0 0 0 3.081 2.467c.169.083.343.158.5.253a.311.311 0 0 1 .129.431.316.316 0 0 1-.4.169.85.85 0 0 1-.146-.06 9.946 9.946 0 0 1-4.478-3.913 9.98 9.98 0 0 1-.445-.812c-.13-.26.025-.519.388-.509M16.165 2.806a2.89 2.89 0 0 1 .27.115 10.028 10.028 0 0 1 4.076 4.272c.115.227.077.412-.1.512s-.38.038-.5-.2a8.632 8.632 0 0 0-2-2.66c-.531-.463-1.129-.85-1.7-1.27-.085-.062-.21-.1-.253-.182a.523.523 0 0 1-.056-.367c.032-.1.174-.153.26-.222m-2.398-.908c.267.078.6.158.911.273a.289.289 0 0 1 .164.394.3.3 0 0 1-.369.222c-.3-.067-.6-.151-.889-.243a.3.3 0 0 1-.209-.394c.039-.166.161-.245.393-.252"/></g></symbol><symbol id="clock-three" viewBox="0 0 512 512"><path d="M248 104c0-4.42 3.6-8 8-8s8 3.58 8 8v144h112c4.4 0 8 3.6 8 8s-3.6 8-8 8H256c-4.4 0-8-3.6-8-8V104zm8-104c141.4 0 256 114.6 256 256S397.4 512 256 512 0 397.4 0 256 114.6 0 256 0zM16 256c0 132.5 107.5 240 240 240s240-107.5 240-240S388.5 16 256 16 16 123.5 16 256z"/></symbol><symbol id="phone-plus" viewBox="0 0 512 512"><path d="M493.1 351.2l-108.5-46.5a30.9 30.9 0 0 0-12.29-2.543c-9.201 0-18.2 4.076-24.19 11.51l-44.05 53.81c-69.25-34-125.5-90.28-159.5-159.5l53.83-44.09c10.75-8.781 14.42-23.66 8.984-36.44L160.8 18.93C155.7 7.251 144.2 0 132 0c-2.3 0-4.7.263-7.9.808L24.22 24.06C9.969 27.31 0 39.84 0 54.5 0 306.8 205.2 512 457.5 512c14.67 0 27.2-9.969 30.47-24.22l23.25-100.8c3.38-14.58-4.22-29.78-18.12-35.78zm2.5 32.2l-23.26 100.8c-1.54 7-7.64 11.8-14.84 11.8C214 496 16 297.9 16 54.49c0-7.154 4.844-13.26 11.82-14.85C140.3 13.69 130.4 16 132 16c6.117 0 11.68 3.672 14.12 9.234l46.51 108.5c2.67 5.366.87 13.566-4.43 17.866l-63.6 52.1c66.63 135.7 164.7 174.4 183.8 183.8l52.16-63.73c2.012-2.496 8.896-8.123 17.72-4.303l108.4 46.49c6.92 2.943 10.62 10.243 8.92 17.443zM328 104h80v80c0 4.4 3.6 8 8 8s8-3.578 8-8v-80h80c4.4 0 8-3.6 8-8s-3.578-8-8-8h-80V8c0-4.422-3.6-8-8-8s-8 3.578-8 8v80h-80c-4.4 0-8 3.58-8 8s3.6 8 8 8z"/></symbol><symbol id="check" viewBox="0 0 448 512"><path d="M413.505 91.951L133.49 371.966l-98.995-98.995c-4.686-4.686-12.284-4.686-16.971 0L6.211 284.284c-4.686 4.686-4.686 12.284 0 16.971l118.794 118.794c4.686 4.686 12.284 4.686 16.971 0l299.813-299.813c4.686-4.686 4.686-12.284 0-16.971l-11.314-11.314c-4.686-4.686-12.284-4.686-16.97 0z"/></symbol><symbol id="viber" viewBox="0 0 365 394.03"><g id="Layer_1"><path d="M334.47 220.86c-9.7 80.08-66.92 85.14-77.46 88.6-4.49 1.47-46.22 12.1-98.67 8.58l-56.86 63.01-.06-72.61-.45-.12C24.59 286.6 27.16 205.17 28.02 162.43c.86-42.74 8.7-77.76 32.01-101.31C101.88 22.3 188.11 28.1 188.11 28.1c72.82.33 107.73 22.77 115.82 30.29 26.86 23.56 40.55 79.91 30.54 162.46M323.8 38.4C314.23 29.4 275.58.67 189.49.28c0 0-101.51-6.27-151 40.21C10.94 68.7 1.25 109.96.22 161.14c-1.01 51.19-2.35 147.07 87.95 173.09l.08.02-.05 39.68s-.57 16.07 9.75 19.34c12.5 3.97 19.83-8.24 31.77-21.4 6.56-7.22 15.59-17.83 22.4-25.94 61.76 5.29 109.26-6.85 114.65-8.64 12.48-4.15 83.04-13.4 94.51-109.28 11.84-98.87-5.74-161.39-37.5-189.6" class="cls-1"/><path d="M268.72 232.8s-11.58-9.88-17.22-14.13c-5.32-4-13.8-9.37-18.54-12.11-8.5-4.85-17.19-1.8-20.78 2.96l-7.45 9.59c-3.82 4.86-9.7 4.04-11.25 3.73-11.01-2.76-22.72-9.65-34.7-21.25-12.12-11.71-19.46-23.94-22.07-36.65l-.19-.84c-.71-5.22.17-7.64 2.3-11.2l.4-.33c5.03-4.68 14.36-10.38 15.61-15.8 3.67-9.42-12.25-29.07-14.53-32.53 0 0-11.58-15.33-15.69-18.25-4.45-3.7-11.33-5.81-18.28-1.54l-.35.26c-19.95 13.5-27.18 21.26-25.21 32.84l1.03 4.66c10.12 31.9 29.66 65.9 58.79 96.18 28.82 29.9 60 47.81 90.72 60.22 7.98 2.65 16.26.37 24.75-6.89l.14-.11c6.51-6.08 11.66-12.59 15.51-19.56l.04-.14c3.74-7.37 2.48-14.35-3.03-19.1m-47.84-69.86c-1.21 0-2.23-.98-2.29-2.23-.4-8.27-2.63-14.6-6.63-18.83-3.97-4.2-9.93-6.54-17.69-6.97-1.26-.07-2.24-1.18-2.17-2.48.07-1.3 1.14-2.29 2.42-2.23 8.96.5 15.93 3.32 20.74 8.41 4.79 5.07 7.45 12.42 7.91 21.86.06 1.3-.92 2.39-2.18 2.46h-.12" class="cls-1"/><path d="M243.62 170.76h-.06c-1.26-.04-2.26-1.11-2.24-2.41.35-15.87-4.28-29.29-13.78-39.9-4.73-5.29-10.47-9.48-17.09-12.44-6.63-2.96-14.35-4.79-22.93-5.44-1.26-.1-2.22-1.23-2.12-2.51.09-1.3 1.19-2.28 2.45-2.18 18.32 1.38 32.82 7.9 43.09 19.4 10.32 11.52 15.36 26.06 14.99 43.18-.04 1.28-1.06 2.3-2.3 2.3" class="cls-1"/><path d="M266.9 180.08c-1.26 0-2.29-1.04-2.3-2.33-.11-14.03-2.22-26.72-6.3-37.73-4.06-10.93-10.18-20.54-18.19-28.56-8.03-8.01-17.16-14.11-27.13-18.16-10-4.06-21.14-6.15-33.12-6.24-1.26-.01-2.29-1.07-2.28-2.37.01-1.3 1.04-2.33 2.3-2.33h.01c25.15.19 46.48 8.84 63.43 25.74 8.5 8.49 14.99 18.67 19.28 30.26 4.27 11.52 6.49 24.77 6.6 39.36.01 1.3-1.01 2.36-2.28 2.37h-.02z" class="cls-1"/></g></symbol><symbol id="njemjek-map-marker" viewBox="0 0 233.45 306.39"><g id="katman_1"><path d="M120.76 306.39h-9.61l-2.07-1.7c-19.17-15.74-35.36-34.51-48.67-50.8-19.46-23.81-34.1-46.88-44.75-70.5C7.59 165.48 2.77 148.96.92 132.9c-4.17-36.25 5.89-68.14 29.9-94.79C48.95 18.01 71.77 5.67 98.66 1.44c47.56-7.48 94.12 14.72 118.59 56.58 16.78 28.69 20.54 60.89 11.17 95.71-6.06 22.51-16.37 44.38-32.45 68.83-17.72 26.94-39.03 52.07-65.14 76.84-2.92 2.77-5.61 4.74-8.46 6.19l-1.6.82zm-4.2-15h.41c1.1-.72 2.23-1.65 3.54-2.89 25.27-23.97 45.85-48.24 62.93-74.2 15.18-23.07 24.87-43.56 30.5-64.48 8.41-31.23 5.26-58.79-9.63-84.24C182.97 29.1 142.42 9.73 101 16.25c-23.41 3.68-43.27 14.42-59.03 31.9-21.01 23.31-29.8 51.24-26.15 83.02 1.67 14.51 6.09 29.57 13.52 46.04 10.1 22.42 24.07 44.39 42.69 67.17 12.36 15.12 27.25 32.42 44.53 47z" class="cls-1"/><path d="M165.19 128.11l-48.41 48.49-27.16-27.16c8.63-8.65 17.32-17.2 25.98-25.81l-1.12-.72.81-.83 6.18.75 7.58-8.68-3.36-2.84-11.31-3.1 1.22-1.38 7.74.64 1.51-1.51c.3-.3.79-.3 1.09 0 .3.3.3.79 0 1.09l-.59.59 2.95.24 1.51-1.51c.3-.3.79-.3 1.09 0 .3.3.3.79 0 1.09l-.59.59 4.18.35 5.39-5.6c3.43-2.9 6.6.27 3.7 3.7l-5.6 5.39.35 4.19.6-.59c.3-.3.79-.3 1.09 0 .3.3.3.79 0 1.09l-1.52 1.52.24 2.95.6-.59c.3-.3.79-.3 1.09 0 .3.3.3.79 0 1.09l-1.52 1.52.64 7.74-1.38 1.23-3.1-11.31-2.84-3.36-8.68 7.58.76 6.18-.83.81-.87-1.35-15.53 16.52c3.23 3.23 6.46 6.47 9.7 9.7l38.49-38.56c3.59-3.59 5.58-8.37 5.58-13.45 0-1.44-.16-2.88-.48-4.28-1.97-8.61-9.69-14.73-18.53-14.73-10.56 0-17.84 9.89-25.09 16.81l-32.4 32.37-.02-.02-4.62 4.62-9.78-9.78-1.18-1.18c-6.52-6.52-10.14-14.52-10.14-23.82 0-2.57.29-5.08.85-7.48 3.39-14.64 16.51-25.55 32.19-25.55 5.05 0 9.83 1.13 14.11 3.16l-5.19 5.16-6.01 5.97c-.94-.17-1.91-.26-2.91-.26-8.83 0-16.53 6.1-18.52 14.7-.33 1.42-.49 2.87-.49 4.32 0 5.55 2.14 10.01 6.04 13.9l1.21 1.21 38.79-38.67c5.96-5.86 14.14-9.48 23.16-9.48 15.7 0 28.84 10.95 32.2 25.62.55 2.38.84 4.86.84 7.41 0 9.12-3.7 17.38-9.68 23.36z" class="cls-1"/></g></symbol><symbol id="njemjek-map-marker-alt" viewBox="0 0 240.46 313.39"><path d="M223.78 59.75C198.57 16.64 150.62-6.23 101.62 1.48c-27.7 4.36-51.22 17.07-69.9 37.79C7.01 66.69-3.35 99.51.94 136.8c1.89 16.43 6.81 33.29 15.03 51.53 10.78 23.91 25.57 47.23 45.23 71.28 13.42 16.42 29.75 35.35 49.16 51.29l3.04 2.5h11.7l2.35-1.2c3.16-1.61 6.11-3.76 9.28-6.77 26.31-24.96 47.79-50.29 65.66-77.45 16.29-24.77 26.75-46.96 32.91-69.84 9.62-35.75 5.75-68.86-11.53-98.39zm-18.99 11.1c14.39 24.6 17.42 51.28 9.27 81.56-5.53 20.55-15.08 40.72-30.04 63.47-16.93 25.73-37.34 49.8-62.42 73.58-.43.41-.83.77-1.22 1.1-16.3-14.08-30.42-30.54-42.15-44.89-18.43-22.55-32.24-44.27-42.21-66.4-7.28-16.14-11.6-30.86-13.23-45-3.54-30.74 4.96-57.75 25.27-80.28 15.21-16.88 34.38-27.24 56.97-30.79 5.15-.81 10.28-1.21 15.36-1.21 34.4 0 66.44 18.15 84.39 48.85z" class="cls-1"/><path d="M172.82 129.32l-52.55 52.64-29.48-29.48c9.37-9.38 18.8-18.67 28.21-28.02l-1.22-.78.88-.9 6.7.82 8.23-9.42-3.65-3.08-12.28-3.37 1.33-1.5 8.41.7 1.64-1.64c.32-.32.86-.32 1.18 0 .32.32.32.86 0 1.18l-.64.64 3.2.26 1.64-1.64c.32-.32.86-.32 1.18 0 .32.32.32.86 0 1.18l-.65.64 4.54.38 5.85-6.08c3.72-3.15 7.16.29 4.01 4.02l-6.08 5.86.38 4.54.65-.65c.32-.32.86-.32 1.18 0 .32.32.32.86 0 1.18l-1.65 1.65.27 3.2.65-.65c.32-.32.86-.32 1.18 0 .32.33.32.86 0 1.18l-1.65 1.65.7 8.4-1.5 1.33-3.37-12.28-3.08-3.65-9.42 8.23.82 6.7-.9.88-.95-1.47-16.86 17.93 10.53 10.53 41.79-41.85c3.89-3.9 6.05-9.09 6.05-14.6 0-1.56-.17-3.12-.52-4.65-2.14-9.35-10.52-16-20.12-16-11.46 0-19.36 10.73-27.24 18.25l-35.17 35.14-.02-.02-5.01 5.02-10.61-10.61-1.28-1.28c-7.08-7.08-11.01-15.76-11.01-25.86 0-2.79.32-5.51.92-8.12 3.68-15.89 17.93-27.74 34.94-27.74 5.48 0 10.67 1.23 15.32 3.43l-5.64 5.6-6.52 6.48c-1.02-.18-2.08-.28-3.16-.28-9.58 0-17.95 6.62-20.11 15.95-.35 1.54-.53 3.11-.53 4.69 0 6.03 2.33 10.86 6.55 15.09l1.32 1.31 42.11-41.98c6.47-6.36 15.35-10.29 25.14-10.29 17.04 0 31.31 11.88 34.96 27.82.59 2.59.91 5.28.91 8.05 0 9.9-4.01 18.87-10.51 25.36z" class="cls-2"/></symbol></svg>