<svg xmlns="http://www.w3.org/2000/svg" width="85.978" height="77.566" viewBox="0 0 85.978 77.566">
  <path id="Path_1870" data-name="Path 1870" d="M20.732,31.238a14.072,14.072,0,0,1,13.7-10.868,12.369,12.369,0,0,1,2.153.189l4.441-4.412,3.84-3.814A24.435,24.435,0,0,0,17.5,52.047l.871.871,7.229,7.23,3.415-3.42.012.012L52.988,32.8c5.365-5.12,10.751-12.433,18.557-12.433a14.073,14.073,0,0,1,13.707,10.9,14.226,14.226,0,0,1,.355,3.165,14,14,0,0,1-4.125,9.949L53.015,72.894l-7.172-7.173L57.326,53.506l.644,1,.616-.6-.558-4.567,6.417-5.608,2.1,2.486,2.294,8.363,1.021-.906-.475-5.723,1.122-1.122a.569.569,0,0,0-.8-.8l-.44.44-.181-2.181,1.122-1.12a.569.569,0,1,0-.8-.805l-.44.44L68.7,39.706l4.142-3.989c2.146-2.536-.2-4.882-2.735-2.736l-3.989,4.142-3.1-.255.44-.439a.569.569,0,0,0-.8-.8l-1.12,1.119-2.181-.18.439-.438a.569.569,0,0,0-.8-.805l-1.12,1.12-5.726-.474-.906,1.022,8.363,2.292,2.486,2.1L56.486,47.8l-4.567-.558-.6.616.829.535c-6.41,6.368-12.832,12.7-19.216,19.09L53.021,87.566l35.8-35.858a24.432,24.432,0,0,0-34.4-34.7L25.731,45.61l-.9-.9A13.967,13.967,0,0,1,20.37,34.432a14.184,14.184,0,0,1,.362-3.194" transform="translate(-10 -10)" fill="#2eb7c4" fill-rule="evenodd"/>
</svg>
