<svg id="Group_16" data-name="Group 16" xmlns="http://www.w3.org/2000/svg" xmlns:xlink="http://www.w3.org/1999/xlink" width="261.194" height="243.913" viewBox="0 0 261.194 243.913">
  <defs>
    <clipPath id="clip-path">
      <rect id="Rectangle_10" data-name="Rectangle 10" width="261.194" height="243.913" fill="none"/>
    </clipPath>
    <clipPath id="clip-path-2">
      <rect id="Rectangle_11" data-name="Rectangle 11" width="136.893" height="142.369" fill="none"/>
    </clipPath>
  </defs>
  <g id="Group_11" data-name="Group 11">
    <g id="Group_10" data-name="Group 10" clip-path="url(#clip-path)">
      <path id="Path_18" data-name="Path 18" d="M149.722,45.843V32.82H111.846a21.689,21.689,0,0,0-11.126,2.851c-2.929,1.812-4.6,4.318-4.6,6.881V205.678c0,2.564,1.673,5.071,4.6,6.88a21.677,21.677,0,0,0,11.126,2.852H299.125a21.641,21.641,0,0,0,11.116-2.852c2.93-1.809,4.612-4.316,4.612-6.88V42.552c0-2.563-1.682-5.069-4.612-6.881a21.654,21.654,0,0,0-11.116-2.851H263.493V45.843h35.633V200.624H111.846V45.843Z" transform="translate(-53.658 -18.322)" fill="#5a6e7e"/>
      <rect id="Rectangle_5" data-name="Rectangle 5" width="94.473" height="21.051" transform="translate(105.713 14.498)" fill="#5a6e7e"/>
      <path id="Path_19" data-name="Path 19" d="M131.721,80.474v146.52H319V80.474H283.368v8.77a2.464,2.464,0,0,1-1.409,2,6.981,6.981,0,0,1-3.416.827H174.422a6.967,6.967,0,0,1-3.416-.827,2.464,2.464,0,0,1-1.409-2v-8.77Zm171.542,128H147.45V191.744H303.263Zm0-37.875H147.45v-16.74H303.263Zm0-37.877H147.45V115.986H303.263Z" transform="translate(-73.534 -44.925)" fill="#fff"/>
      <rect id="Rectangle_6" data-name="Rectangle 6" width="94.473" height="10.154" transform="translate(105.713 35.549)" fill="#fff"/>
      <path id="Path_20" data-name="Path 20" d="M222.287,0a4.816,4.816,0,0,0-4.824,4.82V50.526a4.815,4.815,0,0,0,4.824,4.82H326.41a4.814,4.814,0,0,0,4.824-4.82V4.82A4.815,4.815,0,0,0,326.41,0Zm99.3,14.5V45.7H227.113V9.646h94.473Z" transform="translate(-121.4)" fill="#97d5c9"/>
      <rect id="Rectangle_7" data-name="Rectangle 7" width="155.812" height="16.739" transform="translate(73.916 71.061)" fill="#5cbfab"/>
      <rect id="Rectangle_8" data-name="Rectangle 8" width="155.812" height="16.74" transform="translate(73.916 108.937)" fill="#5cbfab"/>
      <rect id="Rectangle_9" data-name="Rectangle 9" width="155.812" height="16.733" transform="translate(73.916 146.819)" fill="#5cbfab"/>
      <path id="Path_21" data-name="Path 21" d="M24.106,238.188,6.24,251.736l-2.209,9.277,3.386,18.2,21.989,40.227L70.7,354.27l31.843,14.087,22.7-4.663,10.875-16.1L133.9,338.76l-17.67-14.578H102.1l-8.835,9.277-9.277-1.325-15.461-9.718-25.179-27.83-5.3-10.692,3.976-6.978,6.626-7.951,1.325-8.393L42.758,249.7l-8.246-9.893-7.951-2.65Z" transform="translate(-2.251 -132.395)" fill="#5cbfab"/>
    </g>
  </g>
  <g id="Group_13" data-name="Group 13" transform="translate(0 101.544)">
    <g id="Group_12" data-name="Group 12" clip-path="url(#clip-path-2)">
      <path id="Path_22" data-name="Path 22" d="M109.041,368.321c-5.636,0-12.452-1.4-19.964-4.232-16.444-6.217-34.309-18.452-50.354-34.491S10.449,295.682,4.233,279.243c-5.636-14.956-5.636-27.208-.046-32.82.827-.827,1.648-1.694,2.5-2.584,5.122-5.4,11.048-11.545,18.583-11.162,5.3.222,10.427,3.5,15.663,10.022,15.509,19.273,8.533,26.158.445,34.115l-1.425,1.426c-1.335,1.312-3.834,7.461,19.427,30.7,7.6,7.6,14.083,13.164,19.251,16.53,3.251,2.116,9.069,5.327,11.476,2.92l1.426-1.449c7.951-8.088,14.836-15.041,34.109.445,6.531,5.259,9.8,10.381,10.027,15.663.314,7.689-5.789,13.479-11.185,18.606-.89.845-1.757,1.672-2.561,2.47-2.806,2.789-7.261,4.192-12.879,4.192m-84.309-131.1c-5.459,0-10.381,5.2-14.75,9.782-.868.913-1.718,1.808-2.561,2.63C3.252,253.821,3.679,264.8,8.51,277.635c5.972,15.845,17.847,33.157,33.442,48.751C57.529,341.963,74.84,353.838,90.68,359.81c12.834,4.854,23.819,5.253,28.011,1.09.821-.845,1.711-1.695,2.629-2.561,4.7-4.455,10-9.491,9.777-15.11-.154-3.833-2.961-7.974-8.334-12.3-16.062-12.9-20.539-8.333-27.983-.8L93.31,331.6c-3.542,3.565-9.331,2.789-17.175-2.316-5.436-3.542-12.167-9.292-19.986-17.111-19.319-19.319-25.49-31.126-19.428-37.19l1.444-1.426c7.557-7.438,12.12-11.938-.776-28.006-4.323-5.367-8.47-8.151-12.3-8.334Z" transform="translate(0 -231.427)" fill="#4f606d"/>
    </g>
  </g>
  <g id="Group_15" data-name="Group 15">
    <g id="Group_14" data-name="Group 14" clip-path="url(#clip-path)">
      <path id="Path_23" data-name="Path 23" d="M199.083,281.375a2.276,2.276,0,0,1-1.608-3.879l44.165-44.182a2.283,2.283,0,0,1,3.228,3.228l-44.16,44.16a2.3,2.3,0,0,1-1.626.673" transform="translate(-109.869 -129.876)" fill="#4f606d"/>
      <path id="Path_24" data-name="Path 24" d="M232.856,294.522H199.083a2.286,2.286,0,0,1-2.276-2.276V258.468a2.285,2.285,0,0,1,4.569,0v31.485h31.48a2.285,2.285,0,1,1,0,4.569" transform="translate(-109.868 -143.024)" fill="#4f606d"/>
    </g>
  </g>
</svg>
