<svg xmlns="http://www.w3.org/2000/svg" xmlns:xlink="http://www.w3.org/1999/xlink" width="176.617" height="177.056" viewBox="0 0 176.617 177.056">
  <defs>
    <clipPath id="clip-path">
      <rect id="Rectangle_2" data-name="Rectangle 2" width="176.617" height="177.056" fill="#002b58"/>
    </clipPath>
  </defs>
  <g id="Group_4" data-name="Group 4" transform="translate(0 -0.001)">
    <g id="Group_3" data-name="Group 3" transform="translate(0 0.001)" clip-path="url(#clip-path)">
      <path id="Path_15" data-name="Path 15" d="M150.718,25.882A88.3,88.3,0,0,0,22.147,146.822l.917.735C19.723,154.75,14,163.632,4.894,168.108a3.428,3.428,0,0,0,.991,6.461c9.948,1.541,24.225-.185,37.548-10.24l.185.147a88.285,88.285,0,0,0,107.1-138.594m-33.327,100.2c-1.944,1.983-4,3.818-5.836,5.873-2.679,3.008-6.056,3.962-9.873,3.743-5.58-.294-10.754-2.166-15.71-4.587A85.448,85.448,0,0,1,57.6,108.906,78.389,78.389,0,0,1,43.763,85.858c-1.541-4.15-2.641-8.371-2.311-12.847a10.576,10.576,0,0,1,3.266-7.047c2.2-2.093,4.259-4.257,6.423-6.388,2.826-2.788,6.35-2.752,9.176,0,1.761,1.727,3.449,3.451,5.176,5.176,1.688,1.688,3.376,3.338,5.026,5.028,2.937,2.973,2.937,6.422,0,9.4-2.091,2.129-4.182,4.257-6.35,6.312a1.314,1.314,0,0,0-.33,1.69,37.1,37.1,0,0,0,5.726,9.176,65.28,65.28,0,0,0,16.04,14.571c1.321.846,2.788,1.43,4.182,2.2a1.257,1.257,0,0,0,1.763-.33c2.093-2.165,4.257-4.295,6.388-6.423,2.826-2.788,6.348-2.788,9.138,0,3.451,3.413,6.863,6.827,10.278,10.276,2.935,3.01,2.935,6.535.036,9.434M84.836,69.046l1.1-7.853a35.11,35.11,0,0,1,29.692,28.774l-7.816,1.358A27.22,27.22,0,0,0,84.836,69.046M128.4,89.967A50.26,50.26,0,0,0,85.863,48.713l1.1-7.855A58.27,58.27,0,0,1,136.22,88.61Z" transform="translate(0 0.003)" fill="#002b58"/>
    </g>
  </g>
</svg>
