<svg id="Group_2" data-name="Group 2" xmlns="http://www.w3.org/2000/svg" xmlns:xlink="http://www.w3.org/1999/xlink" width="300.35" height="140.973" viewBox="0 0 300.35 140.973">
  <defs>
    <clipPath id="clip-path">
      <rect id="Rectangle_1" data-name="Rectangle 1" width="300.35" height="140.973" fill="none"/>
    </clipPath>
  </defs>
  <g id="Group_1" data-name="Group 1" clip-path="url(#clip-path)">
    <path id="Path_1" data-name="Path 1" d="M153.964,118.148c30.016.185,57.959-1.411,85.884-3.325,12.325-.844,24.534-2.5,35.994-7.524,13.24-5.8,21.137-15.812,23.291-30.176,1.616-10.776,1.43-21.648.557-32.422-1.517-18.739-13.836-32.585-31.836-36.384a295.413,295.413,0,0,0-45.528-5.975C190.714.686,159.072-.424,127.407.155,97.081.709,66.829,2.274,36.837,7.212,16.223,10.6,4.266,22.381.98,43.124-.594,53.051.008,63.011.846,73.006,2.773,95.967,16.329,107.2,36.91,111.72A95.789,95.789,0,0,0,54.743,113.9c4.786.129,5.837,2.056,5.583,6.351-.325,5.482-.12,11-.057,16.5.016,1.419-.711,3.368.974,4.067s2.572-1.186,3.514-2.217q8.94-9.774,17.738-19.676c1.376-1.543,2.666-2.606,5.056-2.461,22.783,1.39,45.592,1.963,66.413,1.683" fill="#fefefe"/>
    <path id="Path_2" data-name="Path 2" d="M153.964,118.149c-20.821.28-43.629-.293-66.413-1.683-2.39-.145-3.68.918-5.056,2.461q-8.816,9.885-17.738,19.676c-.941,1.031-1.815,2.922-3.514,2.217s-.958-2.649-.974-4.068c-.062-5.5-.269-11.013.057-16.495.255-4.3-.8-6.222-5.583-6.351a95.767,95.767,0,0,1-17.832-2.185C16.329,107.205,2.772,95.968.847,73.007c-.84-10-1.441-19.955.132-29.882C4.267,22.382,16.224,10.606,36.837,7.212,66.829,2.274,97.081.71,127.407.156c31.665-.579,63.307.53,94.919,2.187a295.4,295.4,0,0,1,45.528,5.975c18,3.8,30.319,17.645,31.836,36.384.873,10.774,1.059,21.646-.557,32.421-2.154,14.365-10.051,24.375-23.291,30.177-11.459,5.024-23.668,6.68-35.994,7.524-27.925,1.914-55.868,3.51-85.884,3.325m6.263-58.283c0,7,.022,14-.013,20.995-.013,2.678.63,5.012,3.224,6.247,2.548,1.214,4.985.783,6.7-1.47,1.155-1.517,1.748-1.047,3.1-.219,8.435,5.16,17.657,2.759,22.659-5.789,4.91-8.394,4.416-16.9.033-25.257-3.8-7.238-11.281-10.155-19.108-7.834-5.535,1.642-5.535,1.642-5.543-4.388,0-.834-.032-1.668.006-2.5.175-3.829-1.136-6.906-5.327-6.941-4.425-.037-5.778,3.148-5.748,7.161.047,6.665.013,13.33.019,20m-42.089,7.615c-4.08-10.973-7.558-20.468-11.156-29.916-1.277-3.353-3.337-6.069-7.492-4.592-4.114,1.461-4.927,4.609-3.421,8.474q8.148,20.9,16.355,41.777c1.029,2.611,2.7,4.643,5.869,4.576,2.906-.06,4.506-1.911,5.507-4.355,1.7-4.151,3.309-8.34,4.947-12.518,3.881-9.9,7.8-19.789,11.614-29.715,1.379-3.584.752-6.654-3.192-8.145-3.754-1.42-6.015.575-7.5,3.795-.625,1.354-1.1,2.778-1.627,4.177-3.129,8.347-6.252,16.695-9.9,26.442m107.406,3.294c2.826,0,5.656.029,8.483-.007,6.024-.079,7.675-2.147,6.519-8.1-2.068-10.651-11.17-17.739-21.463-16.714-10.213,1.016-17.793,10.04-17.666,21.266.1,8.7,3.59,15.686,11.8,19.2,8.448,3.607,16.64,2.072,24.071-3.17,2.369-1.672,3.636-4.016,1.718-6.876-1.679-2.5-3.908-2.808-6.509-1.4a46.584,46.584,0,0,1-5.36,2.656c-5.108,1.962-11.248.132-13.269-3.774-1.011-1.951-.949-3.133,1.693-3.084,3.326.061,6.654.015,9.981.01M76.51,87.4c4.2.042,9.116-4,10.538-8.016,1.366-3.861-1.524-5.394-3.81-7.234-1.683-1.355-3.481-2.57-5.251-3.813-3.531-2.479-6.759-2.672-9.394,1.317-1.479,2.24-3.549,2.338-5.714,1.355A25.322,25.322,0,0,1,49.6,58.067c-1.2-2.684-1.179-5.091,1.615-6.99,1.479-1,2.971-2.192,2.851-4.386-.156-2.86-7.1-12.421-9.844-13.429a4.988,4.988,0,0,0-3.42,0c-6.431,2.162-9.1,7.452-6.544,13.715C41.87,65.66,55.264,78.667,73.7,86.607a18.2,18.2,0,0,0,2.809.795m167.789-21c0,5.161-.082,10.323.03,15.481.069,3.225,1.765,5.548,5.053,5.794,3.522.263,5.671-1.858,6.033-5.3a41.082,41.082,0,0,0,.14-8.968c-.978-8.444.511-15.147,10.166-17.42,2.339-.551,3.218-2.644,2.692-5.181a5.259,5.259,0,0,0-4.689-4.49,7.075,7.075,0,0,0-6,1.86c-1.2,1.069-1.87,1.912-3.3-.116-1.588-2.254-4.242-2.3-6.795-1.217-2.479,1.054-3.375,2.991-3.35,5.573.046,4.661.013,9.323.016,13.984M144.215,68.46c0,4.322.068,8.643-.02,12.962-.077,3.78,1.619,6.3,5.368,6.426,3.768.13,5.695-2.29,5.7-6.065.019-8.974.047-17.948-.017-26.92-.026-3.434-1.532-5.811-5.315-5.847-3.95-.039-5.681,2.227-5.7,5.985-.029,4.486-.007,8.973-.015,13.459m-81.259-36.2c-.977.141-3-.674-3.124,1.516-.085,1.476,1.617,1.234,2.734,1.406C76.044,37.25,82.26,43.66,83.978,57.236c.158,1.254-.309,3.141,1.48,3.176,1.87.036,1.419-1.824,1.436-3.079C87.05,44.546,75.9,32.693,62.956,32.256m93.259,6.725c-.318-3.719-2.41-5.855-5.971-6.249-3.349-.369-6.366,2.791-6.345,6.248a6.074,6.074,0,0,0,6.389,6.174c3.8-.236,5.506-2.61,5.927-6.173M80.246,55.043C80.313,47.115,73.52,39.9,65.2,38.9c-1.3-.156-3.007-.767-3.31,1.032-.316,1.888,1.592,1.7,2.817,1.971,8.325,1.86,11.223,4.891,12.594,13.149.2,1.2-.2,3.077,1.849,2.766,1.515-.23.968-1.837,1.1-2.775m-6.325-1.5c.059-3.827-4.264-8.249-7.956-8.157-.864.022-1.713.115-2.032,1.04-.476,1.383.527,1.712,1.55,1.876,3.416.549,5.212,2.562,5.553,5.968.094.924.679,1.673,1.572,1.567,1.238-.147,1.35-1.249,1.313-2.294" fill="#7c529d" fill-rule="evenodd"/>
    <path id="Path_3" data-name="Path 3" d="M160.224,59.865c0-6.665.032-13.33-.016-20-.03-4.013,1.323-7.2,5.749-7.161,4.19.035,5.5,3.112,5.326,6.941-.037.832-.006,1.666-.005,2.5.007,6.03.007,6.03,5.543,4.388,7.826-2.321,15.307.6,19.107,7.835,4.383,8.351,4.877,16.862-.034,25.257-5,8.547-14.223,10.948-22.658,5.789-1.352-.829-1.945-1.3-3.1.218-1.713,2.253-4.15,2.684-6.7,1.47-2.592-1.235-3.235-3.569-3.222-6.247.034-7,.011-14,.009-20.995m27.939,7.413c.077-6.251-3.436-11.034-8.2-11.16-4.963-.132-8.6,4.331-8.7,10.665-.09,6.1,3.57,11.081,8.236,11.22,4.886.146,8.579-4.43,8.656-10.725" fill="#faf9fb" fill-rule="evenodd"/>
    <path id="Path_4" data-name="Path 4" d="M118.138,67.48c3.649-9.747,6.772-18.1,9.9-26.442.525-1.4,1-2.823,1.627-4.177,1.488-3.22,3.749-5.215,7.5-3.795,3.944,1.491,4.571,4.561,3.192,8.145-3.818,9.926-7.733,19.814-11.614,29.715-1.638,4.178-3.246,8.367-4.947,12.518-1,2.444-2.6,4.295-5.508,4.355-3.168.067-4.839-1.965-5.868-4.576Q104.193,62.355,96.07,41.446c-1.508-3.865-.694-7.013,3.42-8.474,4.154-1.476,6.215,1.239,7.492,4.592,3.6,9.448,7.075,18.943,11.156,29.916" fill="#faf9fb" fill-rule="evenodd"/>
    <path id="Path_5" data-name="Path 5" d="M225.544,70.777c-3.328,0-6.656.048-9.982-.012-2.641-.049-2.7,1.133-1.692,3.084,2.021,3.906,8.162,5.736,13.269,3.773a46.5,46.5,0,0,0,5.36-2.655c2.6-1.409,4.83-1.1,6.509,1.4,1.919,2.861.651,5.205-1.717,6.877-7.432,5.242-15.624,6.777-24.072,3.169-8.212-3.509-11.7-10.5-11.8-19.195-.127-11.227,7.454-20.25,17.666-21.267,10.293-1.024,19.394,6.063,21.463,16.714,1.156,5.958-.494,8.026-6.519,8.1-2.827.036-5.656.007-8.483.009m-4.89-7.577a19.776,19.776,0,0,0,2.973-.026c1.831-.284,4.754,1.108,5.277-.956.688-2.714-1.552-4.913-4.05-6.143a7.7,7.7,0,0,0-9.2,1.193c-1.488,1.35-3.144,3.054-2.408,5.059.681,1.85,2.914.611,4.437.852a18.542,18.542,0,0,0,2.973.021" fill="#f9f7f9" fill-rule="evenodd"/>
    <path id="Path_6" data-name="Path 6" d="M76.511,87.4a18.18,18.18,0,0,1-2.81-.795C55.264,78.667,41.869,65.659,34.259,46.974c-2.552-6.263.113-11.553,6.544-13.715a4.994,4.994,0,0,1,3.42,0c2.743,1.009,9.688,10.569,9.844,13.43.119,2.193-1.371,3.381-2.85,4.385-2.8,1.9-2.811,4.306-1.617,6.99A25.327,25.327,0,0,0,62.879,71.01c2.166.983,4.236.885,5.715-1.355,2.634-3.988,5.863-3.8,9.394-1.316,1.77,1.242,3.568,2.457,5.251,3.812,2.285,1.84,5.175,3.373,3.808,7.234C85.626,83.4,80.709,87.443,76.511,87.4" fill="#faf9fb" fill-rule="evenodd"/>
    <path id="Path_7" data-name="Path 7" d="M244.3,66.406c0-4.661.031-9.323-.015-13.984-.024-2.581.873-4.519,3.35-5.573,2.553-1.085,5.208-1.037,6.795,1.217,1.428,2.028,2.1,1.185,3.3.116a7.078,7.078,0,0,1,6-1.86,5.257,5.257,0,0,1,4.688,4.49c.526,2.537-.353,4.631-2.691,5.181-9.654,2.273-11.145,8.976-10.167,17.421a41.085,41.085,0,0,1-.139,8.968c-.362,3.441-2.511,5.562-6.034,5.3-3.288-.246-4.983-2.569-5.053-5.794-.112-5.158-.03-10.32-.031-15.481" fill="#f9f7f9" fill-rule="evenodd"/>
    <path id="Path_8" data-name="Path 8" d="M144.219,68.46c0-4.486-.018-8.973.011-13.46.024-3.757,1.755-6.023,5.7-5.985,3.783.036,5.289,2.413,5.314,5.847.064,8.973.037,17.947.018,26.92-.008,3.776-1.936,6.2-5.7,6.066-3.749-.13-5.445-2.647-5.368-6.426.088-4.319.021-8.641.024-12.962" fill="#faf9fb" fill-rule="evenodd"/>
    <path id="Path_9" data-name="Path 9" d="M62.956,32.256c12.947.437,24.1,12.29,23.937,25.077-.015,1.255.436,3.114-1.434,3.078-1.79-.034-1.322-1.922-1.481-3.175C82.261,43.659,76.045,37.25,62.566,35.177c-1.117-.171-2.819.071-2.735-1.4.126-2.19,2.147-1.375,3.125-1.516" fill="#efe9f3" fill-rule="evenodd"/>
    <path id="Path_10" data-name="Path 10" d="M156.215,38.981c-.422,3.563-2.123,5.937-5.927,6.172A6.073,6.073,0,0,1,143.9,38.98c-.021-3.457,2.995-6.618,6.345-6.248,3.561.394,5.653,2.53,5.971,6.249" fill="#f9f7f9" fill-rule="evenodd"/>
    <path id="Path_11" data-name="Path 11" d="M80.246,55.043c-.127.938.42,2.544-1.1,2.775-2.047.311-1.649-1.563-1.849-2.767C75.931,46.793,73.033,43.763,64.708,41.9c-1.226-.274-3.134-.082-2.817-1.97.3-1.8,2.015-1.188,3.31-1.033,8.318,1,15.112,8.216,15.045,16.144" fill="#efe9f3" fill-rule="evenodd"/>
    <path id="Path_12" data-name="Path 12" d="M73.92,53.539c.038,1.046-.074,2.148-1.312,2.295-.893.106-1.478-.643-1.572-1.568-.341-3.406-2.138-5.419-5.553-5.967-1.022-.165-2.026-.494-1.549-1.876.319-.926,1.167-1.019,2.031-1.04,3.692-.092,8.015,4.33,7.955,8.156" fill="#efe9f3" fill-rule="evenodd"/>
    <path id="Path_13" data-name="Path 13" d="M188.163,67.278c-.077,6.295-3.77,10.871-8.656,10.725-4.666-.139-8.326-5.125-8.236-11.22.1-6.334,3.733-10.8,8.7-10.665,4.76.126,8.273,4.909,8.2,11.16" fill="#7c529d" fill-rule="evenodd"/>
    <path id="Path_14" data-name="Path 14" d="M220.654,63.2a19.015,19.015,0,0,1-2.973-.025c-1.523-.24-3.756,1-4.437-.851-.736-2.005.92-3.709,2.408-5.059a7.7,7.7,0,0,1,9.2-1.193c2.5,1.23,4.738,3.428,4.05,6.142-.523,2.065-3.446.673-5.277.956a20.04,20.04,0,0,1-2.973.03" fill="#7c529d" fill-rule="evenodd"/>
  </g>
</svg>
