<svg xmlns="http://www.w3.org/2000/svg" xmlns:xlink="http://www.w3.org/1999/xlink" width="192.077" height="192.077" viewBox="0 0 192.077 192.077">
  <defs>
    <clipPath id="clip-path">
      <path id="Path_16" data-name="Path 16" d="M48.758,0c-1.047,0-3.329.032-5.092.1a101.356,101.356,0,0,0-12.314.994A41.37,41.37,0,0,0,20.9,4.568,37.013,37.013,0,0,0,4.6,20.844a41.32,41.32,0,0,0-3.479,10.4A101.331,101.331,0,0,0,.11,43.648c-.064,1.763-.1,4.044-.1,5.095L0,143.319c0,1.048.031,3.33.094,5.092a101.524,101.524,0,0,0,.994,12.314,41.432,41.432,0,0,0,3.48,10.456,37.006,37.006,0,0,0,16.277,16.3,41.334,41.334,0,0,0,10.4,3.478,101.484,101.484,0,0,0,12.408,1.013c1.761.063,4.043.094,5.094.094l94.577.015c1.047,0,3.328-.031,5.092-.094a101.531,101.531,0,0,0,12.314-.994,41.48,41.48,0,0,0,10.456-3.479,37.013,37.013,0,0,0,16.293-16.277,41.352,41.352,0,0,0,3.478-10.4,101.328,101.328,0,0,0,1.013-12.407c.063-1.762.1-4.044.1-5.095l.016-94.576c0-1.048-.032-3.329-.1-5.092a101.352,101.352,0,0,0-.994-12.314A41.355,41.355,0,0,0,187.508,20.9,37.017,37.017,0,0,0,171.232,4.6a41.324,41.324,0,0,0-10.4-3.478A101.353,101.353,0,0,0,148.428.11c-1.762-.063-4.042-.1-5.094-.1Z" transform="translate(0 0.001)" fill="none"/>
    </clipPath>
    <linearGradient id="linear-gradient" y1="1" x2="0.004" y2="1" gradientUnits="objectBoundingBox">
      <stop offset="0" stop-color="#61fd7d"/>
      <stop offset="1" stop-color="#2bb826"/>
    </linearGradient>
    <clipPath id="clip-path-2">
      <rect id="Rectangle_4" data-name="Rectangle 4" width="192.076" height="192.076" fill="none"/>
    </clipPath>
  </defs>
  <g id="Group_9" data-name="Group 9" transform="translate(0 0.001)">
    <g id="Group_6" data-name="Group 6" transform="translate(0 -0.001)">
      <g id="Group_5" data-name="Group 5" clip-path="url(#clip-path)">
        <rect id="Rectangle_3" data-name="Rectangle 3" width="192.077" height="192.077" transform="translate(0 0)" fill="url(#linear-gradient)"/>
      </g>
    </g>
    <g id="Group_8" data-name="Group 8" transform="translate(0 0)">
      <g id="Group_7" data-name="Group 7" clip-path="url(#clip-path-2)">
        <path id="Path_17" data-name="Path 17" d="M154.691,52.262a68.883,68.883,0,0,0-108.406,83.08l-9.771,35.681,36.513-9.575a68.842,68.842,0,0,0,32.914,8.381h.028A68.88,68.88,0,0,0,154.691,52.262M105.969,158.2h-.023a57.173,57.173,0,0,1-29.138-7.977l-2.091-1.241-21.667,5.682,5.784-21.118-1.361-2.165a57.251,57.251,0,1,1,48.5,26.819m31.4-42.862c-1.721-.861-10.183-5.023-11.759-5.6s-2.725-.861-3.873.861-4.445,5.6-5.45,6.746-2.008,1.291-3.729.431a47.023,47.023,0,0,1-13.839-8.539A51.874,51.874,0,0,1,89.147,97.32c-1-1.723-.106-2.653.755-3.511.775-.77,1.721-2.009,2.582-3.014A11.747,11.747,0,0,0,94.2,87.924a3.167,3.167,0,0,0-.144-3.014c-.43-.861-3.872-9.33-5.306-12.774-1.4-3.355-2.816-2.9-3.872-2.954-1-.05-2.152-.061-3.3-.061a6.325,6.325,0,0,0-4.589,2.153,19.3,19.3,0,0,0-6.023,14.353c0,8.468,6.166,16.649,7.027,17.8s12.136,18.526,29.4,25.978a98.808,98.808,0,0,0,9.812,3.625,23.6,23.6,0,0,0,10.839.682c3.307-.494,10.182-4.163,11.617-8.182s1.434-7.463,1-8.18-1.578-1.148-3.3-2.01" transform="translate(-7.766 -6.82)" fill="#fff"/>
      </g>
    </g>
  </g>
</svg>
