<svg width="343" height="35" viewBox="0 0 343 35" fill="none" xmlns="http://www.w3.org/2000/svg">
<path d="M148.507 4.3116C146.783 4.99162 144.907 5.48103 142.974 5.67164C144.981 4.58173 146.483 2.85986 147.2 0.829086C145.317 1.85318 143.254 2.57129 141.103 2.95157C140.204 2.07283 139.117 1.37279 137.909 0.895065C136.701 0.41734 135.399 0.172168 134.082 0.174826C128.758 0.174826 124.475 4.12099 124.475 8.96355C124.475 9.64356 124.565 10.3236 124.712 10.9778C116.739 10.5966 109.628 7.1141 104.9 1.78214C104.039 3.12732 103.588 4.65896 103.593 6.21771C103.593 9.26749 105.289 11.9567 107.876 13.5382C106.351 13.4833 104.863 13.1003 103.531 12.4203V12.5285C103.531 16.7992 106.833 20.3384 111.234 21.1524C110.408 21.3486 109.558 21.449 108.704 21.4512C108.078 21.4512 107.487 21.3945 106.89 21.3172C108.107 24.7997 111.651 27.3292 115.871 27.4116C112.569 29.7762 108.433 31.1672 103.943 31.1672C103.137 31.1672 102.393 31.1414 101.621 31.059C105.881 33.5575 110.935 35 116.378 35C134.049 35 143.718 21.616 143.718 9.99903C143.718 9.61781 143.718 9.23658 143.69 8.85536C145.56 7.60351 147.2 6.05286 148.507 4.3116Z" fill="white" fill-opacity="0.7"/>
<path d="M43.0425 3.06308C39.805 1.7282 36.3348 0.741548 32.7058 0.180512C32.6735 0.17484 32.6401 0.178495 32.6101 0.190973C32.5802 0.203451 32.5552 0.224134 32.5387 0.250158C32.0943 0.964028 31.5992 1.89457 31.2521 2.62972C27.4034 2.10397 23.4905 2.10397 19.6417 2.62972C19.2552 1.81498 18.8193 1.02056 18.3361 0.250158C18.3197 0.223814 18.295 0.202663 18.2651 0.189528C18.2352 0.176392 18.2017 0.171897 18.169 0.176643C14.5421 0.737678 11.0719 1.72433 7.83231 3.06114C7.80444 3.07183 7.78081 3.09006 7.7646 3.11337C1.17962 11.9642 -0.62532 20.5964 0.261282 29.1203C0.263749 29.1412 0.270837 29.1614 0.282114 29.1797C0.293391 29.1979 0.308621 29.2139 0.326878 29.2267C4.17036 31.7851 8.45724 33.734 13.008 34.9918C13.0398 35.0007 13.0737 35.0007 13.1054 34.9917C13.1371 34.9828 13.1651 34.9653 13.1858 34.9415C14.1651 33.7441 15.0328 32.4738 15.78 31.1439C15.7904 31.1257 15.7963 31.1057 15.7975 31.0852C15.7987 31.0647 15.795 31.0443 15.7868 31.0252C15.7786 31.0061 15.766 30.9889 15.7498 30.9746C15.7337 30.9604 15.7144 30.9495 15.6932 30.9427C14.3263 30.472 13.0019 29.9041 11.7321 29.2441C11.7093 29.2322 11.6901 29.2153 11.6761 29.1949C11.6622 29.1745 11.6541 29.1513 11.6524 29.1274C11.6507 29.1034 11.6556 29.0794 11.6665 29.0576C11.6775 29.0357 11.6942 29.0167 11.7152 29.0023C11.9818 28.8224 12.2484 28.6347 12.5023 28.447C12.5252 28.4302 12.5527 28.4194 12.5818 28.416C12.611 28.4126 12.6406 28.4166 12.6674 28.4277C20.9769 31.8403 29.9762 31.8403 38.1884 28.4277C38.2152 28.416 38.2451 28.4114 38.2747 28.4145C38.3043 28.4176 38.3323 28.4282 38.3555 28.4451C38.6095 28.6347 38.874 28.8224 39.1427 29.0023C39.1639 29.0164 39.1809 29.0352 39.1922 29.0568C39.2035 29.0785 39.2087 29.1023 39.2075 29.1263C39.2062 29.1503 39.1985 29.1736 39.185 29.1941C39.1714 29.2147 39.1526 29.2318 39.13 29.2441C37.8646 29.9096 36.5485 30.4726 35.1667 30.9407C35.1455 30.9478 35.1262 30.9589 35.11 30.9733C35.0939 30.9877 35.0813 31.0051 35.0731 31.0244C35.0649 31.0436 35.0612 31.0642 35.0624 31.0848C35.0636 31.1054 35.0696 31.1256 35.08 31.1439C35.8417 32.473 36.7135 33.7382 37.6721 34.9396C37.692 34.9642 37.7198 34.9827 37.7516 34.9924C37.7834 35.002 37.8177 35.0025 37.8498 34.9937C42.4084 33.7394 46.7023 31.7896 50.55 29.2267C50.5688 29.2147 50.5846 29.1992 50.5962 29.1811C50.6079 29.1631 50.6152 29.143 50.6177 29.1222C51.6757 19.2673 48.8445 10.7048 43.1081 3.11724C43.094 3.09259 43.0707 3.07336 43.0425 3.06308ZM17.0221 23.9297C14.521 23.9297 12.4579 21.8616 12.4579 19.3254C12.4579 16.7872 14.4808 14.721 17.0221 14.721C19.5824 14.721 21.6265 16.8046 21.5863 19.3254C21.5863 21.8636 19.5634 23.9297 17.0221 23.9297ZM33.8971 23.9297C31.3939 23.9297 29.3329 21.8616 29.3329 19.3254C29.3329 16.7872 31.3537 14.721 33.8971 14.721C36.4575 14.721 38.5016 16.8046 38.4613 19.3254C38.4613 21.8636 36.4596 23.9297 33.8971 23.9297Z" fill="white" fill-opacity="0.7"/>
<path d="M218.337 11.7807C214.84 11.7807 211.986 14.39 211.986 17.5874C211.986 20.7848 214.84 23.3941 218.337 23.3941C221.834 23.3941 224.688 20.7848 224.688 17.5874C224.688 14.39 221.834 11.7807 218.337 11.7807ZM237.386 17.5874C237.386 15.1828 237.41 12.8001 237.262 10.3998C237.114 7.61195 236.419 5.13769 234.189 3.09904C231.954 1.05603 229.253 0.424398 226.204 0.289359C223.574 0.15432 220.967 0.1761 218.342 0.1761C215.712 0.1761 213.106 0.15432 210.481 0.289359C207.431 0.424398 204.725 1.06039 202.495 3.09904C200.261 5.14205 199.57 7.61195 199.422 10.3998C199.274 12.8044 199.298 15.1872 199.298 17.5874C199.298 19.9876 199.274 22.3747 199.422 24.775C199.57 27.5629 200.265 30.0371 202.495 32.0758C204.73 34.1188 207.431 34.7504 210.481 34.8854C213.111 35.0205 215.717 34.9987 218.342 34.9987C220.972 34.9987 223.578 35.0205 226.204 34.8854C229.253 34.7504 231.959 34.1144 234.189 32.0758C236.423 30.0328 237.114 27.5629 237.262 24.775C237.414 22.3747 237.386 19.992 237.386 17.5874ZM218.337 26.5217C212.93 26.5217 208.565 22.5316 208.565 17.5874C208.565 12.6432 212.93 8.65306 218.337 8.65306C223.745 8.65306 228.109 12.6432 228.109 17.5874C228.109 22.5316 223.745 26.5217 218.337 26.5217ZM228.51 10.3737C227.247 10.3737 226.227 9.44151 226.227 8.28714C226.227 7.13278 227.247 6.20058 228.51 6.20058C229.772 6.20058 230.792 7.13278 230.792 8.28714C230.792 8.56125 230.733 8.83274 230.619 9.08605C230.504 9.33936 230.336 9.56951 230.124 9.76334C229.912 9.95716 229.66 10.1108 229.383 10.2156C229.106 10.3203 228.809 10.3741 228.51 10.3737Z" fill="white" fill-opacity="0.7"/>
<path d="M315.46 0.174805H315.761C318.547 0.1841 332.663 0.277059 336.469 1.21284C337.619 1.49843 338.668 2.05511 339.51 2.82723C340.351 3.59936 340.956 4.5599 341.265 5.61285C341.607 6.79032 341.847 8.34892 342.01 9.95709L342.044 10.2793L342.119 11.085L342.146 11.4072C342.366 14.2394 342.393 16.8918 342.396 17.4712V17.7036C342.393 18.3047 342.363 21.1368 342.119 24.0867L342.091 24.4121L342.061 24.7343C341.892 26.5067 341.641 28.2667 341.265 29.562C340.957 30.6153 340.352 31.5763 339.511 32.3486C338.669 33.1208 337.62 33.6772 336.469 33.962C332.538 34.9287 317.595 34.9969 315.524 35H315.043C313.996 35 309.664 34.9814 305.123 34.8389L304.547 34.8203L304.252 34.8079L303.672 34.7862L303.093 34.7645C299.331 34.6127 295.749 34.3679 294.098 33.9589C292.947 33.6744 291.899 33.1185 291.057 32.3468C290.215 31.5751 289.61 30.6148 289.302 29.562C288.926 28.2698 288.675 26.5067 288.506 24.7343L288.479 24.409L288.452 24.0867C288.284 21.9871 288.192 19.8831 288.174 17.778V17.3968C288.181 16.7306 288.208 14.4284 288.391 11.8875L288.414 11.5684L288.425 11.4072L288.452 11.085L288.526 10.2793L288.56 9.95709C288.723 8.34892 288.963 6.78722 289.306 5.61285C289.613 4.55947 290.218 3.59848 291.06 2.82622C291.901 2.05396 292.95 1.49757 294.101 1.21284C295.752 0.810019 299.334 0.56213 303.096 0.4072L303.672 0.38551L304.255 0.366919L304.547 0.357623L305.126 0.335933C308.352 0.241036 311.578 0.188354 314.806 0.177903H315.46V0.174805ZM309.864 10.1213V25.0504L323.953 17.589L309.864 10.1213Z" fill="white" fill-opacity="0.7"/>
</svg>
