<svg width="290" height="67" viewBox="0 0 290 67" fill="none" xmlns="http://www.w3.org/2000/svg">
<path d="M30.8883 13.0617C30.0313 11.8756 29.324 10.6762 28.4045 9.67262C27.0902 8.23936 25.6361 6.93217 24.1985 5.61835C24.0274 5.46241 23.4862 5.46905 23.2938 5.62332C18.5926 9.41052 15.061 14.0023 14.1991 20.1832C13.5444 24.8828 14.7041 29.1444 18.0942 32.5948C20.8511 35.3983 23.7379 38.0708 26.4586 40.9091C29.7319 44.323 31.9295 48.3557 32.1417 53.1814C32.4 59.0621 30.1004 64.1166 24.2659 66.9035C23.9682 67.0462 23.506 67.0147 23.1836 66.8936C19.8625 65.6411 16.9247 63.765 14.2451 61.4193C10.4158 58.0651 7.251 54.18 4.83957 49.6928C2.75054 45.8027 1.35566 41.6572 0.605586 37.2878C-0.616579 30.1679 0.0627667 23.1891 2.17812 16.3429C2.92655 13.9226 3.97929 11.6002 4.87083 9.22472C5.09453 8.62919 5.39884 8.54127 5.92685 8.84982C7.68032 9.87334 9.47163 10.8355 11.1922 11.9121C11.8683 12.3351 12.1265 12.2356 12.4834 11.5621C14.987 6.82932 18.4248 2.97577 23.0585 0.258545C23.5964 -0.0566397 23.9961 -0.104747 24.5472 0.232003C28.5361 2.67386 31.7091 5.93187 34.1962 9.89491C34.4824 10.3494 34.4183 10.6066 33.9774 10.9002C32.9346 11.5969 31.9213 12.3351 30.8883 13.0617ZM4.5073 30.0701C4.58461 31.3922 4.64712 32.7159 4.74417 34.0364C5.01393 37.7407 5.97949 41.2807 7.43194 44.6731C9.43544 49.3527 12.319 53.4253 16.0348 56.8856C18.137 58.8414 20.3889 60.5982 22.9977 61.8291C23.2855 61.9651 23.8267 61.9916 24.0192 61.8141C24.84 61.056 25.748 60.3079 26.3089 59.364C28.1808 56.2271 28.2022 52.8878 26.8451 49.5651C25.2857 45.7447 22.2558 43.0872 19.4003 40.2986C17.3935 38.3395 15.2814 36.4567 13.4951 34.3035C9.87463 29.9407 8.97486 24.7783 9.77922 19.2592C10.146 16.7444 10.1773 16.7709 8.08168 15.467C7.478 15.0921 7.251 15.2132 7.03552 15.8502C5.47286 20.4602 4.50072 25.1714 4.5073 30.0701Z" fill="#11B4DC"/>
<path d="M35.0616 59.8401C36.2789 57.1826 37.6096 54.5748 38.6887 51.8642C41.0326 45.9769 42.3091 39.8175 42.898 33.5155C43.477 27.3246 42.4555 21.3494 40.3928 15.5267C40.3401 15.3774 40.2497 15.2431 40.1329 15.0141C32.5203 19.8066 26.6447 25.961 23.8713 34.957C23.6855 34.6087 23.567 34.4478 23.5095 34.267C22.0866 29.7333 19.667 25.8018 16.461 22.338C16.2702 22.1323 16.0893 21.8172 16.0844 21.5501C16.0548 19.8962 16.5367 18.3568 17.2013 16.6913C19.8347 19.0004 21.9369 21.5733 23.8187 24.5974C28.3883 17.2735 34.8248 12.3633 42.4061 8.66898C42.6562 9.21474 42.893 9.70079 43.1069 10.1968C45.2814 15.248 46.7799 20.4851 47.308 25.9776C48.1288 34.5108 46.6664 42.6111 42.5838 50.1606C40.6856 53.6707 38.2626 56.8093 35.3988 59.5879C35.3018 59.6825 35.1932 59.7687 35.0814 59.8467C35.06 59.86 34.9942 59.8069 35.0616 59.8401Z" fill="#11B4DC"/>
<path d="M55.8467 47.8498V19.1481H64.3525L71.0851 34.9621L77.8572 19.1481H86.363V47.8498H79.4297V31.1815L73.4636 44.4342H68.7477L62.7816 31.1815V47.8498H55.8467Z" fill="#11B4DC"/>
<path d="M91.199 47.8498V19.1481H109.944V25.6127H98.1323V30.4499H108.211V36.6292H98.1323V41.3852H110.226V47.8498H91.199Z" fill="#11B4DC"/>
<path d="M114.136 47.8498V19.1481H124.495C133.606 19.1481 138.886 24.7169 138.886 33.4989C138.886 42.2395 133.687 47.8498 124.576 47.8498H114.136ZM121.191 41.3868H124.416C129.535 41.3868 131.591 38.2566 131.591 33.5006C131.591 28.7446 129.455 25.6143 124.336 25.6143H121.191V41.3868Z" fill="#11B4DC"/>
<path d="M142.675 47.8498V19.1481H161.42V25.6127H149.608V30.4499H159.686V36.6292H149.608V41.3852H161.701V47.8498H142.675Z" fill="#11B4DC"/>
<path d="M163.878 43.2979L169.118 39.0296C170.488 41.3868 172.544 42.1599 174.681 42.1599C176.737 42.1599 178.269 41.4283 178.269 39.7213C178.269 38.1355 177.06 37.4852 173.875 36.7121C168.756 35.4929 164.805 33.3778 164.805 27.605C164.805 22.0361 168.917 18.7416 174.601 18.7416C179.961 18.7416 183.712 21.1802 184.799 24.1081L179.358 27.8886C178.108 25.4086 176.334 24.8396 174.923 24.8396C173.15 24.8396 171.98 25.7338 171.98 27.4009C171.98 29.3518 173.189 29.9622 176.938 30.7352C181.735 31.7107 185.444 33.8257 185.444 39.2734C185.444 45.0861 181.493 48.2579 175.004 48.2579C169.602 48.2562 165.531 46.3469 163.878 43.2979Z" fill="#11B4DC"/>
<path d="M188.831 33.4989C188.831 25.0022 194.999 18.7002 203.263 18.7002C208.787 18.7002 213.381 21.5468 215.398 26.0589L212.738 27.3196C211.287 23.6204 207.658 21.3842 203.265 21.3842C196.613 21.3842 191.777 26.5068 191.777 33.4989C191.777 40.4911 196.534 45.6136 203.428 45.6136C207.982 45.6136 211.772 43.4588 213.384 39.0677L216.005 40.2472C213.909 45.5722 209.071 48.296 203.428 48.296C194.917 48.2977 188.831 41.9956 188.831 33.4989Z" fill="#11B4DC"/>
<path d="M239.703 47.8498L236.921 40.37H223.658L220.916 47.8498H217.893L228.697 19.1481H231.922L242.726 47.8498H239.703ZM230.31 22.3596L224.667 37.6859H235.914L230.31 22.3596Z" fill="#11B4DC"/>
<path d="M267.557 47.8498H264.051L255.061 35.7749H249.74V47.8498H246.878V19.1481H255.828C262.399 19.1481 264.817 22.4824 264.817 27.2384C264.817 31.9131 262.399 34.6784 258.206 35.3287L267.557 47.8498ZM249.74 21.7906V33.134H255.181C259.293 33.134 261.914 31.7107 261.914 27.2384C261.914 23.1327 259.777 21.7906 255.303 21.7906H249.74Z" fill="#11B4DC"/>
<path d="M272.071 47.8498V19.1481H288.599V21.7906H274.933V32.1569H286.826V34.7995H274.933V45.2072H289.002V47.8498H272.071Z" fill="#11B4DC"/>
</svg>
