<svg xmlns="http://www.w3.org/2000/svg" width="511.963" height="512.771" viewBox="0 0 511.963 512.771">
  <path id="crutch" d="M502.6,168.1,343,8.6a32.233,32.233,0,1,0-45.586,45.584l159.6,159.5a32.2,32.2,0,0,0,45.59-.063C515.1,201.9,515.1,181.5,502.6,168.1ZM334.4,245.4l-67.88-67.87,55.13-55.12L276.4,77.16,166.7,186.8a97.731,97.731,0,0,0-25.6,46.4L113.3,353.4,4.7,462a15.988,15.988,0,0,0,0,22.62l22.63,22.62a16,16,0,0,0,22.63,0l108.6-108.6,120.3-27.75a97.978,97.978,0,0,0,46.38-25.62l109.6-109.7-45.25-45.25Zm-54.5,54.7a33.3,33.3,0,0,1-15.5,8.5l-79.25,18.25L203.4,247.6a33.226,33.226,0,0,1,8.5-15.5l9.375-9.25,67.88,67.87Z" transform="translate(-0.013 0.843)" fill="#68d7e2"/>
</svg>
