<svg xmlns="http://www.w3.org/2000/svg" width="640" height="512" viewBox="0 0 640 512">
  <path id="hospital" d="M192,48A48.006,48.006,0,0,1,240,0H400a48.006,48.006,0,0,1,48,48V512H368V432a48,48,0,0,0-96,0v80H192ZM312,64a16.021,16.021,0,0,0-16,16v24H272a16.047,16.047,0,0,0-16,16v16a16.047,16.047,0,0,0,16,16h24v24a16.047,16.047,0,0,0,16,16h16a16.047,16.047,0,0,0,16-16V152h24a16.047,16.047,0,0,0,16-16V120a16.047,16.047,0,0,0-16-16H344V80a16.021,16.021,0,0,0-16-16ZM160,96V512H48A48.006,48.006,0,0,1,0,464V320H80a16,16,0,0,0,0-32H0V224H80a16,16,0,0,0,0-32H0V144A48.006,48.006,0,0,1,48,96Zm432,0a48.012,48.012,0,0,1,48,48v48H560a16,16,0,0,0,0,32h80v64H560a16,16,0,0,0,0,32h80V464a48.012,48.012,0,0,1-48,48H480V96Z" fill="#68d7e2"/>
</svg>
